<?xml version="1.0" standalone="no"?>
<!DOCTYPE svg PUBLIC "-//W3C//DTD SVG 1.1//EN" "http://www.w3.org/Graphics/SVG/1.1/DTD/svg11.dtd" >
<svg xmlns="http://www.w3.org/2000/svg" xmlns:xlink="http://www.w3.org/1999/xlink" version="1.1">
<metadata></metadata>
<defs>
<font id="sucaijishikangkangtiregular" horiz-adv-x="2048" >
<font-face units-per-em="2048" ascent="1760" descent="-288" />
<missing-glyph horiz-adv-x="800" />
<glyph unicode="&#xd;" horiz-adv-x="680" />
<glyph unicode=" "  horiz-adv-x="800" />
<glyph unicode="&#x09;" horiz-adv-x="800" />
<glyph unicode="&#xa0;" horiz-adv-x="800" />
<glyph unicode="!" horiz-adv-x="752" d="M336 240q0 -92 56 -176q40 -28 104 -28q16 36 8 80q-48 72 -116 120q-28 8 -52 4zM436 424q16 -44 60 -72q116 512 176 1064q-44 44 -92 44q-80 -512 -144 -1036z" />
<glyph unicode="&#x22;" horiz-adv-x="784" d="M324 1144q16 -40 64 -52q24 8 44 20q52 124 64 264q-40 56 -104 24q-52 -120 -68 -256zM504 1120q8 -68 84 -68q92 132 116 304q-16 32 -48 48q-32 4 -52 -8q-60 -132 -100 -276z" />
<glyph unicode="#" horiz-adv-x="900" d="M208 392q36 -32 92 -36q4 -96 -16 -192q16 -20 40 -36q44 12 60 52q16 104 28 204q48 20 108 16q-16 -128 -24 -276q28 -56 80 -20q28 160 64 316q56 16 116 20q28 28 48 60q-16 48 -60 64q-40 -8 -88 -8q20 220 44 452q32 8 72 8q36 24 48 68q-20 64 -92 60 q-4 104 28 192q-24 36 -64 32q-68 -100 -80 -240h-112q4 104 8 216q-28 40 -72 24q-48 -108 -36 -256q-60 -20 -132 -20q-36 -20 -56 -56q12 -52 68 -68q48 8 104 8q-36 -224 -56 -476q-56 -8 -104 -28q-40 -36 -16 -80zM436 520q8 240 48 468q44 20 108 12 q-4 -240 -44 -464q-52 -16 -112 -16z" />
<glyph unicode="$" horiz-adv-x="908" d="M156 312q36 -80 96 -152q76 -52 168 -88q4 -68 12 -148q20 -44 72 -52q32 16 56 40q4 76 0 148q132 40 216 148q28 80 52 160q0 112 -28 204q-40 64 -88 116q-72 56 -148 100q4 204 8 412q64 -4 132 -32q36 20 52 60q0 64 -40 100q-80 28 -152 60q0 40 8 72 q-16 52 -68 68q-32 0 -60 -28q-24 -56 -16 -132q-100 -48 -180 -132q-48 -72 -80 -152q-20 -96 12 -200q52 -104 156 -180q48 -16 92 -40q-12 -208 -12 -428q-24 -4 -52 -4q-56 80 -128 132q-56 8 -80 -52zM296 1064q24 80 92 128h40q4 -176 0 -364q-20 -4 -44 -4 q-64 44 -84 108q-8 68 -4 132zM564 216q-16 200 4 392q44 8 72 -24q32 -44 52 -96q12 -116 -24 -216q-36 -52 -104 -56z" />
<glyph unicode="%" horiz-adv-x="980" d="M100 276q4 -64 76 -72q240 288 464 596q116 172 220 344q-12 80 -88 72q-320 -476 -672 -940zM116 1020q20 -60 64 -120q56 -44 136 -32q100 40 172 128q20 52 44 100q8 136 -60 228q-56 40 -116 64q-80 4 -136 -32q-60 -60 -88 -136q-32 -92 -16 -200zM244 1172 q20 48 48 88q48 4 92 -16q32 -80 12 -172q-48 -76 -132 -80q-48 84 -20 180zM488 320q-8 -108 44 -188q44 -40 96 -64q100 -8 176 48q40 44 72 88q24 92 16 192q-24 72 -60 128q-40 24 -80 36q-104 0 -172 -64q-64 -76 -92 -176zM612 328q16 40 40 72q36 36 92 36 q36 -76 20 -184q-32 -32 -64 -56q-32 -8 -64 0q-32 56 -24 132z" />
<glyph unicode="&#x26;" horiz-adv-x="956" d="M160 360q28 -100 84 -192q48 -44 108 -72q44 -4 96 -4q84 56 192 76q80 -64 172 -104q56 24 64 68q-48 92 -148 112q-8 24 -4 48q80 88 132 188q-16 64 -80 68q-84 -64 -128 -164h-36q-104 136 -144 304q72 76 148 128q44 88 96 168q20 80 12 168q-24 56 -48 108 q-72 76 -168 108q-116 16 -204 -32q-72 -64 -96 -160q-8 -68 0 -140q48 -160 92 -328q-76 -72 -116 -172q-32 -80 -24 -176zM292 452q16 56 40 108h40q80 -136 144 -292q-60 -52 -152 -40q-36 44 -60 88q-16 64 -12 136zM340 1004q-12 108 12 204q52 40 136 28 q72 -24 104 -96q0 -64 -8 -124q-40 -60 -72 -124q-40 -56 -108 -64q-40 88 -64 176z" />
<glyph unicode="'" horiz-adv-x="656" d="M352 1348q-32 -68 20 -128q40 -24 88 -24q-12 -56 -24 -116q24 -52 76 -24q44 64 64 136q-4 96 -40 176q-36 28 -72 36q-68 -4 -112 -56z" />
<glyph unicode="(" horiz-adv-x="1044" d="M464 628q28 -208 116 -396q100 -152 228 -296q36 -32 96 -44q36 24 60 60q-152 180 -272 372q-52 132 -80 268q-12 152 0 300q20 132 64 248q144 172 280 340q-4 80 -80 80q-92 -76 -172 -156q-108 -116 -176 -264q-40 -124 -64 -260q-8 -124 0 -252z" />
<glyph unicode=")" horiz-adv-x="620" d="M44 1488q124 -152 240 -312q52 -124 92 -256q28 -176 12 -372q-28 -128 -72 -252q-160 -164 -268 -356q24 -44 84 -52q148 132 268 288q48 88 88 180q28 128 52 256q0 236 -52 436q-36 76 -64 156q-104 164 -224 312q-48 44 -112 40q-32 -28 -44 -68z" />
<glyph unicode="*" horiz-adv-x="1008" d="M108 1184q-8 -40 16 -72q144 -80 308 -136q-120 -156 -272 -288q0 -76 76 -96q116 112 236 220h40q20 -164 64 -320q24 -8 44 -32q20 200 -40 420q28 16 64 8q132 -64 272 -112q8 28 4 52q-100 76 -220 116q-8 24 -4 48q96 84 212 140q20 40 0 76q-36 20 -64 36 q-140 -100 -292 -180q-8 168 -68 292q-32 20 -64 20q28 -140 44 -296q-188 28 -356 104z" />
<glyph unicode="+" horiz-adv-x="980" d="M120 716q32 -36 84 -48h252q8 -128 16 -264q16 -48 68 -68q48 12 68 52v276q144 0 268 28q20 28 24 68q-20 40 -56 56q-120 0 -232 -8q-8 108 -4 216q-16 64 -44 112q-24 12 -44 20q-40 -16 -60 -52q-4 -136 0 -284q-168 -8 -320 -16q-40 -40 -20 -88z" />
<glyph unicode="," horiz-adv-x="516" d="M116 112q-4 -44 16 -80q84 -56 148 -116q-48 -48 -40 -120q32 -28 80 -20q36 48 72 92q28 108 44 216q-20 60 -44 112q-72 48 -172 28q-72 -36 -104 -112z" />
<glyph unicode="-" horiz-adv-x="760" d="M320 756q-8 -48 36 -72q148 -4 300 0q24 32 20 76q-144 48 -316 32q-28 -8 -40 -36z" />
<glyph unicode="." horiz-adv-x="440" d="M164 160q-8 -56 20 -104q48 -32 128 -24q32 20 48 52v108q-20 32 -52 48q-68 8 -112 -20q-24 -24 -32 -60z" />
<glyph unicode="/" horiz-adv-x="980" d="M96 80q0 -44 28 -72q56 -28 104 12q340 680 672 1356q-8 76 -72 92q-28 -8 -56 -24q-336 -680 -676 -1364z" />
<glyph unicode="0" horiz-adv-x="960" d="M148 808q-32 -256 20 -500q44 -104 120 -196q56 -36 120 -68q116 8 208 56q92 104 156 220q52 128 88 260q4 144 20 280q-32 192 -96 360q-48 56 -100 108q-76 52 -180 36q-56 -32 -112 -68q-92 -104 -156 -224q-48 -128 -88 -264zM288 732q28 136 60 264q68 128 184 216 q36 0 76 -8q28 -40 64 -84q56 -160 56 -364q-20 -192 -76 -364q-40 -68 -84 -140q-40 -20 -76 -48h-92q-64 60 -92 140q-36 192 -20 388z" />
<glyph unicode="1" horiz-adv-x="664" d="M208 1224q4 -28 20 -56q72 -20 172 8q-60 -492 -120 -992q12 -32 36 -68q32 -16 76 -12q20 24 36 48q44 456 96 916q28 132 60 260q-16 40 -52 48q-204 -20 -324 -152z" />
<glyph unicode="2" horiz-adv-x="852" d="M204 236q-4 -52 36 -84q204 -64 456 -44q36 20 52 64q-12 52 -56 72q-164 4 -320 12q180 432 396 848q4 52 0 104q-24 68 -72 124q-80 52 -172 72q-60 -4 -120 -12q-100 -36 -132 -140q-4 -36 16 -68q44 -24 88 -4q20 56 68 84q100 8 172 -40q20 -40 8 -96 q-208 -448 -420 -892z" />
<glyph unicode="3" horiz-adv-x="892" d="M188 260q76 -120 216 -188q124 -8 216 56q92 100 120 232v176q-44 136 -96 260q72 84 132 172q36 108 24 236q-28 76 -84 132q-64 36 -132 56q-84 8 -152 -12q-80 -24 -120 -96q0 -72 72 -80q32 24 72 44q68 8 140 0q48 -20 76 -76q0 -60 -4 -120q-36 -92 -112 -156 q-108 -28 -172 -100q4 -28 20 -56q56 -32 128 -52q48 -64 76 -148q0 -112 -12 -224q-24 -52 -64 -88q-44 -20 -96 -24q-88 56 -164 120q-68 0 -84 -64z" />
<glyph unicode="4" horiz-adv-x="924" d="M172 636q-4 -40 24 -60q180 -32 380 -40q0 -180 -36 -352q8 -32 28 -68q48 -32 96 0q40 200 60 416q80 -4 116 56q4 44 -20 64q-40 24 -88 20q0 328 16 656q-12 40 -40 60q-32 0 -64 -12q-112 -132 -208 -276q-144 -224 -264 -464zM372 688q68 212 208 388q16 8 36 4 q0 -208 -36 -400q-108 4 -208 8z" />
<glyph unicode="5" horiz-adv-x="848" d="M176 192q12 -32 40 -60q72 -64 180 -72q136 32 244 120q76 100 116 220q4 76 4 152q-28 100 -76 180q-72 72 -160 108q-56 8 -112 4q0 192 60 356q112 -8 224 -24q52 20 72 72q-8 28 -24 52q-160 44 -332 60q-40 -16 -68 -44l-104 -544q8 -48 56 -72q132 28 244 -20 q52 -56 76 -132q4 -60 0 -124q-28 -84 -80 -156q-76 -60 -188 -56q-48 44 -100 68q-72 -12 -72 -88z" />
<glyph unicode="6" horiz-adv-x="936" d="M228 260q24 -48 52 -100q68 -60 156 -100q72 -4 144 12q64 36 132 76q88 108 136 232q8 88 0 176q-28 60 -56 112q-64 68 -144 100q-112 4 -212 -12q-8 28 -4 56q80 204 216 368q48 28 88 64q20 40 16 72q-40 68 -104 44q-116 -96 -200 -224q-140 -224 -220 -488 q-36 -200 0 -388zM348 352q-8 120 20 216q68 40 152 60q84 8 152 -28q28 -36 44 -88q0 -116 -44 -204q-40 -44 -80 -80q-72 -32 -152 -24q-80 52 -92 148z" />
<glyph unicode="7" horiz-adv-x="900" d="M212 1268q20 -40 68 -56q172 8 348 0q-144 -504 -200 -1076q20 -40 72 -48q16 12 40 24q48 300 100 604q64 284 180 536q-20 68 -84 84q-236 28 -472 12q-48 -20 -52 -80z" />
<glyph unicode="8" horiz-adv-x="888" d="M184 308q28 -100 108 -180q52 -28 108 -56q80 -8 152 12q40 28 84 60q80 120 120 264q4 64 4 128q-60 148 -136 284q36 28 84 44q68 88 96 200q4 88 -12 156q-28 44 -56 84q-64 48 -132 72q-88 8 -156 -12q-84 -44 -132 -128q-28 -60 -48 -124q4 -60 12 -128 q60 -76 92 -176q-84 -84 -140 -188q-64 -136 -48 -312zM316 464q32 152 144 240q52 4 92 -24q36 -56 72 -120q12 -140 -36 -256q-36 -56 -88 -100q-60 -8 -108 8q-40 36 -64 76q-28 84 -12 176zM408 1016q-4 68 4 128q20 68 84 100q72 8 132 -16q24 -24 44 -60 q0 -96 -24 -184q-36 -32 -72 -60q-72 -12 -124 12q-28 40 -44 80z" />
<glyph unicode="9" horiz-adv-x="852" d="M164 1016q28 -120 128 -200q92 -44 220 -40q-92 -328 -184 -668q20 -20 52 -44q44 0 68 32q152 484 320 952q4 52 -4 104q-44 104 -124 184q-56 32 -112 52q-64 8 -128 0q-68 -24 -128 -64q-72 -76 -108 -176q-8 -64 0 -132zM296 1112q24 76 80 124q52 28 120 20 q92 -28 132 -120q4 -52 4 -108q-24 -32 -40 -72q-48 -36 -104 -52q-88 0 -148 40q-52 68 -44 168z" />
<glyph unicode=":" horiz-adv-x="680" d="M352 172q-8 -68 40 -112q40 -28 92 -36l80 32q16 32 28 60q4 72 -28 120q-68 48 -152 16q-44 -28 -60 -80zM356 740q4 -72 56 -124q88 -32 160 24q28 56 16 128q-24 56 -80 76q-40 4 -76 -4q-56 -36 -76 -100z" />
<glyph unicode=";" horiz-adv-x="688" d="M340 36q-4 -44 28 -80q44 -24 96 -40q-36 -48 -48 -112q20 -40 72 -24q80 76 108 180q4 76 -16 132q-40 36 -84 52q-60 -4 -108 -32q-32 -32 -48 -76zM356 688q20 -56 76 -92q84 -12 140 40q36 60 16 128q-32 44 -80 68q-84 4 -124 -52q-28 -40 -28 -92z" />
<glyph unicode="&#x3c;" horiz-adv-x="844" d="M244 716q32 -104 84 -208q144 -228 300 -448q36 -28 84 -12q24 28 40 60q-192 288 -360 588q156 336 372 632q0 40 -16 64q-32 20 -64 24q-32 -16 -60 -32q-144 -248 -308 -484q-44 -88 -72 -184z" />
<glyph unicode="=" horiz-adv-x="880" d="M192 556q12 -68 84 -76q252 4 500 24q16 32 24 52q-12 52 -52 68q-260 12 -512 -8q-36 -16 -44 -60zM196 932q12 -20 28 -40q248 -36 508 -4q16 24 32 44q0 56 -44 76q-244 8 -484 0q-40 -24 -40 -76z" />
<glyph unicode="&#x3e;" horiz-adv-x="848" d="M244 96q20 -44 72 -60q40 20 84 40q192 312 368 632q-20 132 -84 240q-152 240 -316 456q-52 12 -88 -12l-24 -48q184 -284 364 -580v-56q-200 -296 -376 -612z" />
<glyph unicode="?" horiz-adv-x="860" d="M216 1204q-16 -72 8 -136q20 -32 60 -36q12 64 24 124q24 48 68 84q80 44 188 40q56 -12 108 -48q12 -48 16 -104q-28 -52 -44 -112q-184 -164 -304 -372q-36 -92 -44 -200q8 -68 76 -92q20 56 16 124q36 112 104 200q108 116 208 228q44 80 72 168q8 136 -56 228 q-88 72 -200 88q-80 4 -148 -12q-48 -20 -88 -52q-36 -60 -64 -120zM256 248q8 -80 48 -148q36 -36 100 -36q12 24 16 56q-32 64 -80 112q-44 36 -84 16z" />
<glyph unicode="@" horiz-adv-x="1024" d="M64 724q-4 -112 8 -224q28 -116 80 -224q76 -76 168 -132q144 -60 316 -76q92 28 180 76q92 92 128 216q-20 36 -56 36q-68 -76 -132 -168q-108 -44 -240 -28q-164 40 -284 136q-56 100 -76 216q-8 92 0 180q36 176 108 332q48 60 100 116q80 60 192 76q116 -4 204 -60 q24 -48 44 -104q8 -140 0 -284q-40 -208 -140 -380h-44q24 324 76 648q-12 32 -36 48q-56 -24 -64 -92q-88 36 -176 8q-72 -68 -112 -160l-40 -160q-8 -156 56 -284q28 -28 64 -48q64 32 136 56q20 -52 36 -112q36 -40 104 -28q56 40 96 100q44 88 84 172q24 132 56 256 q4 116 0 228q-24 104 -56 196q-68 68 -148 104q-104 20 -196 12q-56 -20 -108 -40q-104 -68 -180 -180q-108 -192 -148 -428zM364 772q24 96 88 164q76 16 116 -32q0 -100 -16 -192q-40 -92 -100 -172q-44 0 -72 8q-36 104 -16 224z" />
<glyph unicode="A" horiz-adv-x="976" d="M124 136q8 -28 36 -48q18 -4 35 -4t33 4q-11 99 -10 201q0 51 2 103q28 304 132 568q64 148 160 276q52 -32 72 -108q60 -216 104 -444q-120 -5 -240 -5l-120 1q-8 -23 -8 -42q0 -39 32 -66q112 -11 235 -11q61 0 125 3q23 -103 23 -212q0 -61 -7 -124q24 -40 76 -48 q30 97 30 200q0 88 -22 180q52 8 84 40q-4 36 -12 64q-36 36 -89 36h-11q-56 192 -88 388q-48 124 -108 240q-56 60 -132 60q-116 -156 -200 -340q-52 -148 -92 -300q-42 -237 -42 -493q0 -59 2 -119z" />
<glyph unicode="B" horiz-adv-x="1004" d="M120 1256q18 -40 74 -40h10q-9 -272 -9 -545q0 -205 5 -411q4 -96 64 -168q112 -20 234 -20q52 0 106 4q96 28 188 76q80 88 128 192q2 34 2 67t-2 65q-32 96 -96 172q-72 32 -104 84q56 56 108 116q56 84 76 180q-12 80 -32 156q-68 100 -172 140q-92 28 -176 48 q-45 3 -89 2q-161 0 -303 -34q-14 -23 -14 -56q0 -13 2 -28zM300 608q120 36 260 36h28q84 -16 160 -60q40 -40 68 -96q-12 -92 -64 -164q-104 -92 -236 -124q-100 -4 -196 -4q-25 141 -25 284q0 64 5 128zM304 780q2 114 2 226t-2 222q96 23 205 23q41 0 83 -3 q88 -24 172 -76q23 -39 23 -85q0 -26 -7 -55q-56 -96 -144 -172l-176 -80q-44 -10 -83 -10t-73 10z" />
<glyph unicode="C" horiz-adv-x="1036" d="M80 484q20 -104 64 -204q60 -96 156 -152q92 -36 204 -56q108 20 208 56q88 52 160 132q0 56 -20 100q-16 16 -40 20q-140 -84 -308 -148h-120q-96 28 -164 92q-32 56 -48 112q-8 74 -8 147t8 145q24 136 88 248q52 104 136 180q76 44 164 68q19 1 37 1q110 0 199 -41 q64 -56 144 -100q6 22 6 46q0 36 -14 74q-44 44 -80 76q-120 64 -248 96h-20q-128 0 -224 -48q-48 -32 -88 -76q-92 -120 -148 -256q-28 -88 -44 -184q-6 -82 -6 -164t6 -164z" />
<glyph unicode="D" horiz-adv-x="988" d="M136 208q12 -64 48 -124q168 20 340 84q140 92 252 224q68 120 108 248q12 76 12 152t-12 152q-32 96 -80 180q-56 64 -116 116q-76 48 -152 80q-127 34 -262 34q-56 0 -114 -6q-30 -385 -30 -779q0 -180 6 -361zM244 236q-15 188 -15 373q0 314 43 619q32 2 63 2 q109 0 209 -22q52 -24 112 -56q88 -88 132 -208q2 -42 2 -86t-2 -90q-36 -160 -124 -288q-112 -120 -244 -200q-84 -28 -176 -44z" />
<glyph unicode="E" horiz-adv-x="1044" d="M84 1276q40 -44 108 -60q-16 -180 -52 -344q-4 -124 -4 -248t4 -248q16 -156 96 -276q84 -10 171 -10t177 10q140 24 284 52q23 23 23 55q0 12 -3 25q-24 48 -72 64q-248 -68 -536 -72q-42 162 -42 346q0 42 2 86q75 -2 149 -2q259 0 511 22q0 60 -28 96q-308 28 -624 32 q20 212 72 408q304 8 608 24q22 24 22 54q0 20 -10 42q-32 24 -68 40q-232 -25 -458 -25q-165 0 -326 13q-5 -27 -5 -55q0 -14 1 -29z" />
<glyph unicode="F" horiz-adv-x="1000" d="M116 636q32 -48 108 -56q-1 -28 -1 -56q0 -209 53 -400q21 -37 55 -37q17 0 37 9q-44 199 -44 410q0 60 4 122q211 35 421 35l115 -3q18 18 18 44q0 20 -10 44q-28 32 -64 40q-52 2 -104 2q-181 0 -356 -22q-1 16 -1 32q0 64 13 128q40 172 104 328q224 -4 444 -32 q9 24 9 48q0 8 -1 16q-16 44 -56 56q-220 33 -448 33q-46 0 -92 -1q-64 -16 -128 -24q-9 -24 -9 -55q0 -10 1 -21q52 -48 136 -56q-64 -220 -84 -472q-60 -20 -116 -44z" />
<glyph unicode="G" horiz-adv-x="1016" d="M64 552q20 -72 60 -144q60 -60 132 -108q88 -36 184 -68q204 20 348 80q0 -104 20 -204q23 -32 60 -32q13 0 28 4q-16 308 -36 580q48 4 76 28q0 44 -12 72q-44 28 -88 40q-142 13 -280 13q-115 0 -228 -9q-9 -27 -9 -61q0 -11 1 -23q16 -28 52 -40h384q14 -43 14 -88 q0 -30 -6 -60q-44 -44 -84 -88q-104 -64 -224 -84q-68 0 -124 12q-76 40 -140 88q-20 48 -36 96q-4 56 -4 110t4 106q28 136 72 264q40 76 100 144q60 36 120 68q50 8 102 8t106 -8q40 -16 60 -64q20 -13 40 -13q18 0 36 9q1 15 1 29q0 28 -5 55q-28 28 -52 56 q-92 52 -192 68h-128q-92 -20 -160 -80q-60 -68 -104 -144q-52 -148 -88 -304q-8 -78 -8 -155t8 -153z" />
<glyph unicode="H" horiz-adv-x="956" d="M136 468q16 -160 56 -316q36 -8 76 -16q-20 244 -28 536q203 37 429 37q41 0 83 -1q12 -308 52 -600q21 -21 59 -21q6 0 13 1q-14 294 -14 595t14 609q-20 72 -96 76q-29 -174 -29 -371q0 -79 5 -161q-252 -8 -504 -20q4 256 32 476q-31 45 -77 45q-7 0 -15 -1 q-57 -370 -57 -768q0 -50 1 -100z" />
<glyph unicode="I" horiz-adv-x="648" d="M436 128q4 -44 52 -56q32 8 48 28q28 452 32 912q-8 176 -24 336q-20 24 -44 28h-8q-38 0 -52 -36q17 -286 17 -573q0 -319 -21 -639z" />
<glyph unicode="J" horiz-adv-x="916" d="M176 136q68 -44 156 -68q40 -6 81 -6t83 6q68 44 136 104q84 116 136 244q32 140 56 284q6 116 6 231t-6 229q-24 92 -44 180q-33 36 -79 36h-9q-12 -32 -16 -72q12 -20 32 -40q22 -170 22 -348q0 -118 -10 -240q-36 -180 -128 -332q-84 -104 -196 -156q-112 0 -204 36 q-18 -24 -18 -62q0 -12 2 -26z" />
<glyph unicode="K" horiz-adv-x="1020" d="M132 716q56 -44 116 -96q-4 -65 -4 -128q0 -205 40 -392q24 -20 68 -20q1 68 1 138q0 140 -5 290q256 -156 548 -300q16 24 16 48t-16 48q-288 148 -544 356q-5 27 -5 53q0 35 9 67q284 152 580 272v9q0 76 -64 99q-260 -80 -500 -196q8 160 20 324q-24 76 -100 84 q-8 -240 -28 -488q-72 -36 -128 -92q-5 -24 -5 -50q0 -13 1 -26z" />
<glyph unicode="L" horiz-adv-x="1000" d="M124 380q12 -124 48 -244q204 -36 428 -48q32 -2 62 -2q133 0 254 42q1 6 1 12q0 31 -17 68q-32 16 -60 32q-148 -14 -293 -14t-287 14q-20 88 -32 168q12 468 36 912q-36 52 -100 52q-44 -370 -44 -765q0 -112 4 -227z" />
<glyph unicode="M" horiz-adv-x="1040" d="M72 780q-10 -118 -10 -234q0 -155 18 -306q24 -40 76 -48q24 308 24 636q16 156 48 300q120 -100 256 -200q24 -2 49 -2t51 2q120 64 236 136q30 -252 30 -507q0 -219 -22 -441q32 -28 80 -32q44 148 48 320v55q0 414 -56 793q-36 40 -80 52q-96 -140 -236 -228 q-39 -10 -76 -10q-49 0 -92 18q-88 128 -168 256q-28 28 -64 28q-88 -276 -112 -588z" />
<glyph unicode="N" horiz-adv-x="956" d="M128 568q16 -232 56 -452q15 -36 59 -36h9q24 12 32 36q-32 224 -56 440q-6 96 -6 189q0 140 14 275q12 8 28 4q100 -280 220 -556q88 -200 232 -368q52 8 92 36q48 132 68 276q-4 464 -56 892q-20 24 -44 32q-44 -8 -56 -52q44 -412 56 -852q-16 -84 -36 -172 q-20 -8 -36 0q-260 524 -448 1080q-32 23 -66 23q-13 0 -26 -3q-37 -322 -37 -666q0 -63 1 -126z" />
<glyph unicode="O" horiz-adv-x="1020" d="M76 520q32 -164 120 -308q68 -72 160 -116q51 -16 107 -16q40 0 81 8q88 48 180 104q128 144 188 316q28 152 28 312q-28 144 -80 268q-136 164 -304 268q-59 22 -125 22q-19 0 -39 -2q-88 -36 -156 -104q-44 -56 -80 -112q-48 -124 -80 -256q-8 -96 -8 -192t8 -192z M172 824q28 132 92 244q72 108 188 160h100q128 -80 236 -196q32 -80 56 -168q0 -164 -40 -304q-40 -72 -84 -144q-96 -108 -216 -168q-72 -20 -156 -24q-40 16 -68 40q-68 84 -96 184q-22 113 -22 226q0 75 10 150z" />
<glyph unicode="P" horiz-adv-x="976" d="M156 104q15 -36 56 -36h8q60 96 80 220q4 144 28 272q80 24 160 52q124 76 252 160q72 84 124 176q20 62 19 126q0 40 -7 82q-32 68 -92 108q-60 32 -112 52q-72 6 -144 6l-144 -6q-7 58 -54 58q-8 0 -18 -2q-36 -24 -36 -80q-72 -12 -116 -64q-1 -7 -1 -14q0 -34 33 -54 q40 8 84 20q-28 -548 -120 -1076zM340 668q12 268 44 536q74 20 149 20t151 -20q40 -16 76 -52q23 -44 23 -98q0 -20 -3 -42q-28 -52 -52 -108q-108 -108 -236 -180q-76 -32 -152 -56z" />
<glyph unicode="Q" horiz-adv-x="1020" d="M60 648q12 -136 28 -276q32 -112 84 -224q60 -96 160 -148q64 -16 140 -20q68 24 132 60q52 48 100 104q124 -36 212 -124q18 24 18 57q0 11 -2 23q-48 88 -132 132q68 196 132 388q4 56 4 111t-4 109q-32 92 -56 184q-136 192 -304 328q-44 22 -99 22q-16 0 -33 -2 q-60 -12 -112 -40q-108 -112 -184 -248q-80 -200 -84 -436zM164 460q-4 64 -4 127t4 125q24 124 68 236q48 104 120 192q44 36 92 68q140 -20 252 -88q84 -92 132 -212q6 -56 6 -114t-6 -118q-48 -160 -128 -304q-24 -9 -50 -9q-9 0 -18 1q-92 68 -196 112q-2 -22 -2 -45 t2 -47q88 -64 144 -144q-64 -64 -144 -108q-30 -4 -58 -4q-46 0 -86 12q-28 40 -56 72q-52 120 -72 248z" />
<glyph unicode="R" horiz-adv-x="1056" d="M88 1220q-4 -18 -4 -33q0 -55 44 -83q84 12 168 44q-24 -276 -52 -560q-10 -101 -10 -198q0 -146 22 -286q24 -24 68 -24q17 177 16 364v76q88 12 176 32q156 -224 328 -436q14 -4 26 -4q21 0 38 12q-148 244 -292 484q116 60 216 148q84 100 136 220q4 32 4 63t-4 61 q-28 84 -80 152q-108 88 -248 112q-15 0 -30 1q-167 0 -310 -41q-116 -40 -212 -104zM368 672q18 210 18 400q0 63 -2 124q80 24 168 36q34 4 66 4q76 0 146 -20q48 -24 92 -68q8 -40 8 -88q-60 -128 -164 -224q-144 -120 -332 -164z" />
<glyph unicode="S" horiz-adv-x="956" d="M128 196q36 -52 100 -84q108 -32 224 -52q76 0 148 12q60 28 124 60q108 96 152 228q-4 72 -12 136q-40 124 -140 204q-200 84 -384 188q-28 28 -44 60q0 108 52 188q56 56 124 88q75 29 164 29q20 0 40 -1q80 -32 168 -60q9 22 9 44q0 26 -13 52q-80 72 -192 88 q-48 6 -95 6t-93 -6q-80 -24 -156 -64q-76 -68 -108 -164q-6 -50 -6 -101t6 -103q36 -100 128 -172q184 -88 376 -176q36 -48 64 -100q0 -44 -8 -80q-52 -92 -132 -164q-68 -32 -132 -56q-40 -4 -80 -4l-80 4q-96 48 -200 76q-5 -21 -5 -48q0 -13 1 -28z" />
<glyph unicode="T" horiz-adv-x="1028" d="M64 1336q-3 -16 -3 -32q0 -40 23 -72q154 -29 332 -29q40 0 80 1q8 -536 32 -1064q32 -56 108 -56q-12 352 -12 700q0 209 4 416q136 8 288 32q14 23 14 48q0 31 -22 64q-28 16 -52 24q-84 -4 -156 -32q-166 -6 -325 -6t-311 6z" />
<glyph unicode="U" horiz-adv-x="1032" d="M76 908q-8 -92 -8 -182q0 -144 20 -282q24 -80 52 -164q48 -72 112 -132q60 -40 124 -72q52 -8 112 -12q132 40 232 136q140 200 208 436q12 96 12 192t-12 192q-36 128 -84 244q-36 40 -88 44q12 -164 76 -324q4 -54 4 -108t-4 -108q-28 -84 -52 -172 q-60 -128 -144 -248q-112 -100 -264 -136q-64 28 -112 72q-44 76 -72 148q-20 120 -20 243q0 52 4 105q28 196 84 376q32 44 72 84q-4 40 -20 88q-34 31 -80 31q-14 0 -28 -3q-92 -208 -124 -448z" />
<glyph unicode="V" horiz-adv-x="1020" d="M60 1352q-3 -54 -3 -109q0 -83 7 -167q32 -252 84 -500q64 -240 196 -444q44 -24 92 -48q36 16 80 32q128 148 224 324q124 300 196 628q1 18 1 36q0 70 -13 128q-36 40 -80 56q-44 -308 -148 -580q-68 -128 -140 -260q-64 -76 -144 -136h-52q-96 188 -144 396 q-48 296 -76 596q-36 48 -80 48z" />
<glyph unicode="W" horiz-adv-x="1032" d="M60 896q28 -364 112 -708q40 -52 96 -76q92 140 156 288q24 -172 124 -296q28 -24 72 -32q128 184 200 404q68 264 112 532q10 78 10 154t-10 150q-30 44 -66 44h-6q-20 -172 -40 -352q-52 -252 -132 -496q-48 -124 -136 -208q-40 104 -60 208q-8 188 -32 360 q-32 36 -72 48q-28 -160 -56 -324q-28 -128 -100 -220q-40 164 -60 324q-20 296 -32 592q-35 38 -65 38q-8 0 -15 -2q-8 -104 -8 -211t8 -217z" />
<glyph unicode="X" horiz-adv-x="1000" d="M80 1200q160 -160 300 -348q-148 -320 -284 -652l4 -60q32 -36 88 -44q120 296 284 560h52q172 -212 312 -452q29 -14 59 -14q12 0 25 2q-20 64 -36 120q-148 224 -312 440q20 144 108 236q100 132 216 232q-8 36 -12 72q-42 53 -97 53q-7 0 -15 -1q-168 -184 -296 -388 h-52q-116 128 -212 260q-56 60 -132 84q-4 -24 -4 -49t4 -51z" />
<glyph unicode="Y" horiz-adv-x="952" d="M128 1372q0 -112 56 -216q96 -184 240 -336q-8 -119 -8 -235q0 -253 36 -497q32 -16 76 -16q7 211 7 428q0 145 -3 292q168 236 340 468q0 40 -8 76q-40 36 -92 40q-148 -224 -328 -428q-144 184 -228 396q-48 28 -88 28z" />
<glyph unicode="Z" horiz-adv-x="1012" d="M76 232q52 -40 120 -64q306 -64 658 -64h42q19 28 19 56q0 25 -15 52q-36 20 -64 40q-46 -1 -91 0q-227 0 -437 16q-8 28 -4 60q128 200 256 396q88 196 164 396q1 15 1 30q0 58 -13 106q-72 76 -184 88q-96 2 -193 2t-195 -2q-14 -30 -14 -59q0 -36 22 -69q48 -8 92 -28 q126 18 266 18q46 0 94 -2q4 -36 4 -84q-156 -328 -352 -632q-72 -80 -152 -148q-26 -35 -26 -83q0 -12 2 -25z" />
<glyph unicode="[" horiz-adv-x="1048" d="M348 480q16 -268 72 -520q40 -48 108 -68q80 -4 152 -24q124 -8 224 36q4 56 -24 92q-36 16 -60 32q-132 -28 -280 -20q-24 12 -32 28q-68 436 -56 916q16 196 48 384q92 72 216 88q140 -4 252 20q-4 60 -40 96q-192 52 -388 0q-88 -28 -144 -92q-32 -172 -48 -348 q-12 -308 0 -620z" />
<glyph unicode="\" horiz-adv-x="1008" d="M84 1340q340 -764 740 -1492q68 -8 104 40q-336 760 -716 1492q-32 28 -72 20q-36 -20 -56 -60z" />
<glyph unicode="]" horiz-adv-x="732" d="M56 12q-12 -52 8 -100q32 -24 76 -36q220 -8 412 48q32 100 60 196q8 208 36 404q4 344 -24 680q-32 140 -60 276q-32 48 -76 72q-212 28 -420 0q-12 -52 8 -100q184 -32 400 -28q64 -344 60 -736q-16 -328 -64 -632q-200 -56 -416 -44z" />
<glyph unicode="^" horiz-adv-x="812" d="M268 1388q24 -40 80 -40q64 108 172 156q72 -60 148 -116q32 -16 64 4q-4 36 -12 68q-104 104 -224 164l-64 -4q-92 -60 -164 -152q-4 -40 0 -80z" />
<glyph unicode="_" horiz-adv-x="748" d="M344 -192q-4 -48 12 -80h312v68q-156 28 -324 12z" />
<glyph unicode="`" horiz-adv-x="712" d="M372 1536q104 -80 160 -204q36 -16 80 -24q20 28 12 68q-60 124 -168 220q-32 28 -80 24q-20 -36 -4 -84z" />
<glyph unicode="a" horiz-adv-x="992" d="M112 512q-5 -42 -5 -83q0 -92 25 -177q44 -72 116 -132q52 -28 108 -52q36 -4 74 -4t78 4q148 60 264 164q40 -88 120 -144q20 12 20 40q-100 180 -156 376q-44 200 -88 392q-24 21 -54 20h-10q-7 -19 -7 -44q0 -17 3 -36q-64 4 -124 24q-108 -16 -192 -68 q-48 -36 -88 -84q-60 -88 -84 -196zM196 312q-1 16 -1 32q0 94 21 172q36 84 108 152q72 44 152 76h18q70 0 134 -28q32 -184 88 -360q-68 -56 -128 -116q-104 -60 -232 -68q-56 20 -104 52q-40 40 -56 88z" />
<glyph unicode="b" horiz-adv-x="968" d="M120 752v-10q0 -38 28 -66q22 -12 53 -12q18 0 39 4q4 -112 8 -228q20 -172 92 -324q40 -28 88 -52q112 60 216 140q88 92 172 188q28 56 52 112q5 37 5 71q0 95 -41 165q-108 84 -248 108q-32 1 -62 1q-92 0 -178 -9q-1 30 -1 61q0 211 49 403q-20 60 -76 64 q-40 -100 -56 -224q-4 -168 -20 -336q-72 -20 -120 -56zM332 464v236q106 41 239 41q22 0 45 -1q104 -12 168 -84q-4 -68 -16 -132q-100 -124 -212 -232q-76 -60 -168 -92q-44 128 -56 264z" />
<glyph unicode="c" horiz-adv-x="992" d="M80 376q20 -112 100 -196q104 -76 240 -112q84 0 168 12q80 32 164 64q88 48 156 120q1 5 1 10q0 31 -21 62q-28 24 -64 28q-136 -128 -328 -168q-96 0 -180 8q-52 24 -96 56q-32 44 -44 92q-4 30 -4 59q0 67 20 125q32 68 80 132q84 80 188 120h80q64 -56 136 -92 q12 28 12 64q-68 108 -188 152q-140 0 -232 -72q-84 -68 -136 -160q-28 -68 -52 -140q-4 -40 -4 -81t4 -83z" />
<glyph unicode="d" horiz-adv-x="920" d="M116 472q16 -76 56 -148q72 -80 172 -112q30 -2 61 -2t63 2q96 40 200 68q4 -84 8 -172q24 -24 60 -40q20 74 20 157q0 52 -8 107q36 24 56 60q-8 52 -44 72q16 372 44 736q24 52 36 112q-16 48 -68 56q-24 -28 -40 -72q-16 -156 -28 -312q-82 12 -168 13q-51 0 -104 -5 q-140 -56 -232 -184q-44 -80 -72 -168q-13 -64 -13 -133q0 -17 1 -35zM216 400q-13 53 -13 104q0 76 29 148q44 72 100 136q76 64 176 92q25 3 48 3q78 0 140 -31q-20 -192 -20 -404q-116 -76 -252 -112q-20 -1 -40 -1q-58 0 -112 9q-36 24 -56 56z" />
<glyph unicode="e" horiz-adv-x="948" d="M124 584q9 -59 9 -125q0 -49 -5 -103q16 -96 68 -184q64 -76 164 -108q34 -4 70 -4t74 4q108 36 208 104q104 92 156 208q-12 28 -20 52q-25 20 -52 20q-12 0 -24 -4q-56 -116 -160 -196q-60 -36 -124 -68q-68 -16 -140 -16q-36 20 -68 32q-36 48 -56 92q-5 34 -5 67 q0 81 29 149q76 -8 160 -12q132 32 248 104q44 44 68 100q1 15 1 30q0 73 -33 130q-44 36 -92 52q-21 2 -41 2q-107 0 -195 -54q-140 -128 -240 -272zM312 600q-2 10 -2 20q0 39 38 68q80 80 188 112h80q16 -16 12 -52q-24 -32 -56 -64q-108 -76 -260 -84z" />
<glyph unicode="f" horiz-adv-x="944" d="M152 1036q-7 -20 -7 -40q0 -25 11 -52l56 -48q112 -32 240 -40q8 -100 12 -192q-32 -196 -80 -388q-28 -56 -60 -112v-8q0 -54 48 -84q28 -4 44 12q40 88 76 172q36 156 60 316q4 148 4 288q140 20 276 52q20 28 32 60q-8 52 -52 68q-128 -28 -248 -56q-3 25 -3 50 q0 66 23 130q24 52 64 96q19 11 43 11q12 0 25 -3q18 21 18 46q0 9 -2 18q-24 48 -72 64h-11q-45 0 -73 -28q-48 -60 -80 -124q-32 -108 -32 -232v-28q-40 -12 -84 -12q-120 28 -228 64z" />
<glyph unicode="g" horiz-adv-x="948" d="M176 -16q12 -60 48 -116q56 -60 132 -92q16 -1 31 -1q70 0 129 29q64 52 120 120q40 76 76 148q4 92 20 176q52 24 112 36q21 21 21 53q0 5 -1 11q-20 36 -52 52q-32 -4 -56 -12v11q0 101 68 173q-20 84 -24 172q20 64 60 116q-4 68 -68 80q-52 -44 -72 -112 q-56 32 -108 64q-45 11 -91 11l-45 -3q-92 -20 -160 -80q-80 -84 -116 -192q-8 -37 -8 -71q0 -64 28 -121q68 -76 176 -88q152 16 280 84q2 -10 2 -19q0 -32 -22 -57q-196 -28 -364 -108q-56 -44 -92 -100q-26 -58 -26 -128q0 -18 2 -36zM264 -40q-4 18 -4 35q0 50 36 89 q60 68 140 100q100 32 204 48q0 -68 -24 -140q-48 -76 -116 -148q-64 -53 -146 -53q-11 0 -22 1q-48 24 -68 68zM280 492q-1 11 -1 22q0 43 13 78q32 64 80 120q81 77 199 77q16 0 33 -1q48 -16 88 -56q28 -36 28 -76q0 -21 -8 -44q-72 -52 -140 -100q-80 -28 -160 -52 q-76 0 -132 32z" />
<glyph unicode="h" horiz-adv-x="1032" d="M64 380q12 -120 32 -248q24 -40 68 -44q20 232 84 436q52 128 120 248q52 80 132 124q10 2 20 2q38 0 64 -26q40 -88 72 -184q12 -144 40 -284q36 -92 88 -184q60 -68 148 -100q10 28 10 56t-10 56q-40 28 -80 48q-36 60 -64 112q-44 180 -68 368q-36 84 -76 164 q-56 64 -120 104q-15 1 -29 2q-28 0 -55 -6q-68 -40 -120 -108q-92 -152 -148 -328h-28q12 312 56 616q32 32 40 76q-16 64 -68 84q-24 -8 -36 -28q-73 -411 -73 -865q0 -45 1 -91z" />
<glyph unicode="i" horiz-adv-x="724" d="M304 1140q24 -28 64 -48q120 80 256 148q8 22 8 42q0 34 -20 66q-38 23 -80 23q-16 0 -32 -3q-92 -56 -180 -120q-25 -25 -25 -61q0 -21 9 -47zM372 328q12 -96 32 -196q40 -24 88 -48v95q0 379 28 745q-36 48 -96 48q-20 -32 -40 -68q-12 -284 -12 -576z" />
<glyph unicode="j" horiz-adv-x="928" d="M128 -64q-7 -18 -7 -37q0 -24 11 -51q36 -36 92 -56q52 -4 105 -4t107 4q68 20 128 60q68 80 124 168q28 104 60 200q4 368 4 704q8 24 28 36q-8 44 -32 68q-22 20 -44 20l-28 -8q-32 -255 -32 -543q0 -104 4 -213q-36 -152 -120 -276q-72 -64 -160 -92q-29 -2 -57 -2 q-99 0 -183 22zM532 1248q-2 -12 -2 -23q0 -62 58 -89q136 60 252 136q2 13 2 24q0 29 -14 52q-28 24 -56 36q-144 -36 -240 -136z" />
<glyph unicode="k" horiz-adv-x="960" d="M176 580q8 -44 12 -96q20 -36 60 -64v-29q0 -156 40 -295q24 -16 60 -20q3 44 3 90q0 92 -11 190q212 -56 460 -76q18 25 18 54q0 16 -6 34q-24 20 -44 36q-92 0 -188 4q-132 28 -248 76q-5 37 -5 73q0 18 1 35q276 204 552 356q-12 52 -56 72q-264 -92 -492 -240 q8 280 60 540q-24 56 -84 56q-76 -316 -76 -676v-36q-36 -40 -56 -84z" />
<glyph unicode="l" horiz-adv-x="616" d="M400 344q12 -108 36 -220q26 -40 65 -40h7q-21 298 -21 626q0 55 1 110q36 260 48 504q-26 32 -59 32q-12 0 -25 -4q-36 -180 -52 -368q-4 -158 -4 -318t4 -322z" />
<glyph unicode="m" horiz-adv-x="1044" d="M64 900q-7 -91 -7 -184q0 -116 11 -236q20 -168 52 -336q20 -36 64 -36v39q0 195 36 381q28 84 84 160q40 56 108 56q36 -60 52 -132q12 -212 12 -428q26 -52 70 -52h6q20 220 52 432q24 68 60 132q40 56 96 84q24 0 48 -8q24 -36 44 -76q20 -136 20 -284 q-20 -124 -40 -256q8 -68 76 -84q36 116 52 240q1 27 1 54q0 162 -21 310q-24 80 -60 152q-48 60 -108 84q-15 2 -29 2q-56 0 -95 -26q-76 -92 -124 -188q-16 48 -32 92q-40 56 -92 84q-24 5 -46 5q-11 0 -22 -1q-68 -16 -108 -76q-36 -60 -64 -128q-24 88 -28 188 q-36 24 -68 36z" />
<glyph unicode="n" horiz-adv-x="996" d="M92 800q20 -324 84 -628q24 -20 52 -32q24 172 44 348q32 100 92 180q76 72 168 112q35 5 73 5q19 0 39 -1q88 -52 132 -148q20 -92 44 -180q5 -46 5 -89q0 -97 -25 -183q16 -64 76 -100q20 36 36 76q2 58 2 116t-2 116q-32 212 -128 384q-88 88 -200 128q-13 1 -25 0 q-73 0 -131 -20q-132 -72 -192 -212h-40q-16 56 -40 104q-36 16 -64 24z" />
<glyph unicode="o" horiz-adv-x="968" d="M120 504q16 -164 108 -292q88 -92 204 -140q60 -4 124 -4q148 44 252 156q44 92 76 184q2 42 2 82t-2 78q-36 132 -108 236q-68 64 -148 100q-42 4 -85 4t-87 -4q-96 -32 -176 -88q-72 -64 -116 -144q-24 -84 -44 -168zM264 504q24 152 112 260q60 44 132 68 q56 0 116 -12q52 -56 92 -120q16 -76 32 -156q-8 -84 -20 -172q-40 -84 -92 -164q-44 -32 -88 -56q-28 -2 -54 -2t-50 2q-92 56 -144 144q-28 100 -36 208z" />
<glyph unicode="p" horiz-adv-x="948" d="M160 756q42 -20 88 -20t96 20q-32 -240 -48 -496q-24 -12 -40 -24q40 -176 40 -379v-37q24 -40 76 -44q8 176 8 356q188 52 356 156q88 92 132 204v112q-32 100 -96 176q-176 100 -360 144q-8 -28 -32 -44q-112 -12 -216 -32q-17 -21 -17 -46q0 -22 13 -46zM392 268 q4 268 76 504h18q118 0 218 -48q72 -56 72 -160q-44 -116 -144 -196q-112 -68 -240 -100z" />
<glyph unicode="q" horiz-adv-x="940" d="M108 312q12 -64 52 -128q72 -68 168 -100q30 -2 62 -2t66 2q128 48 240 96q32 -200 100 -380q24 -20 64 -24q-60 268 -80 528q-8 52 -48 72q-24 240 -24 488q-24 49 -70 49q-7 0 -14 -1q-9 -30 -9 -64q0 -12 1 -24q-78 25 -165 25q-38 0 -79 -5q-64 -20 -116 -64 q-56 -60 -96 -128q-54 -128 -54 -282q0 -28 2 -58zM208 464q16 68 48 128q52 76 132 124q47 25 104 25q25 0 52 -5q36 -16 72 -36q16 -172 36 -352q-76 -76 -168 -132q-66 -18 -139 -18q-24 0 -49 2q-40 16 -72 36q-27 64 -27 135q0 45 11 93z" />
<glyph unicode="r" horiz-adv-x="956" d="M140 852q-1 -42 -1 -83q0 -267 45 -513q24 -72 56 -144q24 -24 64 -32q4 120 40 220q80 144 176 276q108 92 236 144q44 8 92 12q14 26 14 51t-14 49q-42 24 -88 24t-96 -24q-96 -48 -184 -116q-116 -160 -232 -296q-15 129 -15 249q0 103 11 199q-24 40 -72 44 q-24 -24 -32 -60z" />
<glyph unicode="s" horiz-adv-x="912" d="M180 352q8 -68 48 -132q80 -92 192 -144q54 -13 111 -13q65 0 133 17q44 40 92 80q44 68 60 152q0 96 -16 176q-52 80 -132 116q-96 16 -188 36q-48 24 -84 60q44 100 156 128q140 0 260 -56q14 26 14 53q0 11 -2 23q-108 76 -252 80q-13 1 -25 1q-61 0 -111 -17 q-92 -48 -136 -140q0 -104 84 -172q152 -72 316 -116q20 -20 32 -48q1 -11 1 -23q0 -56 -17 -109q-68 -100 -180 -140h-22q-75 0 -134 24q-88 68 -132 156q-23 16 -43 16q-13 0 -25 -8z" />
<glyph unicode="t" horiz-adv-x="992" d="M40 952q-4 -17 -4 -33q0 -38 20 -71q80 -60 208 -68q0 -244 16 -488q16 -128 108 -212q40 -12 92 -12q68 28 128 76q180 196 304 424l-16 72q-32 32 -76 32q-116 -204 -272 -388q-60 -60 -156 -68q-20 68 -32 136q-6 110 -6 218t6 214q128 28 248 68q8 24 16 44 q-12 60 -52 84q-100 -16 -196 -44q0 124 -8 220q-28 34 -54 34q-11 0 -22 -6q-12 -132 -32 -260h-28q-110 0 -192 28z" />
<glyph unicode="u" horiz-adv-x="996" d="M100 432q24 -112 84 -212q88 -100 208 -156q26 -2 54 -2t58 2q132 104 224 224q24 -68 64 -128q44 -52 104 -88q16 12 20 32q-88 136 -140 288q8 160 8 320q-24 76 -52 144q-36 20 -76 20q-1 -27 -1 -55q0 -163 21 -317q-36 -104 -96 -200q-40 -48 -88 -88 q-56 -36 -124 -44q-64 36 -112 92q-44 64 -64 140q0 136 16 268q12 68 64 112q8 24 8 46t-8 42q-36 8 -56 28q-28 -8 -48 -28q-36 -76 -56 -156q-14 -97 -14 -200q0 -42 2 -84z" />
<glyph unicode="v" horiz-adv-x="960" d="M112 892q40 -244 116 -476q72 -160 188 -304q40 -24 72 -44q24 4 40 16q192 352 352 728q-12 32 -24 60q-27 21 -61 21q-6 0 -11 -1q-136 -352 -316 -680q-104 72 -144 196q-72 220 -128 448q-29 36 -75 36h-9z" />
<glyph unicode="w" horiz-adv-x="1024" d="M48 824q36 -244 96 -492q36 -124 112 -232q20 -4 48 -4q112 276 212 540q36 -260 108 -508q24 -64 88 -72q152 336 232 708q0 48 -4 92q-36 32 -72 48q-64 -324 -196 -612q-80 208 -104 436q-36 40 -80 52q-104 -240 -228 -476q-84 224 -132 472q-36 36 -80 48z" />
<glyph unicode="x" horiz-adv-x="956" d="M132 764q144 -104 300 -224q-84 -184 -196 -348q-2 -10 -2 -20q0 -38 26 -64q24 -16 60 -24q92 196 232 340q136 -132 244 -288q28 -16 64 -24q9 25 9 50q0 19 -5 38q-156 152 -252 332q124 132 248 260q0 48 -24 76q-28 20 -60 24q-144 -132 -268 -280 q-176 128 -368 220q-14 -14 -14 -36q0 -14 6 -32z" />
<glyph unicode="y" horiz-adv-x="900" d="M172 872q32 -116 80 -236q68 -144 184 -272q-84 -252 -216 -480q-8 -25 -8 -47q0 -35 20 -65q24 -4 52 0q228 532 536 1020q0 36 -20 56q-22 20 -47 20q-10 0 -21 -4q-100 -236 -252 -420q-156 204 -244 432q-21 17 -36 17q-17 0 -28 -21z" />
<glyph unicode="z" horiz-adv-x="908" d="M188 248q-2 -10 -2 -19q0 -32 22 -57q276 -80 596 -92q12 24 12 47t-12 45q-200 48 -420 64q-20 16 -12 44q204 204 364 428q1 11 1 22q0 42 -13 74q-76 56 -164 72q-188 4 -356 24q-13 -19 -13 -40q0 -24 17 -52q36 -16 68 -40q41 1 82 1l246 -9q4 -16 4 -36 q-204 -240 -420 -476z" />
<glyph unicode="{" horiz-adv-x="1012" d="M408 700q16 -48 60 -76h56q28 -232 56 -468q32 -144 140 -256q32 -24 84 -28q12 44 0 84q-56 24 -92 64q-76 332 -124 676q32 72 60 144q8 224 40 432q28 68 68 128q44 32 92 64l72 -4q12 28 12 64q-36 36 -76 56q-52 0 -92 -12q-92 -64 -140 -160q-28 -64 -44 -136 q-8 -120 -4 -244q-24 -120 -68 -236q-72 -32 -100 -92z" />
<glyph unicode="|" horiz-adv-x="664" d="M428 -120q8 -48 36 -92q28 -20 76 -12l32 48q12 940 -32 1876q-36 24 -72 12q-28 -20 -40 -48q-4 -900 0 -1784z" />
<glyph unicode="}" horiz-adv-x="592" d="M176 1580q-20 -64 44 -108q36 4 68 -16q32 -48 64 -100q-32 -220 -24 -460q12 -48 32 -104q-20 -80 -52 -156q-12 -276 8 -548q-32 -72 -92 -116q-16 -80 60 -108q84 60 116 156q-24 312 8 612q68 24 104 76q-28 64 -84 104q-36 244 8 488q-20 104 -68 192q-44 32 -80 68 q-48 28 -112 20z" />
<glyph unicode="~" horiz-adv-x="1000" d="M124 1456q8 -56 68 -72q28 8 56 28q24 64 60 120q24 20 64 12q92 -64 180 -132l120 -24q56 12 116 28q40 36 76 76q48 76 56 168q-24 52 -76 56q-20 -8 -44 -20q-20 -64 -48 -132q-32 -24 -64 -44q-44 4 -84 16q-80 80 -176 132q-56 16 -116 12q-68 -12 -112 -60 q-48 -76 -76 -164z" />
<glyph unicode="&#xad;" horiz-adv-x="760" d="M320 756q-8 -48 36 -72q148 -4 300 0q24 32 20 76q-144 48 -316 32q-28 -8 -40 -36z" />
<glyph unicode="&#x2000;" horiz-adv-x="880" />
<glyph unicode="&#x2001;" horiz-adv-x="1761" />
<glyph unicode="&#x2002;" horiz-adv-x="880" />
<glyph unicode="&#x2003;" horiz-adv-x="1761" />
<glyph unicode="&#x2004;" horiz-adv-x="587" />
<glyph unicode="&#x2005;" horiz-adv-x="440" />
<glyph unicode="&#x2006;" horiz-adv-x="293" />
<glyph unicode="&#x2007;" horiz-adv-x="293" />
<glyph unicode="&#x2008;" horiz-adv-x="220" />
<glyph unicode="&#x2009;" horiz-adv-x="352" />
<glyph unicode="&#x200a;" horiz-adv-x="97" />
<glyph unicode="&#x2010;" horiz-adv-x="760" d="M320 756q-8 -48 36 -72q148 -4 300 0q24 32 20 76q-144 48 -316 32q-28 -8 -40 -36z" />
<glyph unicode="&#x2011;" horiz-adv-x="760" d="M320 756q-8 -48 36 -72q148 -4 300 0q24 32 20 76q-144 48 -316 32q-28 -8 -40 -36z" />
<glyph unicode="&#x2012;" horiz-adv-x="760" d="M320 756q-8 -48 36 -72q148 -4 300 0q24 32 20 76q-144 48 -316 32q-28 -8 -40 -36z" />
<glyph unicode="&#x2013;" horiz-adv-x="1425" d="M322 756q-23 -48 103 -72q423 -4 858 0q69 32 57 76q-412 48 -904 32q-80 -8 -114 -36z" />
<glyph unicode="&#x2014;" d="M704 684q332 0 660 20q12 32 8 68q-324 24 -664 -8q-40 -36 -4 -80z" />
<glyph unicode="&#x2016;" d="M772 1656q-20 -928 24 -1836q20 -16 48 -28q52 8 68 56q-4 900 -8 1796q-20 40 -56 56q-60 4 -76 -44zM1148 -108l28 -84q56 -28 104 12q8 904 0 1824q-20 40 -56 56q-56 4 -76 -40q-4 -892 0 -1768z" />
<glyph unicode="&#x2018;" d="M1388 1200q-12 -68 12 -128q36 -60 100 -100q92 -16 188 20q52 52 96 112q4 60 -12 104q-56 52 -120 84q-48 4 -84 12q-8 28 -4 56q56 36 84 88q-20 20 -40 32q-64 -32 -116 -84q-68 -88 -104 -196z" />
<glyph unicode="&#x2019;" d="M288 1240q44 -64 116 -104q52 8 108 8q0 -88 -56 -148q8 -32 44 -48q56 40 100 96q36 76 64 152q-4 60 -12 112q-44 100 -136 156q-40 8 -80 0q-96 -40 -148 -128q-12 -44 0 -96z" />
<glyph unicode="&#x201c;" d="M976 1180q-8 -92 28 -164q28 -32 72 -48q92 0 180 32q56 52 52 140q-32 80 -92 132q-36 4 -56 20q36 84 116 132q-4 48 -40 60q-112 -32 -180 -128q-52 -80 -80 -176zM1396 1148q20 -52 40 -108q44 -56 112 -92q88 4 160 40q28 36 52 72q0 60 -8 112q-40 68 -96 108h-104 q4 76 68 120q-16 36 -48 52q-104 -36 -144 -136q-32 -72 -32 -168z" />
<glyph unicode="&#x201d;" d="M292 1320q4 -32 8 -68q68 -84 192 -100q-36 -88 -76 -172q16 -16 40 -32q44 4 72 32q48 76 84 156q24 124 0 244q-36 40 -76 68h-96q-104 -44 -148 -128zM696 1268q28 -64 92 -104h100q-24 -88 -60 -168q24 -12 48 -36q60 36 100 96q44 76 76 156q4 124 -48 208 q-68 52 -164 48q-92 -44 -140 -136q-12 -28 -4 -64z" />
<glyph unicode="&#x2026;" d="M560 652q24 -52 76 -80q64 -4 108 32q40 80 24 172q-20 56 -60 84q-40 12 -76 0q-40 -16 -60 -60q-24 -68 -12 -148zM920 664q8 -40 28 -76q36 -40 108 -36q52 36 76 100v132q-20 48 -56 72q-88 8 -132 -52q-32 -60 -24 -140zM1280 688q16 -60 48 -116q36 -32 92 -32 q40 24 68 68q16 72 12 152q-16 56 -60 88q-84 12 -136 -32q-32 -56 -24 -128z" />
<glyph unicode="&#x202f;" horiz-adv-x="352" />
<glyph unicode="&#x2032;" d="M324 1252q48 -72 132 -112q48 8 104 8q-24 -76 -56 -160q12 -24 44 -40q80 44 132 124q36 80 52 172q-12 64 -28 120q-52 84 -136 132q-36 4 -72 0q-116 -40 -172 -144q-8 -48 0 -100z" />
<glyph unicode="&#x2033;" d="M192 1076q12 -56 68 -80q36 4 68 20q104 236 176 492q-16 64 -72 80q-48 4 -68 -28q-84 -240 -172 -484zM520 1012q24 -40 68 -64q28 12 60 20q88 228 164 460q0 84 -64 108q-52 4 -72 -28q-92 -236 -156 -496z" />
<glyph unicode="&#x205f;" horiz-adv-x="440" />
<glyph unicode="&#x25fc;" horiz-adv-x="900" d="M0 0v900h900v-900h-900z" />
<glyph unicode="&#x3001;" d="M244 300q-12 -40 12 -76q184 -156 384 -296q24 12 56 20q16 40 24 76q-164 188 -372 324q-80 16 -104 -48z" />
<glyph unicode="&#x3002;" d="M288 236q-8 -116 68 -200q64 -40 152 -44q104 16 188 88q24 44 40 88q8 80 -12 148q-48 88 -136 120q-68 16 -136 4q-44 -12 -80 -40q-64 -72 -84 -164zM404 232q16 60 72 96q60 8 112 -20q48 -52 32 -132q-52 -60 -124 -64q-36 20 -72 36q-24 40 -20 84z" />
<glyph unicode="&#x3003;" d="M672 548q8 -36 48 -60q32 -4 64 4q132 260 268 512q-4 32 -16 56q-56 44 -104 4q-140 -252 -260 -516zM992 432q12 -32 48 -48q40 -4 68 20q144 244 244 504q-16 40 -52 52q-32 4 -52 -8q-148 -248 -256 -520z" />
<glyph unicode="&#x3005;" d="M616 836q12 -60 60 -88q148 240 288 500q164 12 340 8q4 -28 4 -68q-104 -312 -232 -608q-88 20 -136 44q-28 -28 -36 -76q-8 -44 16 -96q192 -156 340 -344q56 40 52 124q-52 120 -136 204q140 448 304 880q4 60 -16 108q-24 20 -44 36q-252 16 -508 0 q-156 -300 -296 -624z" />
<glyph unicode="&#x3008;" d="M960 792q0 -44 24 -84q312 -392 624 -792q44 -44 112 -36q32 44 48 96q-304 372 -600 756v84q312 340 584 700q0 68 -64 100q-36 -8 -64 -28q-336 -396 -664 -796z" />
<glyph unicode="&#x3009;" d="M344 -72q20 -40 64 -64q76 8 112 64q156 300 364 568q60 120 112 240q-36 160 -104 288q-200 320 -432 600q-40 4 -68 -16q-40 -44 -24 -108q256 -316 460 -684q4 -96 -24 -168q-256 -340 -460 -720z" />
<glyph unicode="&#x300a;" d="M1036 700q188 -388 372 -788q28 -44 68 -80q44 20 60 72q4 48 0 92q-216 380 -368 804q208 360 368 736q-16 40 -20 84q-32 32 -64 16q-212 -392 -416 -796q-20 -68 0 -140zM1396 804q-4 -64 20 -128q192 -396 380 -800q24 -28 60 -44q20 24 40 44q12 60 8 120 q-196 372 -368 764q176 380 364 748q4 68 -24 120q-32 36 -60 8q-220 -408 -420 -832z" />
<glyph unicode="&#x300b;" d="M136 1516q204 -396 368 -824q-176 -320 -340 -632q-36 -80 -16 -172l44 -44q248 392 456 828q4 44 0 84q-196 424 -400 852q-24 32 -52 48q-28 -4 -52 -48q-12 -40 -8 -92zM508 -20q-12 -88 48 -136q16 4 36 8q208 396 420 792q16 76 -4 144q-196 424 -400 832 q-20 28 -48 32q-24 -12 -40 -36q-24 -56 -12 -128q216 -372 372 -796q-200 -352 -372 -712z" />
<glyph unicode="&#x300c;" d="M756 1108q-36 -292 12 -592q48 -48 120 -16q16 24 32 52q-20 192 -12 384q16 32 48 64q152 20 312 12q60 36 52 112q-20 36 -56 52q-232 0 -456 -24q-32 -16 -52 -44z" />
<glyph unicode="&#x300d;" d="M704 548q16 -56 80 -68q192 4 372 20q72 20 136 76q60 232 48 492q-16 68 -72 88q-72 4 -96 -64q-8 -168 -4 -344q-24 -60 -84 -96q-184 -4 -356 -28q-28 -32 -24 -76z" />
<glyph unicode="&#x3010;" d="M824 100q12 -32 52 -48q116 -4 244 0q60 16 76 72l-120 248q-36 124 -64 248q-24 196 0 388q44 148 100 284q72 92 128 188q-4 40 -24 68q-132 44 -280 40q-36 -8 -68 -32q-32 -44 -40 -96q-16 -684 -4 -1360z" />
<glyph unicode="&#x3011;" d="M820 160q-8 -48 32 -84q136 -32 288 -28q32 16 60 36q24 40 32 88q8 688 -4 1364q-24 48 -68 60q-140 4 -276 -24q-24 -20 -32 -48q124 -248 192 -532q12 -136 12 -280q-32 -188 -108 -368q-68 -92 -128 -184z" />
<glyph unicode="&#x4e00;" d="M356 796q8 -56 64 -76q588 44 1188 20q36 12 72 32q16 36 16 76q-20 40 -56 56q-612 16 -1208 -16q-68 -20 -76 -92z" />
<glyph unicode="&#x4e01;" d="M312 1364l40 -32q312 24 640 36q24 -108 48 -224q8 -228 0 -468q-28 -140 -64 -276q-48 -104 -116 -200q4 -60 52 -88q48 -12 92 12q68 84 112 172q44 160 80 324q16 248 12 496q-24 124 -52 248q280 12 548 -32q32 20 52 52q16 60 -24 100q-88 24 -172 36 q-456 20 -912 0q-168 -16 -324 -48q-44 -48 -12 -108z" />
<glyph unicode="&#x4e03;" d="M312 896q-4 -52 36 -88q132 -16 280 0q16 -164 104 -304q56 -68 120 -124q96 -64 200 -116q100 -32 208 -60q88 0 176 4q148 24 276 80q32 60 -4 116q-160 20 -324 -40q-128 4 -236 40q-104 52 -200 104q-56 60 -100 116q-60 100 -52 196q424 36 856 56q28 12 56 32 q28 48 4 100q-20 20 -40 32q-440 -20 -872 -56q-4 208 8 408q-32 44 -80 48q-32 -8 -60 -28q-44 -204 -28 -432q-152 -12 -296 -36q-20 -20 -32 -48z" />
<glyph unicode="&#x4e07;" d="M364 1448q0 -68 64 -96q248 0 500 16q0 -40 -8 -84q-80 -192 -196 -372q-152 -180 -308 -336q-20 -32 -12 -76q20 -36 64 -52q28 4 60 8q120 116 240 252q104 144 212 300q168 0 296 -84q24 -48 44 -96q-8 -180 -80 -332q-76 -88 -156 -168q-92 -60 -200 -88 q-44 -56 -4 -116q28 -20 64 -28q144 28 268 124l132 132q96 176 136 372q0 84 -4 160q-24 60 -52 116q-76 84 -160 116q-112 32 -224 48q16 104 60 204q276 -12 536 8q52 60 16 128q-384 40 -784 28q-244 -8 -476 -36q-20 -24 -28 -48z" />
<glyph unicode="&#x4e08;" d="M408 72q8 -72 84 -88q44 8 80 40q176 236 312 492q240 -228 504 -408q84 -60 192 -84q40 20 60 60q0 52 -28 84q-204 120 -396 264q-140 128 -260 256l136 448q224 4 436 16q52 40 44 104q-16 40 -48 52q-184 -4 -376 -12q4 148 28 300q-28 64 -100 56q-56 -24 -68 -88 q-12 -132 -40 -260q-252 4 -484 -36q-32 -36 -24 -88q16 -32 52 -52q200 16 412 12q-40 -164 -100 -320q-96 116 -220 180q-28 -8 -52 -32q-24 -32 -12 -80q88 -128 216 -228q-68 -164 -164 -328q-96 -132 -184 -260z" />
<glyph unicode="&#x4e09;" d="M360 292q-8 -68 56 -96q636 36 1248 40q36 64 0 120q-84 24 -176 36q-564 20 -1096 -52q-20 -20 -32 -48zM488 1316q16 -36 56 -52q444 -4 856 36q24 40 20 88q-16 40 -56 56q-396 -16 -796 -8q-36 -8 -64 -32q-24 -36 -16 -88zM544 796q12 -24 36 -48q388 -28 780 4 q24 44 16 96q-32 40 -76 48q-324 4 -640 8q-56 -4 -100 -28q-24 -32 -16 -80z" />
<glyph unicode="&#x4e0a;" d="M220 164q16 -48 68 -64q528 52 1084 52q176 -12 364 -32l56 32q40 64 -4 120q-104 24 -204 36q-272 8 -536 0q-16 252 -8 496q236 16 460 28q32 32 32 76q-16 48 -56 68q-220 16 -424 -8q0 244 -4 484q-16 64 -72 84q-72 4 -92 -60v-1164q-332 -12 -640 -68 q-24 -32 -24 -80z" />
<glyph unicode="&#x4e0b;" d="M332 1516q-8 -48 20 -88q256 -12 548 -4q40 -644 12 -1300q8 -40 32 -64q64 -36 124 8q16 436 32 876q224 -92 460 -160q32 20 52 44q0 76 -52 112q-236 112 -476 192q-8 152 -16 296q308 20 624 20q16 24 32 52q4 48 -16 80q-40 24 -84 28q-588 8 -1164 -20 q-88 -4 -128 -72z" />
<glyph unicode="&#x4e0d;" d="M320 592q32 -20 76 -24q284 188 532 436q32 -392 12 -820q12 -44 56 -68q60 -8 96 32q24 420 16 848q-8 72 -40 128q120 112 200 236q172 16 352 -4q28 16 48 48q16 64 -24 104q-84 20 -172 24q-516 -8 -1008 -52q-60 -28 -40 -100q12 -28 48 -44q292 4 584 20 q-92 -104 -208 -216q-260 -224 -528 -432q-32 -56 0 -116zM1176 984q224 -228 484 -424h44q48 24 60 76q-12 52 -44 88q-220 200 -456 360q-44 4 -68 -20q-24 -32 -20 -80z" />
<glyph unicode="&#x4e0e;" d="M324 612q20 -44 72 -60q336 40 680 12q-64 -196 -184 -368q-60 -48 -100 -116q-8 -48 32 -84q36 -20 84 -12q148 128 232 304q56 144 104 292q236 -20 448 12q44 68 0 128q-216 16 -432 28q12 128 -28 232q-40 40 -76 56q-148 20 -300 12q4 96 48 176q248 -28 488 16 q28 52 12 108q-20 24 -36 32q-208 4 -420 0q16 112 32 228q-20 36 -60 52q-48 8 -80 -24q-76 -316 -176 -632q-4 -40 8 -76q24 -24 56 -40q192 28 376 -16q12 -80 -12 -148q-384 28 -744 -28q-32 -32 -24 -84z" />
<glyph unicode="&#x4e11;" d="M232 224q8 -28 36 -52q756 -16 1520 20q28 36 32 84q-16 64 -76 68q-168 8 -336 8q36 204 84 408q128 -16 248 32q16 32 20 72q-16 32 -32 56q-108 32 -216 8q32 248 4 472q-60 44 -132 64q-356 24 -724 16q-64 -8 -128 -28q-24 -24 -36 -52q-8 -44 12 -84q16 -16 44 -28 q148 28 304 8q-36 -192 -104 -368q-220 8 -400 -56q-28 -40 -20 -92q16 -36 56 -60q164 32 324 32l-120 -416q-172 4 -328 -16q-36 -40 -32 -96zM776 340q36 220 120 416q200 20 416 12q-12 -208 -88 -412q-220 -16 -448 -16zM944 928q36 188 84 376q176 8 340 -32 q-12 -176 -36 -336q-200 8 -388 -8z" />
<glyph unicode="&#x4e13;" d="M464 896q24 -52 80 -64q132 8 272 4q4 -108 4 -224q28 -36 80 -44q188 28 388 8q60 -4 92 -40q-160 -188 -284 -396q-72 -12 -148 16q-36 -8 -60 -32q-40 -60 16 -120l384 -120q76 0 116 60q0 32 -12 56q-68 48 -132 80q176 236 332 484q4 40 0 76q-52 64 -128 72 q-216 36 -444 36q-20 40 -12 88q216 36 444 48q28 40 24 88q-12 36 -36 52h-408q-20 112 0 228q8 20 28 28h308q20 28 36 56q4 48 -24 80q-164 32 -324 48v236q-40 60 -108 52q-52 -12 -68 -60q4 -124 -16 -232q-80 -28 -160 -32q-24 -36 -16 -88q12 -20 36 -44l136 -32 q0 -136 -36 -256q-172 -4 -320 -20q-52 -28 -40 -92z" />
<glyph unicode="&#x4e14;" d="M316 156q28 -16 60 -32q468 24 940 28q200 -16 400 -24q36 16 56 56q4 48 -16 84q-136 44 -276 36q12 68 32 140q24 448 16 904q-12 64 -36 116q-144 52 -308 52q-304 4 -580 -52q-28 -60 -40 -128q-20 -528 -4 -1040q-128 4 -236 -24q-48 -52 -8 -116zM716 708 q-28 128 12 240q312 16 632 -8q24 -104 4 -220q-328 24 -648 -12zM720 304q-36 128 8 244q320 48 628 -4q-8 -124 -32 -232q-304 -4 -604 -8zM724 1104q-16 116 4 216q280 44 580 28q24 -8 52 -24q8 -104 12 -220q-320 20 -648 0z" />
<glyph unicode="&#x4e16;" d="M212 1044q4 -60 52 -88q92 0 196 8q16 -248 72 -480q48 -100 140 -192q140 -84 304 -132q356 -40 740 -28q60 20 84 80q0 44 -20 76q-300 20 -600 12q-192 28 -356 92q-48 44 -96 92q-36 68 -56 132q-36 180 -40 364q168 40 356 28q0 -164 68 -304q40 -28 92 -52 q124 -12 252 0q40 40 92 48q32 164 72 320q96 -16 208 -12q52 16 68 72q0 44 -20 72q-120 32 -252 40q12 144 -4 276q-56 56 -120 24q-48 -136 -48 -304h-240q0 160 -20 304q-28 20 -52 28q-44 4 -76 -24q-36 -136 -16 -308q-172 -16 -344 -36q-8 164 -32 320q-20 24 -44 32 q-56 8 -92 -20q-24 -156 -8 -336q-128 -12 -232 -48zM1148 1008q108 28 236 16q-12 -96 -24 -204q-84 -4 -168 0q-36 88 -44 188z" />
<glyph unicode="&#x4e18;" d="M252 216q12 -40 60 -56q748 28 1464 12q24 40 24 84q-16 32 -36 52q-192 20 -384 28q-4 292 8 580q112 16 240 -4q44 12 64 56q4 52 -20 84q-40 20 -84 28q-456 16 -860 -16q220 140 444 276q12 32 28 60q-12 64 -72 80q-304 -132 -568 -340q48 -392 60 -800 q-192 4 -352 -48q-20 -32 -16 -76zM748 884q224 56 476 44q-8 -288 -4 -584q-220 -4 -440 -4q-4 276 -32 544z" />
<glyph unicode="&#x4e19;" d="M328 436q0 -136 44 -252q24 -8 48 -24q60 8 88 52q-28 332 -8 676q176 52 372 28q-60 -220 -196 -404q0 -36 20 -72q64 -40 124 0q80 116 144 244q72 -76 136 -180q56 -60 136 -104q40 4 72 20q32 44 24 96q-160 160 -304 356q4 28 4 52q252 28 504 4q16 -28 28 -68 q4 -344 -48 -664q8 -20 28 -48q64 -40 124 4q36 148 52 308q16 280 -16 544q-28 68 -96 92q-260 -4 -524 -4q4 128 0 268q192 20 376 -4q32 12 60 36q20 40 12 80q-48 60 -128 60q-476 4 -936 -28q-32 -36 -24 -88q20 -44 68 -60q200 16 404 0q36 -136 -8 -276 q-288 8 -544 -44q-48 -288 -36 -600z" />
<glyph unicode="&#x4e1a;" d="M292 248q8 -72 80 -92q640 -28 1300 -28q32 12 64 32q20 36 16 84q-16 36 -48 52h-380q0 584 24 1148q-16 28 -36 48q-72 24 -120 -24q-24 -580 -36 -1164q-156 -40 -300 16v1144q-36 52 -100 44q-44 -8 -64 -44q-8 -572 8 -1136q-176 -24 -356 -4q-40 -20 -52 -76z M360 912q60 -100 128 -200q28 -16 64 -20q36 16 64 56q-16 156 -124 256q-24 16 -44 24q-60 4 -88 -48q-8 -32 0 -68zM1420 760q-12 -64 32 -100q68 -20 120 36q88 144 112 304q-20 28 -44 44q-72 12 -112 -40q-52 -120 -108 -244z" />
<glyph unicode="&#x4e1b;" d="M160 440q-4 -40 20 -76q32 -28 84 -24q76 60 140 140q72 120 136 240q160 -156 364 -268q-60 -76 -104 -152q-4 -40 28 -72q28 -20 72 -20q44 36 92 76q152 228 292 464q144 -208 312 -380q100 -88 232 -124l40 20q24 44 20 96q-176 124 -332 292q-88 148 -208 268 q80 272 124 552q4 88 -16 164q-36 40 -88 36q-48 -16 -64 -64q-4 -300 -84 -568q-84 -256 -240 -468q-208 136 -356 328q100 256 132 544q-16 52 -68 68q-48 4 -76 -28q-52 -296 -160 -568q-116 -256 -292 -476zM388 76q-12 -76 60 -108q556 -4 1100 8q40 20 56 64 q4 60 -44 92q-552 0 -1108 4q-44 -12 -64 -60z" />
<glyph unicode="&#x4e1c;" d="M448 1180q20 -48 72 -64q72 4 148 8q-48 -136 -112 -268q-32 -104 -28 -224q28 -60 104 -56q180 52 384 28q12 -200 -32 -404q-80 28 -160 40q-60 -24 -56 -88q12 -28 36 -52q120 -84 268 -108l48 24q44 304 88 604q112 12 220 36q32 40 24 96l-32 36q-112 12 -228 0 q-8 84 8 164q-12 36 -40 64q-72 24 -112 -36q-28 -96 -28 -204q-152 -16 -308 -12q60 200 172 376q292 4 588 12q36 36 36 92q-12 40 -36 64h-512q36 128 72 276q-16 40 -52 56q-56 8 -92 -24q-60 -148 -112 -304q-144 -32 -288 -32q-48 -32 -40 -100zM504 172 q28 -56 100 -48q28 12 48 40q48 128 52 276q-12 32 -36 56q-64 24 -112 -24q-56 -140 -52 -300zM1368 376q48 -92 92 -196q36 -28 88 -36q36 16 64 48q-4 148 -96 256q-32 24 -68 32q-48 4 -72 -36q-20 -28 -8 -68z" />
<glyph unicode="&#x4e1d;" d="M284 904l48 -52h244q-88 -144 -196 -288q-12 -36 -8 -84q16 -40 68 -52q212 20 432 28q52 12 96 56q8 52 -8 92q-160 28 -332 8q120 196 260 384q8 40 8 84q-32 48 -84 44q-72 -28 -108 -104h-220q84 208 204 400q12 64 -24 108q-52 36 -104 4q-156 -256 -276 -536v-92z M420 140q12 -28 40 -48q588 -4 1180 -12q32 8 64 28q20 40 12 88l-48 40q-616 44 -1212 4q-48 -28 -36 -100zM1032 1012q-24 -84 28 -152h304q-68 -112 -140 -240q-8 -56 12 -108q220 -48 476 -36q32 24 48 56q4 44 -20 72q-148 44 -304 52q132 172 228 356q8 56 -28 88 q-44 20 -92 8q-52 -44 -80 -100q-116 12 -236 12q104 204 180 428q-20 52 -64 72q-44 0 -76 -24q-132 -236 -236 -484z" />
<glyph unicode="&#x4e22;" d="M344 608q252 -32 504 -12q-224 -240 -376 -532q-4 -44 20 -80q28 -28 72 -40q424 36 836 104q60 -108 160 -160q40 4 68 28q20 40 16 84q-152 216 -316 420q-44 16 -84 0q-44 -32 -32 -92q36 -64 80 -128q-304 -64 -612 -88q60 124 156 236q132 116 244 256 q312 -16 616 -4q52 56 20 120q-44 28 -88 36q-268 8 -540 8q-8 132 -4 264q168 16 340 8q64 28 60 104q-24 52 -76 60h-332q12 164 -4 308q116 52 232 100q12 28 32 52q-8 76 -72 92q-308 -116 -624 -228q-32 -36 -24 -88q16 -32 52 -52q132 24 252 52q-4 -116 0 -240 q-164 0 -324 -20q-40 -28 -36 -76q8 -28 28 -52q164 -20 336 -24q-8 -124 -4 -252l-568 -40q-48 -60 -8 -124z" />
<glyph unicode="&#x4e24;" d="M268 1048q8 -368 56 -724q16 -48 60 -80q24 -4 56 0q32 24 48 60q-28 316 -64 636q100 56 236 32q-40 -244 -84 -496q20 -64 92 -60q32 16 60 44q12 104 52 180q56 -64 132 -96q32 0 64 4q40 32 36 84q-104 116 -200 228q-4 72 28 128h304q16 -56 12 -128 q-40 -196 -76 -392q20 -60 96 -52q64 60 100 144q80 -48 152 -104q64 -4 96 48q12 56 -24 96q-112 72 -188 164q-12 128 24 224q144 12 276 -28q4 -180 -4 -368q-24 -144 -64 -284q-56 -48 -128 -72q-32 -48 0 -104q76 -40 180 -24q36 24 68 56q64 168 100 336 q16 264 16 524q-16 44 -52 76q-192 52 -396 64q-4 116 28 220q76 4 148 16q44 48 32 112q-36 32 -80 40q-440 -20 -876 -36q-60 -24 -60 -88q12 -36 44 -68h148q8 -112 -32 -212q-140 -20 -288 -24q-76 -16 -128 -76zM868 1156q-4 96 24 192q136 48 296 16q-8 -100 -24 -200 q-148 -8 -296 -8z" />
<glyph unicode="&#x4e25;" d="M352 -68q24 -56 96 -44q24 12 44 32q36 208 64 416q8 276 20 544q536 8 1076 12q20 12 40 32q8 72 -40 100q-192 16 -388 8q-8 292 32 572h240q40 36 32 92q-28 40 -72 52q-516 16 -1008 -28q-48 -16 -68 -52q-8 -64 48 -88q128 -8 260 12q56 -276 40 -568 q-176 8 -336 -8q-20 -24 -28 -56q20 -252 12 -516zM484 1312q52 -104 148 -152q52 16 64 72q-8 52 -28 88q-40 56 -96 72q-40 4 -72 -12q-24 -24 -16 -68zM888 1588q116 36 248 8q-8 -276 -4 -556q-100 -20 -212 -16q-24 280 -32 564zM1388 1196q28 -36 80 -36 q84 80 128 196q0 40 -16 64q-40 28 -88 12q-72 -56 -100 -144q-16 -44 -4 -92z" />
<glyph unicode="&#x4e27;" d="M316 664q20 -44 64 -60q144 12 276 -4q-4 -320 0 -620q28 -48 84 -60q48 0 100 4q116 28 216 108q28 64 -16 112q-116 20 -212 -40q-24 248 -12 504q96 8 204 4q116 -188 260 -368q76 -80 160 -160q68 -56 156 -80q56 0 84 40v60q-88 72 -160 152q116 36 212 108 q8 68 -32 100q-160 -16 -312 -68q-100 88 -172 204q228 4 444 40q28 48 12 96q-28 32 -56 44q-304 4 -604 -8q-16 228 -8 464q164 8 340 4q56 28 64 92q-12 40 -40 64q-176 20 -360 8q-8 120 -4 244q-16 48 -60 64q-80 12 -108 -60q4 -128 -8 -248q-168 12 -316 -8 q-56 -40 -36 -108q20 -28 52 -48h304q4 -228 4 -464q-224 -12 -444 4q-36 -8 -64 -36q-20 -32 -12 -80zM516 1040q16 -92 88 -172q68 -36 120 8q8 100 -20 188q-28 60 -80 100q-56 16 -96 -20q-20 -44 -12 -104zM1152 920q8 -24 40 -44q32 -8 68 0q88 76 108 184q0 40 -8 68 q-32 36 -76 24q-36 -12 -64 -36q-68 -84 -68 -196z" />
<glyph unicode="&#x4e2a;" d="M200 896q0 -72 72 -92q188 80 356 224q200 168 380 372q156 -172 328 -340q180 -148 392 -240q44 0 80 28q40 64 -8 116q-148 76 -292 160q-244 228 -448 472q-72 28 -132 -16q-44 -76 -100 -148q-320 -288 -628 -536zM916 88q12 -48 64 -68q44 0 80 20q40 500 20 1004 q-24 36 -60 48q-36 4 -64 -12q-32 -36 -40 -80q12 -452 0 -912z" />
<glyph unicode="&#x4e2d;" d="M380 1288q-8 -316 56 -604q28 -40 80 -48q204 8 408 12q24 -300 4 -604q12 -44 64 -60q36 0 72 16l28 56q16 288 12 580q264 -12 508 24l48 168q12 220 20 436q-8 60 -56 80q-248 20 -500 20q-28 112 -8 224q-28 68 -100 64q-52 -16 -64 -68q-12 -104 8 -208 q-264 -28 -524 -12q-44 -24 -56 -76zM548 1180q192 32 400 28q4 -188 0 -400q-184 -4 -364 -12q-52 180 -36 384zM1108 808q8 200 12 396q196 0 392 -20q0 -200 -28 -384q-196 -12 -376 8z" />
<glyph unicode="&#x4e30;" d="M400 440q12 -40 52 -64q272 12 536 -12l-4 -400q16 -28 52 -48q72 -8 112 44v420q216 16 448 4q64 32 64 100q-12 44 -44 64q-240 4 -452 -8q-24 120 -12 248q180 -4 332 20q20 44 16 96q-16 28 -36 44q-144 12 -308 4q-8 112 -4 224q216 8 440 0q40 16 64 52 q12 68 -44 104q-228 20 -460 16q-8 172 -4 336q-36 44 -84 48q-52 -8 -80 -52l4 -336q-264 -20 -536 -32q-24 -8 -40 -32q-28 -72 40 -128q260 8 520 24q20 -104 12 -224q-136 -28 -280 -28q-40 -4 -64 -40q-20 -68 44 -116h296q4 -100 4 -212q-268 0 -528 -24 q-60 -24 -56 -92z" />
<glyph unicode="&#x4e32;" d="M384 808q8 -228 56 -444q24 -20 56 -28q200 32 428 20q-16 -204 16 -396q64 -40 128 4q24 192 16 392q232 36 464 -12l88 32q20 48 32 96q0 164 -12 316q-16 44 -36 80q-248 32 -516 12q-24 72 4 136q104 12 204 -8q88 12 144 76q16 168 12 344q-28 64 -100 76 q-132 8 -264 4q-8 96 -28 180q-28 24 -56 32q-40 4 -64 -20q-44 -84 -16 -192q-188 -4 -360 -44q-36 -128 -20 -292q16 -92 48 -180q32 -28 80 -24q108 56 248 40q12 -56 8 -124q-256 -20 -500 -16q-44 -16 -60 -60zM556 700q168 36 356 24q24 -88 16 -200q-180 0 -348 -12 q-28 92 -24 188zM720 1324q100 24 216 16q20 -76 16 -164q-104 -24 -220 -16q-20 80 -12 164zM1072 712q196 28 412 16q24 -88 28 -192q-208 -16 -424 -16q-4 100 -16 192zM1100 1172q-4 96 4 180q104 8 200 -16v-156q-104 -24 -204 -8z" />
<glyph unicode="&#x4e34;" d="M300 1252q-28 -356 16 -720q8 -20 28 -40q40 -20 88 -4q24 24 36 52q12 364 -44 700q-56 52 -124 12zM528 152q-8 -44 12 -80q52 -48 120 -8q60 76 76 172q8 160 28 316q12 504 -16 992q-20 56 -64 72q-48 4 -84 -20q16 -644 -20 -1292q-28 -72 -52 -152zM876 108 q8 -36 40 -68q384 -28 780 4q52 24 76 84q4 220 0 432q-36 72 -104 96q-332 40 -660 -12q-80 -12 -128 -76q0 -228 -4 -460zM880 768q8 -24 36 -52q56 -24 100 24q40 196 64 396q304 40 628 24q32 20 48 56q0 36 -12 60q-40 40 -84 52q-284 -4 -564 -16q-20 132 -12 268 q-56 52 -124 28q-24 -20 -32 -44q4 -408 -48 -796zM1040 464q56 48 160 28q32 -128 24 -280q-80 -20 -168 -12q-28 128 -16 264zM1180 972q28 -76 100 -144q28 -20 64 -32q52 -4 84 36q8 44 -4 84q-64 76 -124 152q-44 16 -84 4q-52 -32 -36 -100zM1376 500q100 16 212 8 q20 -12 28 -40q16 -140 -20 -268h-196q-40 140 -24 300z" />
<glyph unicode="&#x4e38;" d="M296 1060q4 -64 72 -88q176 44 360 76q-36 -132 -96 -260q-68 32 -140 32q-68 -32 -48 -108q44 -48 116 -76q-112 -200 -240 -392q-8 -44 16 -80q56 -40 124 -8q132 196 244 400q112 -32 220 -96q48 -4 84 20q16 36 16 80q-100 100 -240 160q60 188 140 364l320 56 q-28 -220 -20 -464q16 -128 64 -252q52 -88 104 -172q104 -108 228 -188q48 -24 100 -4l32 48q0 48 -16 84q-120 76 -224 176q-68 100 -104 200q-12 80 -28 156q8 256 36 504q-12 32 -28 56q-108 32 -224 8q-88 -24 -180 -40q24 136 48 276q-24 72 -96 72q-24 -8 -48 -28 q-40 -176 -92 -352q-244 -32 -468 -100q-20 -28 -32 -60z" />
<glyph unicode="&#x4e39;" d="M188 760q20 -20 56 -28q112 8 220 28q-8 -308 40 -600q32 -20 76 -24q44 16 64 56q-16 272 -12 556q392 64 784 0q12 -304 -32 -592q8 -36 32 -72q56 -32 116 0l40 184q12 236 4 480q148 -20 292 4q16 28 28 64q-4 40 -28 64q-144 24 -292 36q8 264 -28 512 q-36 92 -128 124q-380 36 -752 0q-60 -16 -108 -44q-56 -112 -68 -244l-16 -344q-144 -12 -280 -44q-44 -56 -8 -116zM644 920q-4 232 24 460q340 48 700 16q40 -92 48 -204q4 -140 -8 -268q-148 4 -312 8q0 200 -56 364q-24 32 -60 44q-52 4 -76 -32q16 -168 24 -372 q-144 -12 -284 -16z" />
<glyph unicode="&#x4e3a;" d="M452 404q-4 -52 28 -88q60 -40 120 0q192 240 348 504q76 164 136 328q164 16 324 -20l36 -36q24 -148 0 -304q-32 -108 -64 -220q-108 -240 -280 -448q-4 -36 16 -72q48 -40 116 -24q140 136 236 312q108 240 160 508q4 120 0 240q-16 72 -48 128q-36 48 -84 72 q-176 40 -360 44q16 100 32 204q-24 64 -84 72q-44 0 -72 -36q-32 -128 -68 -256q-256 8 -480 -48q-44 -52 -8 -116q20 -16 48 -32q188 20 392 28q-52 -160 -140 -312q-144 -220 -304 -428zM556 1588q-8 -64 40 -112q88 -40 172 -92q44 -4 76 24q4 36 4 72q-84 104 -208 148 q-56 8 -84 -40zM1020 804q-24 -60 24 -116q100 -76 228 -96q40 28 36 80q-24 52 -72 88q-80 44 -160 72q-36 0 -56 -28z" />
<glyph unicode="&#x4e3b;" d="M320 40q16 -40 64 -56q216 16 440 28q432 4 856 -24q44 24 56 72q-4 44 -36 68q-88 28 -172 36q-204 8 -400 0q-28 184 -16 380q120 8 248 0q44 16 64 64q4 48 -20 80q-148 36 -284 32q-12 164 -8 316q236 20 468 4q44 44 36 108q-28 48 -76 56q-564 24 -1104 -28 q-32 -36 -24 -88q12 -36 52 -52q236 4 476 12q20 -156 16 -328q-148 -4 -292 -8q-68 -24 -64 -104q8 -24 32 -48q140 -12 308 -4q12 -168 16 -380q-312 -8 -600 -48q-44 -28 -36 -88zM860 1584q44 -164 136 -304q32 -8 72 -8q48 20 56 76q-44 160 -132 292q-36 12 -72 16 q-52 -12 -60 -72z" />
<glyph unicode="&#x4e3d;" d="M256 1516q-4 -68 56 -96q652 12 1300 20q28 20 48 48q8 40 -4 72q-32 32 -64 44q-608 0 -1208 -16q-88 -4 -128 -72zM296 1212q4 -508 36 -1020q16 -28 52 -40q60 -4 84 44q-16 444 -24 884q224 -4 440 -32q0 -192 -8 -384q-156 52 -316 104q-40 -16 -52 -60 q-4 -36 12 -68q160 -92 336 -164q8 -120 -36 -224q-40 -8 -72 -24q-20 -40 -12 -92q52 -68 152 -52q72 56 92 144q32 448 52 892q-16 44 -52 76q-56 28 -112 36q-264 16 -528 16q-28 -8 -44 -36zM1088 100q12 -20 32 -40q40 -8 72 8q16 28 28 60q24 452 12 920 q212 24 408 -36q20 -232 -28 -456q-12 32 -20 56q-104 68 -212 120q-60 12 -92 -32q-12 -32 -8 -72q96 -96 240 -148q56 0 84 24q-8 -124 -44 -248q-76 -36 -132 -84q-8 -36 0 -76q52 -56 140 -36q60 16 108 64q92 324 116 672q4 140 0 272q-16 72 -68 116q-284 52 -580 36 q-32 -32 -48 -72q-8 -516 -8 -1048z" />
<glyph unicode="&#x4e3e;" d="M332 1184q12 -28 44 -52q160 8 312 0q-144 -180 -276 -364q-16 -80 40 -128h60q200 268 428 528q104 20 224 12q136 -276 328 -524h48q36 28 48 68q0 40 -4 72q-120 184 -236 372q144 28 304 28q28 16 60 40q16 44 12 92q-16 36 -40 64l-304 -16q20 92 80 180 q8 64 -24 100q-36 16 -72 12q-36 -12 -60 -44q-44 -116 -100 -220q-56 -44 -116 -24q-28 164 -72 316q-24 48 -72 52q-56 -8 -68 -64q24 -156 56 -312q-68 -24 -136 -20q-84 156 -152 304q-36 20 -76 12q-64 -40 -48 -116q48 -100 92 -204q-128 -20 -248 -52 q-44 -44 -32 -112zM640 384q24 -32 68 -48q112 8 228 12q12 -196 4 -404q24 -48 84 -52q44 8 76 44v400q148 40 300 64q36 68 -12 128q-148 0 -284 -4q-24 60 8 112h220q40 36 40 96q-12 32 -36 52q-116 16 -244 8q-16 104 -8 212q-16 40 -52 52q-68 12 -104 -40v-220 q-104 -24 -224 -16q-44 -32 -40 -88q20 -48 72 -64l180 -4q32 -40 24 -104q-156 0 -292 -60q-20 -32 -8 -76z" />
<glyph unicode="&#x4e43;" d="M412 476q8 -56 64 -80q44 0 80 16q160 236 276 500q92 236 172 484q140 16 292 12q-24 -116 -84 -228q-60 -56 -92 -124q-8 -68 28 -116q124 -16 256 -28q32 -12 60 -40q24 -84 -12 -172q-76 -156 -176 -304q-96 -88 -188 -184q-24 -28 -24 -72q12 -44 60 -64q28 -4 60 0 q168 144 300 332q88 164 152 336q0 80 -4 156q-20 64 -72 112q-104 56 -212 80q84 160 124 328q4 64 -20 108q-44 40 -96 44q-392 -4 -760 -48q-24 -16 -36 -44q-4 -44 24 -80q108 -28 240 -12q-80 -276 -204 -544q-92 -180 -208 -368z" />
<glyph unicode="&#x4e45;" d="M396 984q4 -32 24 -64q32 -24 84 -24q28 20 56 32q176 208 296 436q140 4 276 -28q-116 -332 -288 -636q-92 -140 -196 -284q-108 -112 -224 -224q-20 -28 -16 -72q24 -60 100 -52q92 48 172 120q184 216 316 464q132 -212 292 -424q104 -116 236 -184q44 -8 88 16 q40 64 0 128q-72 52 -140 88q-196 224 -332 456q-28 56 -40 112q132 268 232 532q4 60 -32 92q-180 48 -376 56q-28 76 -104 80q-32 -12 -52 -32l-96 -216q-140 -188 -276 -372z" />
<glyph unicode="&#x4e48;" d="M456 880q-8 -56 36 -100q32 -4 68 -4q248 304 448 636q8 88 -64 116q-32 0 -56 -12q-228 -312 -432 -636zM588 400q-8 -48 12 -88q24 -20 60 -36q364 -4 712 48q32 -112 112 -196q56 -16 100 24q16 36 12 76q-96 228 -164 452q-40 28 -88 24q-28 -8 -48 -32 q-16 -96 20 -188q-232 -36 -476 -40q240 380 524 752q8 52 -12 88q-32 32 -68 32q-52 -12 -88 -64q-300 -428 -608 -852z" />
<glyph unicode="&#x4e49;" d="M368 256q-8 -48 12 -92q76 -40 172 -24q228 64 424 200q228 -88 468 -160q88 -4 180 -4q40 12 60 52q4 40 -12 64q-276 72 -536 176q128 180 224 368q64 148 112 304q8 72 -32 108q-68 32 -116 -24q-68 -228 -176 -444q-72 -112 -156 -220q-116 60 -204 164 q-88 108 -156 220q-68 116 -84 252q-24 52 -72 64q-84 8 -108 -64q4 -56 16 -112q92 -232 248 -440q112 -96 204 -196q-228 -112 -468 -192zM768 1420q52 -136 144 -264q28 -16 72 -12q28 16 48 44q-4 148 -80 256q-36 48 -80 68q-40 4 -72 -12q-40 -24 -32 -80z" />
<glyph unicode="&#x4e4b;" d="M264 416q-8 -52 32 -88q40 -16 76 -40q76 24 164 40q172 -4 328 -48q248 -104 516 -180q116 -4 228 28q88 36 168 88q16 40 16 80q-24 48 -68 60q-116 -32 -216 -88q-432 100 -852 220q304 184 588 448q16 44 36 84q-16 60 -68 80q-380 -32 -740 -92q-36 -36 -32 -88 q20 -40 72 -60q228 32 452 60q-332 -260 -700 -504zM740 1444q44 -136 96 -272q16 -24 48 -36q40 0 72 16l24 56q-24 160 -96 292q-56 44 -112 12q-32 -24 -32 -68z" />
<glyph unicode="&#x4e4c;" d="M376 400q12 -44 56 -72q412 -12 800 32q20 36 24 72q-16 48 -56 64q-392 -4 -772 -16q-48 -28 -52 -80zM452 1288q12 -32 44 -52q360 12 696 -28q-20 -192 -128 -352h-412q-28 136 -4 276q-12 40 -40 68q-52 16 -92 -8q-36 -44 -48 -100q-8 -164 -4 -332q16 -48 72 -60 q404 12 792 -24q80 -16 156 -44q8 -92 -12 -180q-48 -132 -148 -244q-84 -64 -172 -116q-88 -12 -160 -52q-56 -32 -48 -96q12 -24 36 -44q80 -20 160 4q136 64 268 148q132 120 204 268q64 176 60 376q-40 60 -108 92q-160 32 -312 64q92 164 136 348q4 64 -20 108 q-52 48 -116 64q-280 20 -564 24q16 152 68 304q-32 64 -100 56q-56 -16 -80 -68q-72 -196 -124 -400z" />
<glyph unicode="&#x4e4e;" d="M296 656q16 -28 52 -44q308 24 616 52q20 -76 0 -164q-36 -128 -80 -248q-60 -100 -128 -200q0 -36 20 -72q36 -24 88 -20q132 128 200 292q56 196 80 404q300 -12 588 -16q40 36 32 100q-12 28 -36 40q-284 44 -584 32q-32 156 -40 320q-28 96 -64 184q-32 44 -76 60 q-64 4 -88 -56q88 -232 104 -492q-336 -28 -664 -72q-40 -40 -20 -100zM504 1192q20 -180 128 -324q28 -16 68 -16q44 16 60 64q-64 164 -116 328q-40 24 -84 16q-44 -24 -56 -68zM564 1388q24 -36 72 -44q308 80 604 200q16 32 24 68q-20 60 -72 72q-312 -92 -612 -196 q-40 -40 -16 -100zM1176 964q-4 -44 24 -72q44 -28 96 -12q132 164 184 360q8 76 -16 132l-48 24q-48 4 -76 -28q-48 -220 -164 -404z" />
<glyph unicode="&#x4e4f;" d="M284 236l28 -56q60 0 124 4q64 48 136 88q56 8 120 0q260 -100 528 -220q64 -4 132 0q96 32 188 76q140 92 228 232q0 44 -12 80q-44 40 -96 28q-72 -64 -132 -140q-100 -76 -212 -120q-72 16 -136 28q-188 96 -372 180q140 84 280 180q132 132 256 280q44 64 64 132 q-8 40 -36 68q-44 12 -80 28q-164 -4 -324 -20q-12 80 -48 140q-40 24 -84 12q-32 -20 -40 -52q4 -56 4 -116q-212 -20 -400 -96q-24 -28 -20 -68q16 -48 72 -68q344 96 720 96q-84 -120 -200 -216q-324 -220 -664 -400q-24 -32 -24 -80zM296 1252q-8 -48 24 -84 q28 -8 56 -20q452 128 876 308q24 36 20 80q-20 48 -68 60q-432 -156 -880 -300q-24 -20 -28 -44z" />
<glyph unicode="&#x4e50;" d="M404 812q24 -48 84 -68h472q40 -268 16 -548q-76 8 -164 12q-52 -32 -40 -96q48 -56 120 -80q76 -12 156 -20q68 16 96 84q0 324 -4 644q176 8 364 4q36 20 64 56q8 60 -36 100h-396q-20 120 -28 240q-28 16 -52 24q-44 0 -72 -28q-36 -96 -24 -216q-184 -24 -384 -16 q-28 184 -16 384q8 52 28 92q436 32 848 120q20 20 36 44q8 64 -32 88q-444 -52 -928 -84q-72 -40 -92 -120q-28 -296 -16 -616zM456 276q8 -64 76 -84q112 52 172 168q32 64 36 136q-28 68 -100 56q-124 -116 -184 -276zM1336 476q16 -92 80 -168q60 -64 140 -120 q60 -12 92 40q8 48 -8 84q-92 124 -196 228q-84 8 -108 -64z" />
<glyph unicode="&#x4e52;" d="M288 620q16 -44 68 -64q668 32 1344 4q64 28 56 112q-12 24 -28 40q-200 28 -420 16q-12 184 4 356q152 4 300 8q40 44 32 100q-20 36 -56 52q-360 16 -708 -12q112 148 280 268q44 64 0 124q-36 20 -80 16q-220 -192 -452 -360q-28 -32 -20 -80q8 -20 32 -44 q0 -208 8 -424q-176 4 -336 -36q-28 -28 -24 -76zM508 116q-8 -40 12 -72q52 -48 116 -20q132 152 204 336q4 52 -24 84q-60 36 -116 -8q-84 -164 -192 -320zM800 1064q164 32 344 24q12 -176 -8 -348q-168 -12 -324 -4q-16 156 -12 328z" />
<glyph unicode="&#x4e53;" d="M336 380q36 -28 88 -40q612 4 1228 8q40 12 76 32q20 40 12 84q-32 40 -76 52q-176 -4 -348 -8q-36 160 4 320q156 -20 320 -36q32 12 52 40q12 52 -12 96q-48 36 -104 44q-464 32 -940 28q-16 60 -24 116q416 220 848 416q32 36 52 72q8 52 -28 80q-36 20 -72 16 q-496 -232 -956 -484q16 -356 76 -700q-80 -20 -172 -12q-56 -52 -24 -124zM668 828h464q20 -136 16 -296q-204 -40 -432 -36q-68 156 -48 332zM1280 112q84 -100 188 -176q40 0 80 4q44 52 24 112q-92 88 -192 172q-52 8 -88 -24q-20 -36 -12 -88z" />
<glyph unicode="&#x4e54;" d="M344 424q12 -64 80 -72q56 12 104 52q156 188 292 368q152 12 308 16q232 -200 468 -360q56 -4 84 36q4 32 4 60q-148 160 -324 276q172 8 328 52q16 32 12 72q-20 40 -60 52q-372 -24 -748 -36q80 276 176 548q100 80 220 128q36 32 32 80q-20 40 -52 56q-36 8 -72 0 q-388 -196 -732 -484q-8 -24 -4 -56q24 -44 76 -60q164 108 324 196q-68 -232 -176 -436q-132 4 -256 8q-36 -12 -56 -48q-20 -72 44 -112h180q-108 -172 -252 -336zM652 12q-12 -56 24 -96q32 -12 76 -12q24 12 52 36q60 112 92 236q24 144 28 296q-12 48 -48 76 q-72 24 -116 -32q-8 -200 -48 -384zM1168 520q0 -300 44 -600q36 -36 92 -32q36 12 56 40q-8 292 -32 576q-28 72 -104 60q-36 -12 -56 -44z" />
<glyph unicode="&#x4e56;" d="M236 240q-4 -48 28 -84q300 20 592 120q24 32 24 76q-12 28 -32 48q-56 8 -96 20q0 228 8 436q-20 36 -52 52q-44 8 -76 -16q-44 -80 -44 -168q-140 0 -264 -32q-20 -24 -32 -52q0 -72 72 -96q112 20 228 24q20 -84 12 -188q-172 -44 -340 -92q-20 -24 -28 -48zM344 1028 q20 -32 60 -48q248 12 500 28q28 -456 24 -964q8 -32 36 -60q32 -20 80 -16q44 24 60 68q-36 484 -24 980q256 12 532 4q68 28 64 104q-12 24 -24 40q-284 44 -580 12q0 140 -16 268q140 28 268 92q20 36 20 80q-20 48 -64 60q-388 -104 -780 -180q-40 -32 -28 -84 q16 -44 64 -60q188 20 364 68q20 -116 0 -252q-232 -24 -476 -20q-32 -12 -60 -32q-32 -36 -20 -88zM1180 392q12 -76 52 -144q44 -56 104 -88q88 -32 176 -56q140 -12 260 36q44 56 16 116q-24 20 -48 32q-96 -16 -192 -20q-104 12 -180 76q-52 100 -36 220q232 12 444 44 q28 36 24 88q-16 40 -56 52q-200 -4 -392 -24q12 92 -16 168q-52 36 -104 16q-32 -40 -40 -100q-20 -204 -12 -416z" />
<glyph unicode="&#x4e58;" d="M272 192q8 -32 36 -60q24 -8 60 -8q292 96 540 256q8 -192 16 -388q32 -52 96 -52q56 16 72 68q-16 184 -16 372q124 -92 280 -196q120 -60 260 -92q76 -8 136 20q16 32 28 60q-4 40 -28 68q-120 12 -224 48q-92 44 -184 92q-132 128 -260 244q-8 260 8 500 q244 -8 460 12q28 32 36 72q-12 32 -28 56q-232 36 -480 12q-12 104 -8 208q124 32 240 80q20 44 12 92q-24 40 -60 48q-340 -96 -692 -160q-40 -28 -32 -84q16 -40 60 -56q152 8 296 44q28 -68 20 -160q-224 -32 -468 -24q-48 -8 -88 -40q-24 -28 -20 -68q12 -48 68 -60 q248 20 504 20q20 -256 4 -528q-116 -84 -232 -156q-180 -96 -376 -164q-32 -28 -36 -76zM324 508q16 -40 60 -56q248 68 492 152q20 40 16 88q-44 44 -104 52q8 148 -20 272q-28 24 -52 36q-44 4 -76 -24q-24 -36 -16 -96q-132 -4 -260 -48q-32 -56 0 -116q124 -24 260 -4 q12 -32 8 -72q-160 -36 -292 -112q-20 -28 -16 -72zM1148 832q0 -96 48 -172q48 -48 108 -76q120 -36 264 -28q76 16 100 84q-12 60 -64 80q-76 0 -148 -8q-80 8 -140 52q-12 20 4 32q188 -4 348 32q12 32 20 64q-12 52 -56 68q-152 8 -296 -8q-4 84 -64 116q-44 4 -76 -16 q-40 -100 -48 -220z" />
<glyph unicode="&#x4e59;" d="M384 348q24 -88 96 -148q148 -68 324 -88q312 -12 616 16q100 20 192 68q56 132 60 292q-32 48 -84 56q-24 -8 -48 -20q-40 -104 -64 -216q-316 -56 -656 -40q-128 16 -240 64q-28 24 -32 52q8 104 48 192q60 96 132 184q248 220 528 456q32 64 68 120q8 92 -52 144 q-76 40 -156 64h-320q-180 -4 -336 -68q-24 -32 -20 -76q16 -40 64 -60q280 48 588 40q28 -8 52 -28q-272 -256 -564 -516q-72 -92 -128 -184q-76 -132 -68 -304z" />
<glyph unicode="&#x4e5d;" d="M200 972q-4 -48 28 -84q192 -4 388 56q-8 -84 -36 -180q-104 -272 -288 -516q-8 -56 28 -92q32 -16 76 -16q80 72 144 164q84 148 156 300q60 184 96 376q148 68 320 72q-24 -188 -60 -376q-24 -200 12 -388q20 -44 52 -92q56 -56 140 -92q168 -52 364 -40q100 24 204 56 q32 32 32 84q-20 48 -64 68q-152 -36 -312 -52q-128 24 -232 80l-32 64q-8 164 4 324q24 188 72 364q4 80 -12 144q-24 28 -48 36q-204 -8 -388 -64q16 168 24 356q-24 48 -76 64q-68 4 -88 -52q-4 -208 -40 -412q-224 -36 -436 -104q-20 -24 -28 -48z" />
<glyph unicode="&#x4e5e;" d="M388 1000q-4 -36 20 -68q32 -24 76 -28q44 24 88 52q108 112 188 220q372 28 744 20q64 16 84 76q0 64 -52 88q-332 4 -660 -16q56 108 76 236q-24 44 -64 60q-36 4 -64 -12q-100 -236 -260 -444q-112 -84 -176 -184zM708 248q4 -60 40 -116q44 -32 96 -56 q184 -56 380 -80h180q120 24 236 76q24 40 20 88q-16 28 -40 44q-132 0 -248 -52q-160 12 -308 28q-96 24 -188 60q4 64 40 112q252 248 512 476q52 72 28 148q-80 84 -192 104q-288 16 -532 -52q-52 -56 -12 -120q264 12 544 0q-220 -192 -448 -428q-96 -96 -108 -232z" />
<glyph unicode="&#x4e5f;" d="M288 856q-4 -36 12 -68q28 -24 64 -36q40 16 80 20q-4 -204 72 -380q40 -72 120 -140q60 -40 128 -76q116 -32 240 -52q112 -4 228 0q268 40 512 132q20 40 16 88q-24 56 -80 52q-196 -52 -392 -100q-176 -12 -352 0q-76 24 -148 52q-60 44 -108 92q-28 52 -48 104 q-32 144 -28 296q152 56 316 96q4 -176 16 -348q24 -24 56 -36q48 0 80 28q24 192 12 396q152 56 328 68q-40 -160 -152 -304q-4 -72 64 -96q36 4 72 20q120 148 184 320q20 72 20 148q-20 56 -72 76q-236 4 -440 -64q-16 176 -44 344q-56 36 -112 0q-28 -28 -32 -72 q16 -144 20 -304q-148 -56 -308 -100q-24 100 -36 200q-36 28 -84 24q-36 -12 -56 -48q-8 -116 8 -232q-100 -20 -156 -100z" />
<glyph unicode="&#x4e60;" d="M468 1440q20 -72 100 -88q400 24 816 24q20 -140 12 -296q-28 -408 -112 -796q-132 64 -292 92q-56 -20 -56 -88q28 -60 92 -100q116 -60 240 -104q76 -16 140 20q64 160 104 324q68 476 60 980q-16 68 -56 120q-484 48 -988 12q-56 -36 -60 -100zM504 532 q32 -60 108 -52q200 92 388 228q8 64 -20 104q-52 20 -104 12q-188 -92 -368 -212q-8 -36 -4 -80zM656 1104q116 -112 276 -152q44 -4 92 -4q28 16 52 44q4 36 4 68q-20 40 -56 60q-160 76 -328 92q-52 -40 -40 -108z" />
<glyph unicode="&#x4e61;" d="M556 -20q-8 -48 28 -84q28 -16 72 -12q280 220 532 480q164 188 296 392q16 72 -20 120q-48 16 -92 4q-56 -80 -116 -160q-168 4 -332 4q224 248 464 492q24 44 16 92q-24 32 -52 44q-48 4 -84 -20q-88 -84 -164 -180q-184 -8 -340 32q172 252 276 528q-24 28 -56 44 q-44 8 -72 -16q-184 -280 -340 -560q-24 -64 24 -116q172 -44 360 -68q-176 -156 -304 -336q-4 -68 64 -88q220 12 436 -4q-296 -308 -596 -588z" />
<glyph unicode="&#x4e66;" d="M356 828q-32 -56 16 -112h448v-744q8 -20 28 -36q72 -16 120 28q0 384 44 752q268 8 532 0q36 -84 4 -188q-32 -112 -104 -212q-80 -16 -152 -36q-36 -44 -16 -108q92 -52 204 -24q68 28 120 92q80 156 120 332q4 104 4 208q-16 36 -48 64q-104 40 -216 52q44 168 72 340 q4 72 -16 124q-32 28 -60 44q-244 8 -464 48q-4 108 8 208q-32 56 -96 52q-48 -20 -68 -72v-188q-196 -8 -384 -28q-24 -12 -44 -32q-20 -36 -8 -80q16 -28 48 -44q196 12 384 -12q8 -204 -12 -380q-192 8 -380 8q-56 -16 -84 -56zM992 892v368q188 24 372 -20 q-20 -184 -72 -356q-156 -4 -300 8zM1356 1608q52 -112 168 -168q52 8 76 52q4 44 -8 84q-44 92 -136 136q-56 8 -92 -28q-20 -32 -8 -76z" />
<glyph unicode="&#x4e70;" d="M380 1452q16 -32 52 -44q536 20 1072 20q-12 -92 -28 -196q8 -52 64 -76q28 0 52 8q48 48 64 104q16 116 20 236q-20 68 -80 96q-588 -4 -1140 -28q-36 -12 -60 -36q-24 -32 -16 -84zM392 564q-12 -52 28 -92q252 -40 532 -16q-24 -140 -80 -280q-16 -60 20 -112 q32 -24 80 -20q20 12 40 28q64 204 140 404q232 8 472 24q52 44 40 112q-28 44 -76 44q-196 -8 -392 -12q64 252 92 520q-20 32 -48 40q-68 12 -104 -40q-52 -272 -124 -532q-292 -8 -580 -16q-28 -20 -40 -52zM528 908q32 -56 76 -100t116 -40q32 16 48 48q0 88 -52 148 q-44 48 -88 76q-44 12 -80 -12q-48 -48 -20 -120zM672 1212q88 -112 184 -196h72q24 20 40 48q-4 56 -28 100q-68 92 -160 140q-60 12 -96 -24q-16 -28 -12 -68zM1236 276q68 -120 176 -200q48 -32 116 -32q60 36 44 116q-124 120 -232 220q-64 12 -100 -28q-8 -36 -4 -76z " />
<glyph unicode="&#x4e71;" d="M224 900q28 -28 64 -44q160 16 336 20q8 -108 16 -220q-112 -4 -208 -36q-20 -36 -32 -76q4 -204 40 -408q212 -32 468 -16q52 24 108 44q20 156 12 328q-16 72 -36 132q-96 48 -204 44v220q148 12 300 20q60 20 72 80q-12 52 -56 72q-164 0 -308 -4q-8 132 -32 248 q84 52 172 92q56 52 52 128q-28 48 -88 52q-248 -152 -528 -248q-36 -28 -28 -80q8 -24 32 -48q36 -12 80 -12q76 28 156 60q32 -88 24 -208q-196 -8 -392 -36q-48 -44 -20 -104zM568 480q132 32 280 24q32 -100 16 -220q-140 -12 -280 -4q-20 96 -16 200zM1328 732 q12 -168 48 -332q72 -120 188 -220q84 -60 180 -112l56 4q56 44 40 116q-148 104 -276 224q-40 104 -64 220q-24 416 8 832q-16 60 -72 76q-52 4 -80 -36q-32 -372 -28 -772z" />
<glyph unicode="&#x4e73;" d="M268 1200q36 -120 148 -188q24 0 52 4q56 32 48 100q-56 100 -148 156q-40 4 -68 -12q-24 -28 -32 -60zM280 384q-8 -68 60 -96q200 44 392 100q-8 -84 -32 -160q-76 -40 -124 -108q-4 -36 12 -68q40 -44 104 -36q72 44 128 96q72 152 80 324q48 24 100 48q24 36 20 80 q-20 44 -60 52l-80 -8q-32 48 -56 88q100 96 168 220q0 44 -16 72q-32 32 -64 44q-144 4 -272 -24q-164 -36 -316 -88q-32 -40 -16 -92q20 -28 56 -44q196 52 384 72q-64 -52 -132 -84q-20 -32 -16 -80q80 -48 120 -140q-204 -52 -404 -116q-24 -20 -36 -52zM376 1368 q16 -28 52 -40q124 20 248 60q108 44 212 116q28 52 4 100q-28 32 -64 28q-220 -92 -444 -176q-24 -40 -8 -88zM524 1220q32 -48 76 -100q32 -20 80 -24q60 24 60 92q-24 56 -68 104q-32 32 -72 36q-32 -4 -56 -24q-28 -32 -20 -84zM816 1160q8 -20 20 -48q32 -28 80 -28 q88 84 132 220q4 60 -16 104q-60 40 -112 4q-60 -120 -104 -252zM1216 716q32 -192 80 -380q48 -80 140 -156q104 -68 228 -120q56 -8 104 24q16 36 16 76q-164 100 -324 228q-64 180 -88 368q4 336 24 664q-12 52 -52 68q-40 12 -72 -4q-36 -32 -44 -76q-16 -340 -12 -692z " />
<glyph unicode="&#x4e86;" d="M556 1448q-8 -68 56 -96q312 56 656 44q-100 -128 -264 -192q-36 -44 -24 -116q88 -88 120 -216q4 -208 -16 -416q-28 -96 -64 -180q-88 24 -156 -20q-36 -56 4 -112q88 -36 180 -68q24 12 52 16q60 84 100 172q60 208 68 436q-8 164 -40 320q-20 44 -52 84 q92 76 192 136q72 84 132 184q0 40 -4 76q-36 32 -76 48q-136 8 -264 16q-300 -4 -568 -68q-24 -20 -32 -48z" />
<glyph unicode="&#x4e88;" d="M440 944q12 -40 56 -64q216 40 444 72q252 32 472 -20q-136 -128 -296 -196q-28 104 -112 152q-52 8 -88 -20q-24 -36 -16 -84q36 -48 68 -108q0 -156 -12 -316q-44 -140 -68 -296q12 -32 44 -48q64 -20 112 32q24 68 52 124q28 184 32 376q148 96 300 176 q104 88 180 204q8 84 -44 128q-96 52 -204 64q-132 4 -256 -8q-24 24 -20 52q112 84 196 180q48 80 88 156q4 48 -12 84q-44 32 -92 40q-216 24 -440 16q-108 -12 -196 -48q-36 -36 -16 -92q20 -20 52 -40q252 44 496 8q-80 -100 -164 -180q-48 48 -96 72q-36 0 -64 -24 q-24 -32 -16 -88q52 -68 100 -144q-232 -24 -444 -76q-40 -32 -36 -84z" />
<glyph unicode="&#x4e89;" d="M260 792q20 -28 52 -52l584 48q32 -52 28 -128q-200 0 -380 -36q-40 -48 -12 -108q20 -20 44 -32q172 8 340 12q0 -228 -36 -464q12 -40 52 -56q56 -8 96 28q56 236 60 488q164 4 320 32q48 132 64 276q140 -20 288 -20q36 40 36 96q-36 60 -108 68q-112 12 -224 16 q-20 68 -40 128q-48 56 -116 80q-92 20 -188 20q96 120 200 244q12 88 -48 128q-164 80 -340 116q-100 -20 -180 -76q-112 -80 -220 -164q-36 -28 -32 -88q20 -44 76 -64q172 92 332 220q112 -8 212 -52q-124 -136 -240 -264q-188 12 -340 -44q-24 -32 -20 -76 q12 -40 52 -56q144 20 296 20q24 -40 28 -92q-312 -8 -608 -52q-36 -36 -28 -96zM1036 1028q80 12 180 0q64 -8 80 -64q-124 -12 -240 -8q-16 36 -20 72zM1076 800q120 12 232 0q-4 -76 -28 -144q-100 0 -196 -4q-20 80 -8 148z" />
<glyph unicode="&#x4e8b;" d="M260 584q16 -36 56 -52q296 32 616 40q8 -24 16 -56q-228 4 -424 -56q-20 -32 -12 -76q16 -36 64 -52q172 20 360 24q16 -192 4 -400q12 -44 60 -68q36 0 68 16q20 44 36 88q4 184 0 364q168 4 332 -24q44 48 68 108l4 140q132 -28 264 -20q28 36 28 84q-12 28 -24 44 q-124 56 -268 56q-20 84 -80 144q-156 64 -324 40q-24 32 4 56q136 0 264 -12q32 44 76 88q40 148 -8 280q-156 60 -344 52q-16 28 4 48q144 -12 268 8q32 40 28 92l-32 40q-136 28 -284 16q-16 52 -16 108q-24 36 -60 48q-76 4 -96 -68q0 -44 12 -88q-128 -8 -248 -28 q-28 -20 -40 -52q0 -36 20 -72q128 -32 280 -8q16 -28 -4 -52q-180 0 -340 -44q-16 -16 -24 -40q-4 -136 28 -260q32 -68 112 -84q104 32 232 24q24 -16 12 -48q-216 0 -412 -36q-44 -52 -8 -116q192 -28 412 0q20 -24 4 -56q-344 4 -660 -52q-32 -32 -24 -88zM732 1136 q-12 52 20 76q80 20 172 24q20 -44 16 -104q-116 -20 -208 4zM1088 1228q108 28 212 -12q4 -36 8 -76q-100 -16 -212 -4q-16 44 -8 92zM1092 572q120 40 260 8q-8 -32 -4 -68q-116 0 -244 4q-20 24 -12 56zM1108 736q-28 24 0 44q120 20 224 -32q-112 -12 -224 -12z" />
<glyph unicode="&#x4e8c;" d="M408 440q-36 -56 8 -112q564 8 1156 -12q40 12 72 32q36 64 -4 120q-572 36 -1160 20q-40 -12 -72 -48zM592 1192q20 -32 56 -48q376 -12 728 4q28 40 24 92q-24 56 -88 60q-360 28 -700 -16q-32 -40 -20 -92z" />
<glyph unicode="&#x4e8e;" d="M324 896q16 -48 68 -64q284 24 580 32q20 -132 12 -284q-20 -160 -44 -324q-116 44 -224 28q-24 -20 -36 -52q-4 -40 16 -76q140 -48 288 -96q28 8 56 20q44 76 72 164q32 308 36 620q292 -20 560 8q16 36 20 76q-12 36 -36 52q-276 28 -560 28l-48 312q-48 56 -112 24 q-28 -24 -36 -60q20 -136 24 -280q-324 4 -620 -56q-20 -28 -16 -72zM444 1496q0 -80 76 -100q464 20 928 16q24 20 40 52q8 60 -36 96q-472 24 -960 0q-36 -24 -48 -64z" />
<glyph unicode="&#x4e8f;" d="M320 1056q20 -32 60 -52q172 16 352 12q-36 -140 -112 -288q-12 -76 20 -136q352 -32 704 -72q-12 -172 -32 -340q-212 -4 -420 -4q-60 -32 -40 -104q28 -40 76 -52q232 -16 476 -16q32 12 48 44q48 260 56 524q-24 88 -112 120q-292 24 -588 44q32 156 144 292 q360 16 728 12q56 40 40 112q-32 48 -84 48q-620 0 -1220 -24q-40 -12 -72 -32q-32 -32 -24 -88zM600 1572q-12 -36 8 -72q32 -24 68 -40q340 -8 692 0q36 20 60 52q8 60 -32 96q-352 28 -716 16q-56 -4 -80 -52z" />
<glyph unicode="&#x4e91;" d="M316 876q16 -40 56 -52q244 40 496 72q-204 -340 -460 -668q-12 -40 12 -76l48 -24q460 84 916 208q116 -156 252 -268q36 4 72 20q32 48 20 100q-224 252 -420 524q-36 20 -80 16q-64 -24 -52 -100q36 -72 104 -144q-292 -92 -588 -152q212 288 384 584q324 4 636 36 q32 60 -4 116q-64 24 -128 28q-380 -12 -756 -40q-252 -32 -488 -92q-28 -36 -20 -88zM488 1408q24 -56 84 -60q408 40 812 88q20 36 24 76q-16 44 -60 64q-436 -8 -840 -80q-28 -36 -20 -88z" />
<glyph unicode="&#x4e92;" d="M316 116q676 -28 1372 -44q28 8 52 28q36 68 -8 128q-308 28 -604 48q136 272 212 568q8 88 0 172q-20 52 -64 92q-44 24 -92 40q-156 20 -316 12q16 124 80 232q276 12 548 -16q48 24 68 76q-12 36 -32 68q-188 52 -396 40q-340 -8 -664 -36q-44 -40 -32 -108 q12 -36 56 -48q124 16 260 12q-88 -284 -152 -600q-8 -68 0 -136q16 -48 60 -88q40 -20 92 -40q152 -12 300 8q-40 -128 -124 -256q-316 8 -616 -28q-40 -60 0 -124zM772 708q-4 156 48 284q136 24 288 12q40 -12 76 -40q-8 -144 -56 -268q-188 -28 -356 12z" />
<glyph unicode="&#x4e94;" d="M252 232q16 -40 64 -52q732 20 1444 0q36 48 24 104q-20 28 -40 36q-168 20 -336 28q12 200 -24 404q-32 80 -88 140q-56 28 -108 40h-204q76 180 136 364q180 4 376 0q52 20 68 72q0 68 -52 88q-472 8 -928 -4q-68 -16 -64 -96q16 -52 76 -72q168 20 352 12 q-56 -180 -140 -372q-168 12 -304 -44q-16 -28 -16 -64q8 -44 56 -64l164 4q-80 -200 -184 -408h-200q-52 -12 -72 -64v-52zM724 352q56 216 180 416q116 16 252 8q32 -8 60 -36q48 -176 32 -384q-264 12 -524 -4z" />
<glyph unicode="&#x4e95;" d="M356 660q0 -72 72 -92q116 20 236 4q-16 -136 -40 -272q8 -28 28 -60q64 -36 120 8q36 176 68 348q200 12 388 -12q-16 -280 4 -548q56 -48 120 -12q20 20 32 52q4 252 0 496q144 0 272 36q40 64 0 116q-120 32 -264 12q-16 164 -8 332q68 -8 132 24q16 32 16 72 q-16 44 -52 60q-52 0 -92 12q8 168 8 340q-12 32 -32 56q-32 20 -68 16q-48 -12 -64 -60q0 -176 -4 -352q-180 -24 -368 -24q4 152 -44 280q-40 24 -84 16q-40 -16 -48 -60q0 -112 12 -224q-116 -4 -208 -40q-24 -36 -16 -84q20 -36 64 -52q68 16 148 8q28 -152 -4 -308 q-156 -4 -296 -36q-16 -24 -28 -52zM844 764q12 144 8 288q176 24 364 16q24 -156 4 -316q-204 -8 -376 12z" />
<glyph unicode="&#x4e9a;" d="M388 184q24 -36 64 -48q588 -8 1160 16q52 32 44 96q-20 40 -60 56h-292q-4 516 0 1040q156 28 340 16l32 40q8 64 -28 104q-592 12 -1200 0q-60 -36 -32 -104q32 -36 76 -52l240 4q32 -524 40 -1056q-168 -4 -336 0q-68 -36 -48 -112zM396 912q8 -88 76 -160 q52 -48 116 -104q36 -12 80 -4q36 44 28 104q-72 120 -176 208q-32 12 -60 12q-44 -8 -64 -56zM904 1348q120 36 240 -8q8 -524 -8 -1040q-92 -12 -188 -8q-48 520 -44 1056zM1428 788q-12 -64 20 -116q28 -12 68 -12q108 96 140 240q12 72 0 136q-36 48 -104 28 q-84 -132 -124 -276z" />
<glyph unicode="&#x4e9b;" d="M252 684q0 -56 52 -84q368 68 724 184q24 36 24 80q-20 48 -64 60q-128 -24 -252 -64q-24 104 -12 216l312 56q28 40 24 88q-16 40 -56 52q-140 -8 -272 -28q-4 116 -12 236q-12 36 -36 60q-56 32 -112 0q-16 -344 8 -716q-32 -16 -68 -28q-40 188 -28 400q-20 52 -64 76 q-80 8 -100 -56q-4 -236 28 -456q-36 -4 -68 -20zM440 104q20 -52 80 -68q572 8 1144 20q24 28 40 60q0 48 -32 76q-608 44 -1208 -12q-24 -32 -24 -76zM676 512q8 -64 72 -84q244 16 488 12q40 16 76 32q40 64 -8 116q-56 28 -116 24q-248 8 -480 -36q-24 -28 -32 -64z M1104 1096q8 -168 80 -316q56 -64 128 -112q76 -36 156 -68q136 -36 276 -4q12 28 28 48q4 52 -24 80q-152 20 -300 56q-76 32 -136 92q-36 100 -52 204q244 56 488 116q48 52 12 120q-28 12 -44 24q-224 -36 -444 -88q4 148 12 300q-24 44 -72 56q-40 -4 -68 -24 q-52 -228 -40 -484z" />
<glyph unicode="&#x4ea1;" d="M356 964q88 -24 196 -16q-28 -152 -20 -324q12 -160 92 -300q60 -68 132 -116q136 -44 280 -68q128 -4 264 0q168 28 332 68q28 16 48 44q0 44 -16 76q-28 20 -52 28q-244 -32 -488 -60q-168 20 -312 72q-24 32 -56 48q-44 92 -56 188q-16 188 20 360q460 44 920 12 q36 8 72 28q28 56 -8 108q-268 60 -564 32q-4 176 -52 328q-24 16 -44 28q-52 8 -88 -24q-8 -152 28 -332q-312 -24 -628 -52q-48 -60 0 -128z" />
<glyph unicode="&#x4ea4;" d="M440 72q20 -60 92 -60q60 24 120 52q196 132 364 288q92 -104 204 -220q104 -100 240 -140q32 8 64 28q28 52 4 100q-112 68 -212 152q-88 100 -180 192q144 188 232 384l104 -104q60 -32 120 8q20 40 16 88q-168 168 -324 320q-36 20 -80 16q-44 -16 -56 -64 q8 -88 92 -136q-68 -200 -204 -372q-44 24 -72 68q-72 120 -116 248q-36 28 -72 36q48 56 80 116q0 32 -12 56q-44 48 -104 32q-128 -152 -276 -292q-24 -36 -16 -88q28 -56 100 -52q84 60 152 144q68 -216 208 -396q-200 -192 -452 -332q-20 -28 -16 -72zM456 1264 q28 -52 96 -60q476 24 964 16q40 20 60 56q8 48 -20 80l-56 28q-200 -8 -400 -8q-8 100 -4 200q-24 60 -84 76q-44 0 -72 -28q-24 -116 -12 -248q-208 -12 -400 0q-40 -8 -60 -36q-16 -32 -12 -76z" />
<glyph unicode="&#x4ea6;" d="M244 500q4 -36 28 -72q52 -28 108 -4q140 172 228 372q8 72 -48 104q-36 8 -68 0q-120 -196 -248 -400zM400 1200q24 -20 56 -28q568 36 1152 12q56 16 68 72q0 44 -16 72q-276 44 -572 28q-16 116 -44 220q-40 40 -92 32q-40 -16 -56 -60q16 -100 16 -196 q-256 -4 -500 -36q-44 -52 -12 -116zM644 208q24 -68 96 -72l48 24q92 240 124 504q12 200 8 400q-16 52 -64 68q-72 12 -92 -52q0 -196 -8 -388q-36 -244 -112 -484zM1076 1096q-20 -524 20 -1032q52 -40 116 -8q20 32 32 56q-16 500 -12 996q-28 64 -96 60 q-48 -16 -60 -72zM1448 836q84 -244 256 -432q48 -12 88 20q12 24 16 56q-100 224 -236 408q-36 24 -76 12q-40 -20 -48 -64z" />
<glyph unicode="&#x4ea7;" d="M472 748q24 -432 48 -856q36 -8 80 -8q28 12 44 36q52 380 12 760q408 52 840 28q36 12 60 40q20 76 -36 120q-520 16 -1000 -24q-44 -36 -48 -96zM500 1320q20 -40 72 -52q420 20 852 28q56 36 52 104q-16 28 -40 44q-444 12 -896 -16q-48 -36 -40 -108zM688 1108 q20 -68 64 -128q32 -40 76 -60h64q48 28 40 88q-56 96 -120 184q-52 20 -96 -8q-32 -28 -28 -76zM792 1652q56 -72 140 -132q52 -32 120 -44q64 28 56 104q-80 120 -204 168q-52 8 -88 -16q-32 -32 -24 -80zM1120 984q32 -48 108 -40q72 80 112 176q4 56 -36 88 q-36 20 -80 8q-80 -60 -104 -164v-68z" />
<glyph unicode="&#x4ea9;" d="M232 1248q12 -40 56 -56q744 8 1480 20q36 20 52 60q4 76 -60 92q-728 4 -1452 -16q-32 -8 -56 -28q-24 -28 -20 -72zM432 908q4 -472 68 -940q24 -40 68 -64q488 -8 960 -4q28 60 48 116q28 476 40 960q-156 88 -352 96q-340 12 -656 -32q-64 -20 -124 -40 q-32 -44 -52 -92zM600 872q160 40 340 48q28 -164 24 -352q-180 -4 -352 -20q-12 160 -12 324zM612 388q176 36 360 16q0 -172 -8 -340q-160 -4 -316 -4q-28 164 -36 328zM920 1688q-12 -32 4 -64q60 -88 140 -184q28 -12 64 -12q40 8 56 44q-4 96 -56 168q-60 88 -148 104 q-44 -12 -60 -56zM1108 920q176 0 344 -40q-4 -156 -12 -312h-312q-4 184 -20 352zM1124 60q4 172 4 348q152 28 308 -4q-8 -180 -24 -356q-152 -12 -288 12z" />
<glyph unicode="&#x4eab;" d="M484 1464q16 -32 60 -52q156 12 308 32q332 4 656 -20q40 20 60 60q0 36 -12 60q-40 36 -88 44q-200 8 -400 4q-4 68 -16 124q-36 40 -88 36q-32 -8 -52 -36q0 -64 -16 -124q-200 8 -384 -40q-36 -32 -28 -88zM520 392q-4 -64 56 -96q232 4 456 -4q-8 -92 -44 -172 q-72 -60 -120 -128q-4 -40 16 -76q32 -20 72 -28q84 36 152 116q72 144 92 300q104 8 208 -20q68 12 132 32l32 48q4 52 -28 84q-168 24 -352 12q-48 52 -52 120q124 76 192 200q4 64 -32 96q-228 32 -472 16q-104 -8 -196 -36q-44 -60 8 -120q228 -4 444 -4 q-72 -56 -160 -92q-20 -32 -16 -80q56 -44 100 -96q-244 8 -468 -24q-8 -24 -20 -48zM668 1020q16 -52 76 -80q268 16 536 8q48 20 88 68q24 124 24 260q-8 52 -44 84q-48 12 -84 28q-264 0 -516 -24q-44 -12 -76 -40q-16 -140 -4 -304zM824 1204q184 32 392 28 q16 -52 8 -120q-200 -16 -396 -16q-8 52 -4 108z" />
<glyph unicode="&#x4eac;" d="M376 1332q-4 -48 36 -88q612 16 1232 20q36 40 32 96q-20 48 -64 60q-248 4 -504 0q-4 116 -28 216q-36 32 -80 24q-32 -8 -52 -36q-20 -92 -4 -200q-272 -4 -528 -40q-28 -20 -40 -52zM432 188q28 -60 112 -52q80 56 148 136q52 84 100 168q0 76 -64 96q-36 4 -64 -8 q-84 -140 -212 -252q-28 -40 -20 -88zM684 1104q-12 -180 12 -368q8 -40 40 -84q116 -8 240 -16q-8 -300 -32 -600q12 -44 56 -60q40 -4 76 12q36 64 48 132q0 268 16 532q80 4 164 -8q72 40 104 120q0 156 -4 304q-8 44 -36 76q-252 24 -520 12q-92 -12 -164 -52zM840 980 q188 36 396 20q20 -84 12 -188q-200 -24 -400 -8q-8 88 -8 176zM1332 432q108 -144 200 -292q28 -12 64 -24q52 16 76 68q-64 188 -212 336q-60 32 -112 -12q-20 -32 -16 -76z" />
<glyph unicode="&#x4ead;" d="M288 508q16 -40 64 -60q40 4 76 24q36 84 24 180q512 44 1044 44q60 -8 116 -32q-12 -68 0 -136q20 -36 64 -52q64 0 88 52q20 112 16 224q-16 28 -36 48q-112 44 -228 52q-620 -16 -1192 -36q-56 -136 -36 -308zM484 1364q20 -28 56 -44q496 24 984 20q20 24 32 48 q4 56 -28 88q-204 28 -432 16q-20 100 -28 196q-60 48 -120 12q-40 -88 -24 -204q-224 8 -420 -40q-36 -40 -20 -92zM576 544q-8 -44 12 -80q180 -32 380 -16q24 -140 4 -288q-48 -84 -52 -192q12 -32 44 -52q56 -12 100 20q32 76 64 156q20 172 8 344q144 12 296 0 q48 24 68 72q-8 44 -32 76q-396 28 -820 16q-52 -12 -72 -56zM708 1204q-4 -120 4 -240q24 -64 88 -92q220 16 448 12q36 16 68 32q36 124 28 272q-32 76 -116 88q-248 4 -468 0q-44 -24 -52 -72zM872 1036q-16 48 8 84q148 16 304 4q8 -44 -12 -88q-160 4 -300 0z" />
<glyph unicode="&#x4eae;" d="M328 492q12 -48 64 -68q44 0 80 20q32 104 52 204q508 44 1012 20q-4 -64 -24 -124q20 -52 76 -76q36 12 68 24q36 68 60 140q8 60 0 120q-36 44 -84 64q-632 20 -1224 -4q-68 -148 -80 -320zM436 1396q12 -32 56 -52q556 24 1104 24q32 32 32 76q-8 36 -32 56 q-248 24 -504 16q-4 104 -36 192q-56 32 -108 0q-40 -80 -24 -192q-236 4 -456 -32q-40 -32 -32 -88zM556 4q24 -24 60 -40q56 8 104 48l104 144q92 184 120 388q-16 52 -64 68q-48 8 -76 -20q-36 -148 -92 -292q-60 -120 -156 -220q-20 -36 0 -76zM700 960q8 -44 36 -92 h504q28 20 68 28q44 180 40 360q-44 28 -84 44q-288 16 -548 -24q-40 -148 -16 -316zM852 1140q160 24 324 8q4 -60 0 -128q-160 -8 -320 0q-8 60 -4 120zM1060 564q0 -176 28 -344q28 -100 116 -184q128 -76 268 -132q48 0 88 32q36 60 -8 108q-120 44 -228 100 q-44 40 -68 92q-24 196 -72 376q-52 28 -100 -4q-12 -24 -24 -44z" />
<glyph unicode="&#x4eb2;" d="M300 820q-4 -32 8 -64q44 -44 108 -52q248 28 520 24q4 -64 4 -136q-236 -20 -452 -52q-44 -36 -28 -96q16 -28 48 -40q216 8 436 20q4 -176 4 -364q-84 8 -148 -36q-20 -32 -8 -76q32 -48 92 -60q84 -4 168 12q44 24 64 64q-4 232 -8 456q152 28 320 16q32 24 48 56 q12 64 -36 100q-176 0 -336 4q-12 80 12 140q316 -16 612 12q24 48 20 104q-12 32 -40 40q-676 -8 -1344 -12q-44 -16 -64 -60zM408 1324q16 -28 48 -40q464 12 940 12q52 4 92 40q8 40 4 80q-16 28 -40 40q-520 16 -1012 -28q-52 -40 -32 -104zM484 116q36 -60 120 -44 q72 68 144 148q24 64 -24 112q-44 12 -84 0q-72 -60 -140 -136q-24 -32 -16 -80zM696 1200q-4 -60 4 -120q12 -72 76 -124h56q36 28 48 68q4 120 -56 212q-40 28 -88 16q-32 -16 -40 -52zM792 1704q-12 -44 8 -84q40 -88 124 -136q32 -8 72 0q20 16 32 40q0 56 -16 96 q-44 88 -128 128q-64 8 -92 -44zM1152 1072q-12 -64 24 -116q24 -12 60 -12q92 68 120 168q8 56 0 108q-44 48 -100 32q-84 -68 -104 -180zM1296 220q24 -76 68 -144q32 -36 84 -68q48 -8 80 32q8 36 8 72q-32 116 -124 184q-40 8 -76 0q-44 -24 -40 -76z" />
<glyph unicode="&#x4eba;" d="M344 156q20 -48 80 -56q108 52 196 148q76 116 172 228q80 156 156 316q96 -160 216 -324q172 -196 376 -376q48 -32 116 -32q36 20 56 60q4 52 -24 84q-260 200 -456 444q-120 180 -224 360q60 244 60 508q-20 44 -64 60q-36 4 -64 -12q-36 -28 -40 -72 q-4 -152 -16 -300q-52 -280 -172 -536q-140 -220 -352 -416q-24 -36 -16 -84z" />
<glyph unicode="&#x4ebf;" d="M124 776q-4 -56 40 -92q32 -4 64 0q68 56 116 120q52 -316 112 -628q36 -40 100 -28q36 16 52 56q-64 412 -104 820q132 172 236 356q0 48 -16 84q-44 36 -100 20q-244 -348 -500 -708zM960 1476q-8 -68 56 -100q244 4 476 -48q-208 -420 -424 -844q-52 -140 -56 -304 q52 -72 152 -80q328 -4 652 28q44 20 88 44q24 208 20 428q-32 60 -96 52q-48 -8 -64 -52v-296q-292 -64 -584 -32q4 76 28 140q232 428 448 864q36 76 24 160q-40 48 -100 64q-280 44 -564 32q-40 -16 -56 -56z" />
<glyph unicode="&#x4ec0;" d="M184 736q-4 -60 40 -92q52 -20 100 12q60 116 136 228q4 -324 20 -656q16 -88 52 -180q28 -20 72 -20q48 16 64 60q-60 488 -40 1004q-20 24 -40 40q80 176 164 348q4 56 -28 88q-52 32 -100 4q-204 -420 -440 -836zM724 1004q20 -16 48 -32q200 44 420 44 q-20 -504 40 -1000q32 -36 88 -28q40 24 56 64q-28 484 -24 960q224 28 456 -12q44 16 60 60q4 48 -20 80q-72 28 -148 40q-164 4 -340 8q4 212 28 412q-28 64 -96 60q-28 -8 -48 -28q-56 -212 -40 -452q-248 -4 -468 -68q-40 -52 -12 -108z" />
<glyph unicode="&#x4ec1;" d="M188 696q32 -68 116 -60q104 96 200 232q-16 -384 32 -776q32 -36 100 -32q24 12 48 36q4 444 8 916q-16 32 -32 52q116 176 212 372q8 72 -32 116q-64 36 -120 -4q-52 -112 -108 -224q-196 -292 -424 -576v-52zM876 384q-4 -36 16 -72q32 -20 72 -36q404 0 792 -24 q76 12 104 76q4 56 -24 88q-440 52 -896 40q-52 -16 -64 -72zM996 1088q-8 -44 16 -84q32 -20 72 -36q304 -12 588 8q40 40 36 96q-16 36 -40 56q-288 24 -588 28q-60 -12 -84 -68z" />
<glyph unicode="&#x4ec5;" d="M200 704q4 -32 20 -68q60 -40 120 -8q100 116 188 240q24 -356 4 -732q24 -64 100 -64q32 16 64 48q4 456 4 904q-12 24 -28 44q52 200 132 384q0 44 -20 76q-56 44 -116 8q-88 -180 -140 -376q-152 -236 -328 -456zM820 688q148 -188 340 -320q-52 -84 -124 -168v-64 q24 -36 72 -48q28 8 60 12q84 96 160 172q212 -140 468 -200q52 48 32 116q-212 128 -420 240q212 360 408 732q12 60 12 116q-56 68 -144 80q-344 28 -696 12q-28 -8 -48 -28q-20 -32 -12 -76q8 -32 40 -60q336 8 660 -24q-152 -356 -388 -664q-164 124 -308 280 q-68 12 -108 -36q-8 -32 -4 -72z" />
<glyph unicode="&#x4ec6;" d="M224 768q-32 -52 4 -108q32 -32 84 -28q164 136 292 308q24 -408 20 -848q8 -36 36 -72q32 -16 76 -16q44 20 64 68q-16 484 -36 964q-28 28 -56 44q128 188 200 404q8 64 -20 112q-56 44 -112 12q-80 -236 -212 -456q-144 -196 -340 -384zM1348 1460q-4 -652 8 -1336 q12 -44 32 -88q60 -36 120 -4q16 368 0 772q132 -24 252 -104q44 0 76 28q8 28 20 52q-4 56 -52 84q-136 76 -284 120q-24 280 -4 556q-24 28 -52 36q-48 8 -84 -16q-24 -44 -32 -100z" />
<glyph unicode="&#x4ec7;" d="M164 860q-8 -52 24 -88q44 -24 96 -12q88 88 168 180q16 -400 -8 -796q8 -40 32 -76q36 -20 84 -16q48 24 60 72q4 452 0 904q-8 56 -36 96q92 176 196 356q-8 52 -32 92q-56 32 -108 0q-136 -276 -320 -536q-84 -76 -156 -176zM792 1060q-4 -68 64 -88q140 20 292 40 q-36 -180 -108 -360q-108 -180 -236 -352q-4 -40 24 -76q52 -36 116 -4q148 168 236 348q72 248 172 476q76 12 156 16q-24 -196 -12 -428q12 -112 36 -224q36 -116 92 -232q48 -52 108 -108q36 -28 88 -32q28 12 52 28q20 40 16 92q-68 56 -136 124q-80 196 -100 420 q8 236 36 464q-24 48 -72 56q-124 0 -240 -16q8 140 24 280q-16 48 -60 64q-48 4 -76 -20q-48 -172 -68 -352q-200 -8 -372 -64q-24 -20 -32 -52z" />
<glyph unicode="&#x4eca;" d="M220 856q8 -28 28 -52q32 -16 76 -16q356 288 664 668q140 -156 280 -316q204 -184 436 -292q52 -8 88 28q36 68 -8 120q-156 64 -292 168q-244 212 -416 468q-36 40 -88 32q-48 -12 -88 -44q-52 -68 -100 -140q-264 -296 -556 -548q-24 -32 -24 -76zM640 724 q12 -36 56 -52q220 16 460 16q20 -56 4 -128q-52 -140 -116 -272q-84 -104 -176 -208q-8 -52 28 -88q44 -24 96 -12q56 44 104 96q92 136 164 272q40 124 68 252q0 84 -12 160q-28 64 -80 80q-296 16 -564 -24q-44 -32 -32 -92zM728 1036q32 -56 108 -68q148 4 296 -16 q64 12 88 68q0 44 -20 72q-224 60 -448 28q-28 -32 -24 -84z" />
<glyph unicode="&#x4ecb;" d="M196 888q-4 -48 32 -88q28 -16 72 -16q116 88 244 208q236 236 416 480q360 -372 792 -704q72 -4 100 60q4 52 -16 88q-96 72 -188 136q-332 288 -620 600q-52 20 -100 28q-340 -420 -732 -792zM688 196q16 -40 52 -60q28 -8 64 0q32 24 48 60q4 392 0 772q-20 44 -64 52 q-36 4 -60 -12q-28 -32 -40 -68q16 -372 0 -744zM1112 1032q-4 -520 16 -1036q32 -36 88 -36q32 8 60 36q4 492 0 996q-12 60 -52 92q-48 16 -84 -8q-16 -20 -28 -44z" />
<glyph unicode="&#x4ecd;" d="M160 800q-8 -48 24 -84q32 -16 76 -16q108 108 208 244q-20 -408 12 -820q32 -20 64 -32q56 8 88 60q-20 448 12 896q-16 48 -40 84q108 192 152 412q-8 32 -28 52q-60 32 -108 -4q-52 -148 -120 -300q-152 -248 -340 -492zM784 300q-4 -36 12 -68q32 -40 88 -36 q28 16 52 36q128 244 212 504q72 292 132 592q-16 48 -8 100q144 32 304 16q-48 -228 -128 -456q8 -44 44 -84q88 -28 200 -16q32 -8 44 -44q0 -176 -52 -332q-48 -108 -108 -212q-96 -92 -156 -188q0 -40 24 -72q40 -24 92 -16q88 80 172 172l88 152q56 160 96 324 q8 108 0 216q-16 68 -64 116q-84 52 -184 48q84 216 108 464q-52 84 -148 96q-356 8 -668 -80q-40 -32 -32 -88q12 -36 48 -52q76 -4 156 12q-32 -380 -156 -744q-72 -184 -168 -360z" />
<glyph unicode="&#x4ece;" d="M160 312q-4 -40 16 -72q20 -12 52 -28q52 4 96 40q124 160 216 344q164 -164 364 -268q-84 -84 -104 -192q28 -56 96 -56q44 28 92 72q156 224 288 472q148 -200 328 -392q92 -60 188 -112q40 0 72 16q28 40 24 92q-160 132 -308 264q-100 168 -232 296q72 256 120 524 q12 108 -12 200q-48 52 -108 28q-40 -24 -44 -68q0 -92 -4 -188q-48 -284 -144 -540q-72 -148 -160 -292q-164 96 -312 232q-32 48 -60 92q100 260 132 544q-20 48 -68 68q-44 4 -76 -32q-48 -248 -124 -480q-120 -304 -328 -564z" />
<glyph unicode="&#x4ed3;" d="M380 904q-12 -56 32 -92q36 -12 84 -12q268 320 504 636q228 -272 504 -544q36 -20 80 -12q60 36 52 112q-280 312 -540 608q-60 32 -132 28q-48 -12 -80 -36q-260 -340 -504 -688zM660 864q24 -340 28 -696q16 -64 64 -116q40 -24 96 -40q364 16 728 44q64 24 100 88 q4 32 0 64q-24 32 -52 52q-352 -76 -748 -68q-40 280 -40 572q176 44 364 8q-64 -120 -52 -276q32 -56 104 -44q28 16 52 40q60 200 80 408q-28 48 -76 64q-324 16 -612 -48q-28 -20 -36 -52z" />
<glyph unicode="&#x4ed4;" d="M128 688q-4 -68 60 -96q40 -4 76 16q76 132 152 260q12 -328 0 -676q8 -32 32 -64q32 -16 76 -16q40 20 60 56q20 472 -24 944q84 196 112 420q-24 48 -72 56q-44 4 -72 -28q-24 -120 -60 -240q-152 -328 -340 -632zM776 784q24 -12 48 -28q244 8 484 28q8 -172 0 -348 q-36 -168 -144 -312q-12 -52 24 -88q32 -20 80 -16q92 80 144 188q40 120 64 248q-12 168 -8 336q188 32 396 12q60 28 56 104q-16 32 -44 52q-204 16 -424 0q-24 76 -76 136q72 120 140 244v100q-36 72 -108 108q-156 72 -332 76q-44 -12 -60 -60q-12 -48 28 -84 q152 -32 308 -84q-8 -56 -40 -108q-80 -64 -136 -152q44 -104 96 -200q-256 0 -492 -40q-36 -52 -4 -112z" />
<glyph unicode="&#x4ed6;" d="M212 788q-8 -52 32 -88q64 -32 120 16q64 108 148 220q-16 -408 32 -800q36 -32 92 -24q32 16 48 44q-12 440 -16 884q-12 40 -32 76q128 160 192 348q-20 40 -68 60q-44 4 -72 -20q-220 -360 -476 -716zM796 992q-8 -40 16 -72q24 -24 64 -24q20 -196 92 -384 q40 -68 84 -136q124 -124 284 -196q96 -40 212 -64q124 -16 236 20q24 28 32 60q-8 64 -64 84q-116 -4 -224 4q-76 24 -148 52q-108 64 -204 148q-96 140 -128 304q-12 92 -4 180q96 36 200 64q-12 -164 4 -320l56 -28q44 4 72 36q24 184 52 360q100 24 212 28 q-28 -136 -124 -252q-8 -52 28 -88q32 -16 76 -16q60 36 92 96q68 140 116 284q16 68 -24 116q-44 16 -84 24q-148 0 -288 -32q0 152 -12 272l-56 28q-80 0 -100 -68q16 -132 0 -268q-120 -32 -228 -76q-8 60 -20 116q-24 28 -52 36q-52 8 -84 -24q-20 -84 -4 -188 q-56 -20 -80 -76z" />
<glyph unicode="&#x4ed7;" d="M180 824q-24 -52 16 -100q36 -20 88 -16q116 124 224 240q8 -404 4 -828q4 -36 36 -68q48 -28 100 0q24 32 36 72q-20 444 -8 912q-12 52 -44 76q128 216 188 448q-20 44 -64 60q-40 0 -68 -16q-84 -180 -176 -368q-152 -220 -332 -412zM840 108q16 -44 64 -60 q132 32 232 132q72 76 132 156q60 -68 136 -144q140 -100 308 -156q76 -16 140 20q32 56 4 108q-164 48 -304 120q-112 104 -200 216q108 276 132 588q180 -4 356 8q52 60 16 132q-168 40 -352 20q-8 168 -36 320q-20 12 -40 28q-56 12 -88 -28q-20 -148 4 -316 q-220 -8 -432 -32q-36 -28 -32 -76q20 -56 84 -72q172 12 360 12q-8 -208 -84 -400q-52 88 -92 176q-44 48 -104 28q-32 -20 -44 -60q52 -176 164 -328q-24 -52 -52 -108q-112 -116 -252 -208q-28 -28 -20 -76z" />
<glyph unicode="&#x4ed8;" d="M168 728q-8 -52 32 -88q64 -28 120 20q72 116 160 228q40 -344 32 -720q8 -32 36 -64q32 -20 76 -16q40 16 56 56q0 360 -28 704q-12 120 -56 208q92 176 152 364q-12 76 -84 88q-36 -4 -60 -28q-48 -128 -108 -252q-148 -256 -328 -500zM792 1176q-12 -40 12 -76 q332 -40 700 -24q4 -484 -36 -976q20 -52 80 -64q36 12 72 32q20 108 36 208q12 400 16 796q84 16 176 20q24 20 40 52q0 44 -20 76q-96 40 -204 12q-16 172 -32 336q-24 20 -48 32q-44 4 -76 -20q-16 -24 -28 -56q8 -136 16 -280q-340 -4 -668 -28q-24 -16 -36 -40z M912 820q76 -116 164 -224q24 -8 56 -24q56 12 80 60q4 52 -16 92q-64 76 -132 148q-32 28 -76 28q-64 -12 -76 -80z" />
<glyph unicode="&#x4ed9;" d="M216 744q0 -68 64 -96q36 0 68 16q92 152 200 268q8 -384 -4 -760q12 -20 28 -44q56 -28 116 12q44 432 12 904q-20 40 -56 52q108 184 180 388q-24 44 -64 56q-36 0 -64 -16q-224 -392 -480 -780zM820 740q8 -172 20 -348q16 -88 52 -172q40 -28 96 -40q344 -4 676 36 q20 -28 48 -44q48 -12 88 16q16 32 28 68q4 308 -8 608q-24 24 -48 32q-48 8 -84 -20q-40 -240 -24 -492q-144 -40 -288 -20q12 492 4 988q-40 68 -116 44q-40 -24 -44 -68v-980q-96 -20 -200 -8q-60 220 -36 460q-16 48 -60 56q-40 4 -68 -12q-32 -44 -36 -104z" />
<glyph unicode="&#x4ee3;" d="M244 764q-4 -48 28 -76q28 -16 68 -20q124 88 212 232q4 -424 40 -848q20 -20 52 -36q68 -4 96 52q-12 472 -20 944q-12 32 -40 52q92 192 180 380q-20 68 -84 84q-40 -8 -72 -40q-80 -152 -148 -300q-148 -212 -312 -424zM888 956q28 -12 56 -28q144 20 284 32 q68 -312 212 -600q88 -188 252 -328q44 0 76 24q24 40 20 88q-52 92 -128 152q-104 208 -196 412q-52 128 -72 268q204 24 400 80q12 32 12 68q-20 48 -64 60q-188 -12 -364 -48q-32 180 -60 352q-68 44 -128 -8q-20 -176 20 -360q-164 -16 -316 -44q-44 -56 -4 -120z M1504 1496q80 -88 172 -172q52 -28 104 0q32 44 24 100q-76 108 -184 188q-48 20 -92 -4q-52 -48 -24 -112z" />
<glyph unicode="&#x4ee4;" d="M236 876q-36 -60 12 -120q48 -28 104 -8q288 276 556 544q48 76 116 156q176 -220 400 -436q156 -128 324 -244q28 0 60 4q28 24 40 56q4 52 -20 88q-236 168 -444 352q-144 200 -300 384q-64 24 -120 4q-80 -116 -164 -236q-276 -288 -564 -544zM548 620q-4 -64 56 -88 q352 28 688 8q-116 -140 -252 -252q-60 48 -120 84q-36 4 -68 -4q-56 -52 -24 -120q156 -112 316 -256q32 -24 80 -16q28 16 48 44q8 40 0 76l-92 92q132 120 244 252q40 68 76 144q0 60 -44 100q-56 16 -108 28q-396 4 -772 -40q-20 -20 -28 -52zM896 1020 q76 -128 180 -212q68 0 92 68q-8 52 -28 92q-64 112 -172 160q-36 -4 -60 -24q-24 -36 -12 -84z" />
<glyph unicode="&#x4ee5;" d="M212 408q20 -52 84 -52q324 148 624 356q36 64 -4 120q-32 20 -68 16q-140 -84 -280 -164q-4 352 -56 676q-36 40 -84 32q-60 -24 -68 -92q32 -344 60 -704q-92 -56 -188 -108q-28 -32 -20 -80zM768 324q-4 -40 16 -76q36 -28 88 -24q116 72 228 152q160 156 288 304 q172 -256 324 -508q56 -32 116 0q12 28 16 60q-80 176 -176 336q-88 132 -188 236q104 172 188 344q76 152 80 312q-28 32 -76 40q-28 -8 -52 -20q-96 -252 -216 -500q-172 -248 -376 -452q-148 -84 -260 -204zM884 1296q116 -144 220 -300q48 -20 100 4q28 40 24 92 q-88 188 -240 312q-48 8 -80 -16q-32 -36 -24 -92z" />
<glyph unicode="&#x4eea;" d="M204 852q-8 -76 60 -112q40 -8 80 8q100 116 196 208q-12 -436 16 -868q32 -28 84 -32q52 16 76 64q8 468 0 920q-8 60 -36 104q96 160 180 320q-8 44 -24 80q-56 40 -124 12q-136 -244 -300 -476q-120 -96 -208 -228zM844 200q-12 -52 28 -92q44 -16 100 -8 q184 104 344 248q152 -128 320 -220q76 -4 104 64q0 52 -32 84q-140 72 -260 172q100 132 204 252q76 144 156 288q32 84 44 172q-12 32 -32 52q-48 24 -96 0q-104 -224 -220 -440q-84 -92 -172 -188q-60 40 -96 100q-128 248 -208 520q-40 24 -84 16q-40 -24 -48 -64 q0 -80 16 -156q108 -280 280 -544q-180 -136 -348 -256zM1176 1480q100 -112 200 -204q60 -12 100 28q12 32 12 64q-68 128 -196 212q-52 8 -92 -16q-32 -28 -24 -84z" />
<glyph unicode="&#x4eec;" d="M92 760q0 -44 28 -80q28 -12 68 -16q108 104 180 252q0 -316 20 -644q12 -104 56 -200q36 -20 84 -12q40 28 48 76q-24 144 -36 292q-12 340 0 676q-20 40 -40 68q76 156 156 324q8 36 0 72q-24 36 -60 48q-40 4 -68 -16q-200 -420 -436 -840zM752 1160q36 -512 56 -1040 q24 -48 92 -48q40 16 64 44q-16 524 -52 1036q-24 72 -104 68q-48 -12 -56 -60zM852 1376q104 -124 240 -180q64 -8 96 40q8 44 -12 80q-100 108 -212 168q-68 20 -112 -24q-12 -40 0 -84zM1288 1372q24 -28 64 -40q208 -4 412 -28q40 -64 28 -160q-28 -448 -76 -888 q-80 -52 -132 -128q-8 -28 0 -60q28 -44 88 -40q56 12 104 40q80 76 116 172q64 560 48 1128q-12 48 -56 76q-240 52 -488 52q-48 -8 -88 -28q-40 -40 -20 -96z" />
<glyph unicode="&#x4ef0;" d="M152 768q0 -40 24 -76q32 -16 80 -16q128 108 204 256q20 -368 -4 -752q12 -48 60 -72q40 -4 72 12q24 40 36 84q12 452 0 900q-16 24 -36 36q104 204 140 440q-24 36 -60 48q-52 8 -80 -28q-52 -148 -104 -300q-144 -280 -332 -532zM752 636q16 -52 44 -112 q36 -24 76 -32q172 132 324 296q32 60 -4 116q-40 24 -88 16q-100 -84 -184 -184q-36 272 0 568q128 84 260 176q16 32 16 68q-20 44 -64 64q-196 -76 -352 -208q-52 -380 -28 -768zM1164 1248q16 -52 76 -68q44 -536 4 -1092q12 -60 68 -80q40 0 76 20l32 120 q4 532 -12 1068q124 40 268 32q36 -88 56 -188q4 -100 0 -204q-20 -124 -56 -228q-48 32 -92 48q-48 4 -76 -16q-12 -24 -24 -52q0 -44 28 -76q84 -48 172 -108q64 0 112 52q40 80 64 160q40 224 28 460q-28 136 -80 260q-48 48 -108 60q-124 4 -236 -16q-140 -32 -268 -80 q-32 -28 -32 -72z" />
<glyph unicode="&#x4ef6;" d="M140 704q-4 -48 32 -80q28 -16 72 -16q112 100 184 224q-12 -364 -20 -748q8 -24 32 -48q64 -28 124 12q32 552 24 1124q60 188 132 372q-20 48 -64 68q-56 4 -92 -36q-96 -256 -188 -504q-100 -196 -236 -368zM736 952q12 -36 56 -52q40 0 76 16q60 96 108 196 q164 44 344 16q8 -148 -8 -296q-264 -8 -512 -52q-40 -48 -8 -108q28 -24 64 -36q220 20 448 28q8 -312 -8 -620q8 -24 28 -48q40 -20 92 -12q36 28 48 72q-4 320 12 616q180 -4 352 -24q56 16 80 68q4 52 -28 84q-196 40 -404 36q-8 160 12 312q96 -12 204 -12q52 24 56 88 q-8 32 -28 56q-116 32 -240 24q-8 152 -4 300q-20 44 -52 60q-48 4 -80 -12q-24 -20 -32 -56q4 -140 0 -296l-256 -16q48 148 48 296q-40 48 -100 36q-136 -320 -268 -664z" />
<glyph unicode="&#x4ef7;" d="M100 764q24 -60 100 -56q124 104 236 240q4 -428 12 -864q12 -44 64 -68q40 -4 72 12q20 24 32 52q-16 468 -8 928q-16 52 -64 72q124 172 224 372q-8 52 -20 92q-44 40 -96 24q-144 -276 -336 -520l-200 -200q-24 -36 -16 -84zM776 1092q-40 -68 12 -128q32 -12 76 -12 q124 108 268 216q124 136 228 276q152 -208 356 -412q60 -48 136 -92q48 -12 88 20q20 40 16 88q-140 116 -272 244q-136 200 -276 372q-64 8 -112 -16q-96 -160 -228 -308q-136 -124 -292 -248zM952 68q24 -32 64 -48q48 0 84 32q64 180 92 372q16 232 20 468q-8 64 -56 92 q-32 12 -64 0q-36 -28 -48 -64q0 -264 -20 -536q-52 -152 -72 -316zM1496 12q32 -40 100 -36q32 16 52 52q8 492 -24 956q-32 16 -64 28q-40 -4 -64 -32q-44 -480 0 -968z" />
<glyph unicode="&#x4efb;" d="M192 752q-8 -44 16 -84q56 -40 120 -8q88 136 168 272q24 -372 28 -768q8 -32 32 -60q32 -20 80 -16q36 24 52 60q-16 460 -28 924q-16 36 -40 60q104 168 160 356q-20 48 -60 60q-48 4 -80 -16q-200 -404 -448 -780zM832 192q24 -24 56 -36q444 12 884 -8q32 12 60 32 q36 64 -8 116l-432 32q8 204 0 420q184 12 384 4q52 28 60 88q-12 56 -60 72h-368q4 196 -24 380q96 72 208 128q20 32 24 68q-20 64 -76 68q-312 -132 -604 -288q-16 -48 16 -88l48 -24q132 40 248 68v-316q-208 -12 -396 -48q-36 -40 -20 -96q36 -48 100 -48 q140 20 292 28q28 -192 12 -404q-196 -12 -384 -40q-44 -44 -20 -108z" />
<glyph unicode="&#x4efd;" d="M244 844q-4 -32 12 -64q36 -36 100 -28q80 100 152 164q-4 -388 -4 -772q20 -52 84 -64q32 12 64 28q28 400 24 804q-8 112 -36 212q96 180 184 364q0 28 -4 52q-32 52 -88 48q-28 -8 -48 -20q-184 -376 -440 -724zM840 224q40 -44 112 -36q72 60 136 124 q116 164 196 348q20 72 32 144q84 16 164 -4q-16 -240 -96 -448q-64 -100 -148 -196q-8 -44 16 -80q24 -16 60 -28q84 24 148 108q68 116 116 240q64 212 60 452q-12 76 -68 112q-296 28 -576 -12q-24 -20 -32 -48q-8 -44 24 -80q84 -28 172 -24q-32 -76 -52 -164 q-100 -164 -252 -308q-28 -44 -12 -100zM880 1084q-8 -44 16 -80q48 -36 108 -12q136 168 228 372q4 56 -32 88q-48 20 -96 0q-100 -184 -224 -368zM1296 1472q12 -80 60 -144q160 -228 360 -400q64 0 92 56q4 52 -20 88q-188 196 -348 444q-44 36 -96 20q-36 -24 -48 -64z " />
<glyph unicode="&#x4eff;" d="M176 868q32 -64 112 -52q100 84 184 188q16 -404 12 -832q8 -44 40 -84q44 -28 96 0q16 20 28 40q4 484 -8 976q-12 32 -36 44l208 360q0 40 -16 72q-56 44 -116 12q-148 -260 -344 -508q-68 -64 -144 -136q-20 -32 -16 -80zM800 316q-16 -48 12 -96q36 -24 88 -20 q120 112 228 236q140 224 236 472q68 -4 124 -56q36 -60 56 -132q4 -124 -16 -244l-64 -152q-40 -52 -92 -96q-84 -28 -164 -56q-36 -24 -36 -72q4 -28 28 -56q104 -28 208 16q68 40 132 92q56 80 104 156q40 120 68 240q0 132 -16 252q-28 100 -108 180q-88 60 -184 92 q-4 68 12 124q232 -8 440 16q16 36 20 76q-12 32 -32 56q-212 32 -436 12q-4 140 -48 248q-32 16 -64 16q-52 -16 -68 -64q16 -100 20 -200q-200 -16 -380 -36q-48 -52 -12 -112q36 -32 88 -44q144 28 304 24q4 -48 0 -100q-72 -228 -180 -444q-128 -164 -268 -328z" />
<glyph unicode="&#x4f01;" d="M240 832q40 -68 128 -52q148 108 304 224q188 176 352 364q144 -160 316 -312q172 -136 368 -240q48 -4 88 24q20 40 20 88q-164 136 -352 252q-232 224 -412 428q-48 0 -88 -12q-48 -64 -84 -136q-156 -160 -324 -324q-152 -112 -300 -212q-24 -36 -16 -92zM452 88 q20 -44 72 -56q536 12 1080 16q56 16 76 68q0 40 -12 72q-32 24 -60 40q-236 -8 -468 -16q-36 148 -4 296q152 -4 320 -8q72 24 76 104q-16 36 -36 60q-176 24 -364 12q-16 136 -12 276q-28 76 -108 84q-56 -8 -72 -64q16 -372 24 -760q-88 -12 -180 -8q-8 228 -48 436 q-36 24 -76 24q-56 -16 -72 -72q8 -188 20 -384q-76 0 -136 -32q-28 -36 -20 -88z" />
<glyph unicode="&#x4f0d;" d="M120 644q-8 -48 28 -84q56 -32 112 0q80 184 192 320q-8 -356 -24 -712q4 -68 36 -124q52 -24 104 -4q24 28 36 56q0 472 12 956q-20 48 -36 88q88 188 156 376q4 52 -24 84q-36 24 -76 20q-32 -8 -48 -36q-56 -160 -124 -316q-164 -316 -344 -624zM688 112 q12 -40 60 -56q376 16 744 24q160 -16 344 -32q36 12 68 28q36 64 -4 120q-176 36 -356 40q24 176 68 360v216q-20 60 -60 116q-96 64 -220 52q12 200 84 372q144 -12 292 -32q48 24 64 76q-8 40 -28 64q-204 56 -424 64q-156 4 -304 -12q-124 -8 -204 -76q-12 -44 12 -84 q24 -20 64 -32q160 44 348 40q-20 -188 -84 -380q-180 16 -316 -48q-32 -48 -4 -100q16 -16 40 -28q116 12 240 20q-68 -300 -160 -600q-136 8 -248 -36q-20 -32 -16 -76zM1132 224q60 308 164 604q80 12 148 -28q8 -48 12 -100q-28 -244 -92 -472q-120 4 -232 -4z" />
<glyph unicode="&#x4f0f;" d="M200 712q8 -24 20 -52q32 -28 84 -28q140 112 220 252q4 -372 8 -752q8 -32 28 -56q32 -20 76 -20q28 8 52 32q16 476 -4 948q-16 24 -36 40q96 192 160 392q0 40 -4 72q-28 28 -64 40q-40 4 -64 -20q-72 -152 -128 -316q-152 -276 -348 -532zM876 1016q12 -36 52 -52 q156 -4 304 12q16 -48 0 -108q-48 -172 -116 -344q-92 -176 -224 -324v-56q16 -40 64 -56q32 0 64 12l88 88q124 188 204 392q56 -116 124 -244q84 -132 212 -252q48 -24 104 -8q20 28 36 52q0 44 -16 76l-156 160q-80 112 -132 228q-68 180 -68 380q192 -8 372 24 q40 60 0 120q-180 24 -364 24q8 208 -16 396q-36 32 -84 28q-28 -8 -48 -32q-36 -184 -16 -396q-156 -12 -320 -8q-76 -28 -64 -112zM1568 1476q12 -44 40 -88q68 -72 148 -124q32 0 56 12q36 40 32 96q-60 120 -176 180q-44 4 -72 -20q-16 -28 -28 -56z" />
<glyph unicode="&#x4f10;" d="M176 788q-4 -40 16 -72q52 -48 116 -16q96 104 172 208q4 -384 16 -772q16 -40 64 -52q72 -8 100 52q-20 440 -12 868q-8 40 -40 56q80 164 184 316q12 68 -28 116q-52 28 -104 8q-68 -132 -144 -264q-156 -228 -340 -448zM768 1004q-4 -72 68 -92q164 28 328 80 q52 -228 136 -448q-180 -168 -340 -300q-4 -44 24 -80q48 -32 104 -12q160 112 304 240q76 -128 164 -252q68 -60 140 -116q56 -36 124 -28q28 20 48 52q8 44 -12 76q-76 52 -156 104q-116 144 -200 292q152 172 260 364q0 52 -28 84q-36 16 -72 16q-124 -140 -236 -304 q-72 168 -100 356q188 52 372 112q32 40 28 92q-16 32 -48 48q-212 -40 -400 -92q-44 192 -60 388q-20 20 -44 28q-60 12 -92 -36q-28 -76 -12 -168q40 -128 52 -260q-160 -48 -316 -92q-28 -20 -36 -52zM1516 1584q-4 -36 16 -68q84 -92 192 -152q40 -8 72 12q36 40 32 92 q-76 88 -176 164q-36 20 -72 16q-48 -16 -64 -64z" />
<glyph unicode="&#x4f11;" d="M116 744q-8 -48 32 -84q28 -16 68 -16q108 104 188 248q40 -380 12 -780q8 -48 56 -68q48 -4 88 16q48 456 12 936q-16 68 -36 136l160 312q0 40 -16 72q-48 36 -104 20q-216 -396 -460 -792zM632 428q0 -40 20 -68q40 -32 96 -20q120 88 236 208q100 116 188 236 q4 -372 24 -748q48 -28 108 -16q32 24 40 56q0 384 8 756q160 -244 360 -464q56 -44 124 -84q40 4 72 24q36 64 4 124q-116 88 -212 200q-188 232 -320 480q172 12 360 -4q52 20 76 72q-4 68 -56 92q-208 4 -404 0q-24 148 -4 296q-28 60 -92 64q-32 -8 -60 -28 q-36 -152 -12 -336q-196 4 -384 -40q-20 -16 -28 -40q-4 -48 20 -80q156 -20 356 -4q-16 -104 -88 -200q-204 -248 -432 -476z" />
<glyph unicode="&#x4f17;" d="M156 120q-12 -76 48 -108q56 -4 96 28q68 76 124 160q204 -100 420 -176q48 -4 88 16q32 56 0 112q-200 100 -400 192q64 168 152 324q4 52 -12 92q-48 36 -108 16q-84 -136 -148 -288q-120 -188 -260 -368zM488 980q-12 -72 44 -104q44 -8 88 16q124 160 256 300 q100 -52 196 -132q160 -92 340 -144q88 -20 160 28q12 40 8 76q-244 104 -476 212q-76 48 -120 108q92 164 112 340q-36 52 -100 40q-44 -20 -68 -64l-72 -184q-172 -248 -368 -492zM1032 -20q12 -36 48 -52q32 0 64 4q96 128 140 268q136 -116 312 -224q124 -64 272 -56 q40 40 36 96q-196 112 -412 220q-92 92 -152 180q40 176 56 348q-28 48 -84 44q-32 -4 -56 -24q-96 -412 -224 -804z" />
<glyph unicode="&#x4f18;" d="M96 848q-4 -40 20 -72q32 -24 84 -24q96 80 184 200q20 -388 4 -812q16 -60 80 -80q60 8 88 60q12 468 0 932q-20 40 -40 68q88 172 168 356q0 40 -8 68q-32 32 -68 40q-36 -4 -60 -24q-88 -204 -204 -408q-132 -148 -248 -304zM688 940q40 -28 92 -40h188 q8 -112 -16 -236q-88 -288 -140 -592q8 -28 40 -56h60q40 24 64 72q88 420 192 812q-20 -304 -24 -620q16 -96 104 -152q88 -48 200 -60q236 20 464 64q48 52 36 124q-52 116 -100 232q-40 44 -96 32q-32 -12 -44 -44q-8 -112 44 -200q-136 -40 -288 -44q-96 8 -156 68 q-4 196 4 384q4 124 44 232q172 -4 356 -4q32 24 52 56q4 60 -28 96q-268 28 -552 12q20 240 56 484q-16 28 -40 44q-68 24 -116 -36q-36 -256 -100 -500h-276q-56 -56 -20 -128zM1408 1376q28 -68 92 -132q72 -12 124 36q4 32 4 64q-28 92 -104 132q-52 4 -92 -20 q-32 -32 -24 -80z" />
<glyph unicode="&#x4f19;" d="M284 700q-4 -44 16 -84q44 -36 108 -12q84 88 164 204q24 -300 0 -616q0 -60 56 -92q36 -8 72 8q24 24 40 52q20 460 -20 896q112 204 148 420q-20 44 -64 56q-40 0 -68 -20q-48 -112 -84 -228q-152 -320 -368 -584zM924 1040q40 -140 100 -272q28 -32 72 -44q52 8 76 56 q-52 200 -116 392q-32 40 -80 28q-24 -4 -40 -24q-24 -60 -12 -136zM1056 188q8 -20 28 -40q36 -20 88 -8q52 64 80 136q204 -68 400 -164q72 -12 116 28q4 40 4 76q-224 132 -472 232v76q116 112 244 200q108 120 188 256q20 60 -20 104q-36 20 -76 12q-132 -164 -276 -308 q4 336 8 696q-48 64 -120 32q-24 -20 -32 -48q8 -412 -44 -800q-56 -240 -116 -480z" />
<glyph unicode="&#x4f1a;" d="M236 844q-32 -52 4 -108q32 -36 84 -32q200 144 380 348q160 184 296 372q108 -164 252 -316q236 -228 504 -384q60 4 92 60q0 36 -4 68q-136 112 -276 200q-168 156 -316 304q-96 140 -176 272q-72 44 -140 8q-76 -116 -148 -228q-244 -316 -552 -564zM472 500 q20 -12 52 -24q132 16 272 32q-120 -192 -272 -376q-12 -44 12 -84q24 -12 48 -28q364 24 728 60q76 -60 156 -104q72 -8 100 56q4 48 -16 80q-152 116 -276 272q-36 20 -80 16q-56 -24 -60 -84q28 -52 36 -100q-188 -8 -372 -12q96 160 228 316q244 8 484 -12q72 36 56 112 q-24 40 -64 56q-340 12 -676 0q-184 -12 -352 -60q-40 -56 -4 -116zM700 876q16 -56 80 -72q232 4 456 32q24 32 32 64q-8 68 -72 84q-256 20 -476 -40q-20 -28 -20 -68z" />
<glyph unicode="&#x4f1e;" d="M288 1092q-4 -60 56 -84q56 -4 100 28q228 236 460 468q368 -240 740 -488h60q60 40 40 112q-356 236 -700 484q4 44 12 92q-24 40 -64 56q-44 4 -72 -16q-336 -312 -632 -652zM396 536q24 -32 68 -40q212 8 416 -16q28 -256 20 -536q28 -64 116 -56q40 24 60 56 q-12 260 -12 516q232 4 468 -16q36 16 68 36q8 28 8 56q-40 56 -108 64q-228 8 -444 24q-20 180 -4 372q-28 44 -68 68q-68 16 -108 -44v-380q-232 8 -456 -4q-52 -44 -24 -100zM460 916q44 -104 148 -184q28 -16 72 -16q32 16 52 44q4 60 -28 108q-52 84 -124 136 q-72 28 -116 -36q-8 -24 -4 -52zM1240 724q16 -36 60 -44q40 0 72 16q88 132 120 276q-24 44 -68 52q-32 4 -56 -12q-84 -96 -128 -212v-76z" />
<glyph unicode="&#x4f1f;" d="M256 968q-12 -56 32 -96q24 -8 56 -8q80 48 152 104q12 -364 24 -736q12 -28 36 -52q48 -24 96 0q20 24 28 48q-16 464 -16 920q84 104 180 196q36 52 40 112q-16 40 -52 60q-52 8 -84 -16q-232 -264 -492 -532zM816 660q-8 -68 52 -96q148 8 292 0q-4 -284 0 -560 q24 -32 60 -40q52 -4 92 28q4 272 4 568q136 24 288 12q32 -16 44 -56q16 -152 -40 -288q-60 12 -120 12q-36 -8 -64 -40q-12 -40 4 -80q92 -64 220 -52q56 8 100 48q32 76 56 144q4 156 4 316q-24 108 -124 156q-176 4 -352 0q-16 104 -8 212q100 8 208 4q32 20 48 52 q4 68 -40 100q-104 8 -212 4q-8 92 -4 184q96 36 216 20q44 44 36 104q-12 36 -40 52h-196q-16 84 -24 168q-24 28 -44 40q-64 12 -96 -28q-24 -92 -32 -192h-188q-44 -20 -52 -60q-4 -64 48 -96h200q12 -84 8 -180q-76 -4 -156 -4q-52 -20 -60 -76q4 -56 52 -88 q84 8 164 -8v-192q-144 -20 -288 -32q-36 -20 -56 -56z" />
<glyph unicode="&#x4f20;" d="M248 720q-4 -44 24 -80q48 -28 104 -4q104 128 196 240q-16 -380 8 -768q24 -68 104 -64q44 20 60 64q-20 440 -8 884q-12 32 -40 52q124 176 220 372q4 64 -20 104q-60 36 -116 4q-60 -124 -124 -252q-196 -280 -408 -552zM888 948q-28 -64 24 -112q124 -16 252 -16 q-20 -116 24 -212q224 16 436 -36q-132 -164 -240 -348q-72 20 -140 12q-36 -28 -40 -76q8 -28 28 -52q172 -84 376 -104q16 16 40 36q12 48 -12 76q-64 32 -92 72q148 200 264 408v64q-32 48 -84 64q-192 32 -388 40q-8 32 -4 68q168 24 348 32q40 40 32 96q-16 28 -44 44 l-320 -8q-12 96 0 196q116 36 268 20q28 28 36 56q4 52 -28 80q-128 24 -256 32q8 124 -12 224q-28 28 -60 36q-52 -4 -80 -52q8 -120 -28 -224h-88q-60 -32 -40 -104q52 -52 132 -60q8 -112 -20 -212q-156 4 -284 -40z" />
<glyph unicode="&#x4f24;" d="M140 836q-8 -56 24 -92q32 -16 76 -16q112 124 208 268q16 -464 24 -936q24 -24 60 -40q36 0 68 16q24 40 36 76q4 532 -44 1044q-24 4 -36 20q84 160 152 324q8 56 -28 92q-56 40 -108 -4q-104 -248 -248 -488q-92 -128 -184 -264zM860 1056q32 -44 88 -32q36 28 60 68 q0 84 8 164q424 16 860 4q36 32 44 84q-12 40 -40 68q-412 40 -840 16q-12 132 -28 240q-56 28 -108 -4q-24 -28 -32 -72q-20 -276 -12 -536zM964 60q36 -68 120 -48q140 336 236 704h316q-4 -268 -84 -512q-52 -80 -92 -164q-8 -44 24 -76q40 -16 88 -8q48 32 88 76 q72 200 120 400q20 180 20 368q-40 68 -108 80q-164 8 -328 4q-8 104 8 216q-16 40 -52 52q-60 12 -92 -28q-32 -116 -44 -240q-100 0 -188 -24q-56 -48 -20 -116q68 -44 156 -28q-76 -320 -168 -656z" />
<glyph unicode="&#x4f2a;" d="M140 828q8 -72 84 -92q136 80 228 224q-16 -424 16 -836q36 -24 92 -20q36 20 52 56q4 468 12 928q-16 32 -36 44q96 176 172 364q8 80 -60 108q-48 4 -80 -20q-76 -168 -152 -332q-160 -216 -328 -424zM812 384q-8 -40 12 -72q20 -16 52 -32q56 0 96 44q168 228 312 472 l112 272q172 20 320 -36l24 -64q0 -152 -28 -304q-44 -128 -100 -260q-88 -136 -200 -272q-8 -52 20 -92q32 -20 84 -16q84 60 140 136q92 152 160 308q44 148 80 300q12 160 -12 304q-32 56 -68 96q-60 40 -128 52l-240 4q28 160 80 312q-12 64 -68 84q-48 0 -76 -24 q-52 -192 -120 -376q-224 4 -440 -40q-48 -60 -4 -120q188 -20 400 4q-40 -120 -104 -244q-140 -220 -304 -436zM964 1436q56 -88 152 -144q76 -4 104 64q0 40 -16 68q-64 76 -148 128q-36 4 -60 -12q-44 -40 -32 -104zM1264 648q76 -120 200 -204q36 -8 72 8q40 40 32 100 q-80 96 -172 180q-36 24 -76 20q-68 -24 -56 -104z" />
<glyph unicode="&#x4f2f;" d="M196 728q0 -32 20 -64q36 -24 92 -20q124 124 220 256q-4 -412 8 -820q64 -36 136 0q40 472 20 948q-24 32 -36 64q120 192 196 400q-24 60 -84 80q-40 4 -68 -24q-92 -220 -212 -424q-140 -204 -292 -396zM968 128q20 -40 68 -56q372 12 736 -8l40 36q40 504 -24 1020 q-276 44 -572 24q120 176 252 352q4 76 -64 100q-44 4 -76 -20q-156 -220 -340 -432q-28 -492 -20 -1016zM1120 552q264 28 536 4v-324q-256 12 -520 8q-24 152 -16 312zM1120 964q260 40 528 16q16 -120 12 -252q-260 4 -524 -8q-24 120 -16 244z" />
<glyph unicode="&#x4f30;" d="M144 716q24 -64 100 -56q144 120 240 280q8 -440 36 -876q24 -16 60 -28q72 4 92 68q-8 492 -36 988q-16 16 -32 24q136 208 188 448q-20 40 -60 56q-36 4 -64 -8q-136 -312 -328 -604q-84 -108 -180 -212q-20 -32 -16 -80zM892 1068q16 -40 64 -56q180 20 372 20 q8 -156 4 -316l-224 -32q-48 -36 -60 -92q24 -248 44 -500q16 -20 40 -48q288 -28 592 -8q36 12 64 44q24 304 0 596q-144 40 -296 40q-4 156 4 316q176 16 352 -8q48 16 64 68q0 72 -56 96q-184 4 -356 20q8 204 -16 392l-56 28q-44 -4 -76 -36q-24 -188 -12 -400 q-212 8 -416 -28q-40 -36 -32 -96zM1216 532q196 28 416 16q20 -160 0 -340q-196 -36 -396 -16q0 172 -20 340z" />
<glyph unicode="&#x4f34;" d="M164 744q8 -52 56 -72q44 -4 80 12q64 100 136 192q36 -352 8 -724q12 -72 92 -88q32 12 60 28q28 480 24 940q-24 40 -60 56q84 192 168 376q-4 72 -64 96q-48 8 -80 -24q-120 -268 -248 -524q-96 -128 -172 -268zM764 660q-4 -40 24 -72q200 -8 424 0q-4 -244 -12 -488 q8 -32 28 -60q28 -16 68 -20q48 12 68 56q0 264 16 532q208 12 404 -12q40 4 72 36q28 56 0 108q-48 28 -100 36q-184 -8 -364 -12q-24 76 -12 160q104 44 240 28q32 16 48 44q8 44 -12 80q-28 24 -52 32q-108 0 -208 -12q-8 248 -28 492q-28 20 -48 28q-76 8 -96 -60 q0 -220 4 -456q-164 -12 -324 -32q-16 -12 -28 -40q-8 -48 20 -88q152 -16 332 -8l-4 -176q-228 4 -432 -48q-20 -20 -28 -48zM908 1484q20 -148 92 -280q16 -28 52 -40q48 -8 84 28q-8 176 -88 332q-56 48 -112 8q-20 -20 -28 -48zM1460 1244q-8 -44 28 -76q48 -28 100 0 q100 156 188 328q4 44 -16 72q-28 24 -56 32q-40 0 -68 -24q-100 -160 -176 -332z" />
<glyph unicode="&#x4f36;" d="M136 808q4 -40 36 -68q28 -12 64 -16q96 76 156 176q16 -400 -4 -808q12 -52 68 -76q40 0 76 16q16 28 28 56q8 496 -4 988q-16 28 -36 40q96 180 180 372q8 84 -52 120q-48 16 -88 -12q-88 -224 -204 -440q-116 -176 -220 -348zM652 892q24 -56 92 -52q80 48 140 108 q188 248 352 476q152 -224 356 -432q100 -72 208 -148q44 0 80 20q32 52 8 104q-140 124 -280 232q-156 204 -296 408q-72 48 -140 8q-224 -336 -492 -632q-32 -36 -28 -92zM828 640q16 -52 76 -64q284 36 540 4q-128 -140 -272 -224q-36 32 -80 52q-44 0 -76 -32 q-32 -52 0 -108q184 -136 372 -280q36 0 68 16q32 40 28 92q-76 88 -156 148q196 168 344 356q4 64 -28 104q-48 28 -100 40q-348 24 -684 -16q-40 -32 -32 -88zM1100 1048q52 -104 112 -208q28 -20 76 -20q32 16 52 48q4 48 -4 92q-52 88 -108 164q-32 24 -72 20 q-68 -20 -56 -96z" />
<glyph unicode="&#x4f38;" d="M192 772q-4 -48 28 -84q28 -16 72 -16q116 124 220 256q-8 -384 0 -768q8 -48 28 -104q20 -12 48 -28q68 -4 100 60q-32 464 -12 916q-8 72 -48 116q96 212 184 420q-4 40 -24 68q-60 36 -116 0q-80 -176 -164 -352q-140 -252 -316 -484zM792 580q16 -56 72 -80 q172 20 352 28l16 -504q28 -48 96 -40q36 16 56 52q-8 248 16 492q216 -20 408 12q20 64 36 128q16 324 20 636q-28 68 -84 92q-204 -4 -380 0q12 128 -8 240q-36 32 -80 28q-60 -20 -72 -84v-200q-212 -28 -420 -56q-28 -360 -28 -744zM956 832q132 20 268 28q4 -84 4 -176 q-128 -20 -260 -24q-32 80 -12 172zM956 1188q136 24 280 32q12 -92 8 -196q-136 -36 -280 -36q-8 100 -8 200zM1384 688v172q144 24 304 12q8 -104 -20 -200q-152 0 -284 16zM1400 1220q136 36 288 16q24 -92 16 -204q-152 -4 -296 -16q-16 100 -8 204z" />
<glyph unicode="&#x4f3c;" d="M188 664q8 -72 80 -88q24 4 52 16q64 92 116 184q-12 -348 28 -700q52 -36 112 -8q12 24 28 48q12 492 -24 956q100 224 152 464q-16 40 -56 56q-52 8 -88 -24q-72 -212 -152 -424q-112 -244 -248 -480zM676 416q20 -48 80 -52q220 140 436 304q24 36 24 84 q-32 60 -100 48q-76 -36 -144 -96q-4 300 -44 572q-24 12 -44 24q-72 4 -96 -60q12 -324 36 -640q-64 -52 -132 -104q-24 -32 -16 -80zM896 232q-28 -56 8 -108q48 -24 112 -8q236 180 416 392q156 -232 324 -424q44 0 76 24q28 64 0 124q-144 220 -304 412q64 128 128 236 q84 200 132 416q-16 64 -72 84q-44 4 -76 -32q-56 -192 -124 -380q-76 -136 -160 -272q-116 -156 -264 -316q-100 -80 -196 -148zM1108 1168q76 -160 204 -300q44 -20 92 -4q44 48 28 108q-108 140 -188 280q-32 24 -68 24q-48 -8 -68 -52v-56z" />
<glyph unicode="&#x4f46;" d="M196 908q0 -40 28 -72q40 -20 92 -12q100 100 180 200q-12 -476 32 -936q52 -36 112 -12q20 24 32 52q-12 492 -8 980q-20 44 -60 60q88 152 172 308q8 84 -56 112q-44 4 -76 -16q-188 -352 -448 -664zM848 172q20 -52 76 -76q452 24 888 -4q28 32 40 72q-8 40 -36 68 q-44 16 -84 28q-396 12 -784 0q-44 -8 -80 -28q-16 -24 -20 -60zM940 700q12 -120 56 -228q48 -20 96 -32q280 20 576 0q60 40 84 112q-4 396 -36 772q-24 56 -64 104q-92 36 -184 52q-168 8 -332 0q-76 -16 -152 -56q-20 -44 -32 -100q-28 -308 -12 -624zM1092 888 q248 36 492 -4q0 -136 4 -272q-232 -12 -464 -4q-44 132 -32 280zM1100 1056q-12 136 24 260q140 20 292 8q64 -8 128 -32q40 -104 28 -232q-248 -8 -472 -4z" />
<glyph unicode="&#x4f4d;" d="M144 836q-12 -80 60 -100q36 -4 68 12q84 128 196 208q-20 -428 8 -856q16 -28 52 -40q76 -4 100 68q8 492 -8 964q-16 12 -28 20q136 172 228 360l-4 64q-44 36 -100 32q-260 -372 -572 -732zM784 180q20 -32 60 -48q516 48 1024 -4q28 24 44 56q8 68 -40 96 q-160 40 -332 32q96 220 152 460q4 84 16 164q-16 52 -60 64q-48 8 -80 -24q-40 -204 -96 -408q-44 -100 -88 -204q12 -20 12 -48q-304 8 -580 -36q-48 -40 -32 -100zM804 1096q12 -32 44 -48q472 44 960 12q40 20 60 64q0 40 -16 68q-44 32 -96 44h-360q8 176 -40 320 q-32 32 -76 28q-32 -8 -56 -36q0 -144 12 -308q-212 -12 -408 -56q-32 -36 -24 -88zM972 872q20 -260 104 -492q52 -28 108 -4q16 24 24 48q-36 248 -100 476q-40 32 -88 20q-36 -12 -48 -48z" />
<glyph unicode="&#x4f4e;" d="M244 804q-8 -52 32 -88q36 -12 80 -8q96 108 176 232q8 -384 8 -792q12 -56 68 -84h48q40 20 52 64q-8 468 -8 932q-16 48 -48 76q60 132 132 268q12 52 -12 92q-28 20 -56 28q-44 4 -72 -28q-160 -352 -400 -692zM896 1152q-16 -444 56 -848q40 -28 100 -16 q140 120 264 236q0 48 -16 80q-40 24 -88 20q-68 -28 -124 -88q-36 128 -28 280q156 40 312 52q64 -208 164 -404q60 -108 152 -200q24 -12 60 -16q48 20 64 68q-44 124 -132 228q-108 188 -140 364q108 4 196 36l24 48q-4 68 -60 92q-116 -12 -220 -28q-40 120 -68 240 q-40 36 -88 24q-40 -24 -52 -64q8 -116 48 -224q-128 -40 -264 -56q-8 124 8 240q220 132 452 252q24 28 36 56q-4 44 -28 72q-24 16 -52 16q-292 -120 -548 -292q-24 -76 -28 -168zM932 160q-8 -48 28 -84q388 -44 780 -20q24 28 32 60q0 44 -24 72q-388 44 -780 24 q-24 -20 -36 -52z" />
<glyph unicode="&#x4f4f;" d="M184 636q12 -56 72 -72q36 4 68 20q96 120 180 236q0 -328 12 -668q8 -60 36 -120q32 -20 80 -16q36 16 52 52q-24 488 -4 968q-32 24 -36 52q84 156 116 336q-28 36 -64 48q-44 4 -72 -20q-116 -264 -244 -532q-120 -132 -196 -284zM776 116q36 -56 124 -56 q464 16 912 12q52 68 0 128q-216 40 -448 28q-8 184 -4 376q108 12 224 0q36 24 52 64q0 36 -12 64q-124 48 -260 52q-12 132 12 244h280q48 16 64 64q0 56 -40 88q-416 40 -820 -24q-28 -32 -24 -76q8 -20 28 -44q164 -16 340 0q12 -132 -4 -264q-144 12 -260 -40 q-20 -28 -16 -72q12 -36 52 -56q104 8 216 12q12 -184 16 -372q-216 4 -412 -40q-28 -36 -20 -88zM1100 1544q48 -136 120 -268q20 -20 52 -36q64 0 88 56q-28 172 -120 308q-32 20 -64 28q-32 -8 -60 -28q-16 -24 -16 -60z" />
<glyph unicode="&#x4f53;" d="M132 736q8 -76 84 -96q24 12 52 20q80 140 168 236v-816q36 -40 92 -40q44 12 64 48q20 464 -4 944q-40 28 -64 52q92 192 188 392q-12 80 -88 88q-36 -4 -56 -24q-196 -416 -436 -804zM632 444q0 -32 16 -60q36 -28 92 -24q168 136 300 296q60 108 136 204 q24 -164 16 -356q-124 8 -224 -40q-24 -28 -16 -76q20 -44 72 -56q76 16 164 12q4 -140 24 -280q28 -24 76 -28q52 20 72 68q-8 116 -8 228q56 8 128 -4q48 16 68 68q0 48 -32 72q-76 40 -164 32q-28 172 -4 340q80 -112 156 -232q140 -148 288 -260q28 -8 64 -8 q44 16 56 60q4 44 -12 72q-136 108 -248 216q-156 200 -272 412q156 12 332 -8q36 24 52 64q4 52 -24 84q-208 32 -412 40q16 132 8 268q-28 56 -96 52q-20 -8 -40 -20q-28 -152 -28 -316q-208 8 -388 -44q-28 -28 -28 -68q12 -60 76 -76q136 28 288 28q-88 -196 -228 -372 q-152 -140 -260 -288z" />
<glyph unicode="&#x4f55;" d="M160 876q4 -32 16 -64q48 -52 116 -20q112 132 208 264q24 -452 -4 -936q16 -48 72 -72q60 0 92 48q16 504 12 1016q-16 60 -56 104q72 160 148 316q24 76 4 144q-28 16 -48 28q-48 4 -80 -24q-56 -168 -148 -340q-152 -232 -332 -464zM768 1360q12 -44 60 -64 q380 48 780 52q36 -592 12 -1200q-56 8 -112 -16q-52 -60 -8 -124q72 -40 152 -72q36 4 68 12q36 56 56 120q28 632 0 1276q28 4 72 8q24 24 40 56q0 44 -12 68q-32 28 -68 40q-356 -8 -708 -28q-160 -24 -308 -52q-24 -32 -24 -76zM776 1104q56 -228 52 -488q16 -32 52 -48 q228 32 460 36q36 272 64 532q-52 68 -136 68q-224 -24 -440 -44q-44 -12 -52 -56zM956 1004q132 48 272 36q-8 -140 -28 -272q-116 -20 -216 -20q-16 128 -28 256z" />
<glyph unicode="&#x4f59;" d="M304 1000q-4 -72 64 -100q172 52 316 172q196 164 348 344q284 -260 588 -520q52 -24 104 8q28 48 20 100q-272 244 -552 500q-40 64 -80 116q-68 44 -132 8q-56 -76 -120 -160q-280 -268 -556 -468zM492 216q-4 -36 16 -68q36 -36 96 -32q128 100 212 252q8 52 -12 88 q-52 48 -112 16q-104 -128 -200 -256zM556 580q32 -16 68 -28q152 20 312 16q12 -268 8 -536q20 -36 64 -52q72 -4 100 52q8 268 -4 540q200 16 396 24q36 36 36 84q-12 32 -28 52q-196 32 -400 4q-16 84 4 160q100 0 192 28q24 36 20 84q-20 40 -64 56q-276 -4 -532 -40 q-28 -28 -24 -76q16 -40 64 -60q88 8 176 -8q4 -84 -16 -156q-204 16 -372 -32q-40 -52 0 -112zM1244 428q32 -84 84 -168q76 -116 180 -200q76 0 104 68q-84 188 -236 352q-32 20 -72 16q-52 -12 -60 -68z" />
<glyph unicode="&#x4f5b;" d="M148 692q-4 -48 28 -84q36 -12 84 -12q96 112 188 240q4 -352 8 -724q16 -44 64 -64q48 0 84 28q24 432 12 876q-20 52 -36 104q60 124 116 244q40 116 40 244q-24 44 -64 60q-48 4 -76 -28q-48 -240 -160 -452q-132 -224 -288 -432zM756 776q-12 -48 12 -88 q136 -28 300 0q-32 -180 -104 -348l-112 -192q-8 -48 24 -84q28 -16 64 -24q112 84 168 220q80 216 136 452h104q-4 -364 40 -712q32 -24 84 -20q44 20 60 68q-20 324 -24 652q108 28 228 4q24 -96 0 -200q-36 -76 -76 -164q0 -64 64 -92q40 0 76 16q76 120 104 252 q4 112 0 220q-12 56 -40 108q-164 40 -348 24q-16 68 -8 140q124 -8 224 32q44 168 44 352q-8 28 -24 48q-116 28 -240 16q-24 68 -20 148q-20 48 -64 64q-36 0 -64 -16q-44 -80 -20 -192q-48 -8 -96 -8q0 56 -4 112q-20 60 -76 76q-44 -4 -68 -28q-24 -68 -12 -156 q-92 -4 -172 -36q-20 -28 -24 -68q12 -32 40 -60q72 -12 156 -8q4 -52 4 -112q-108 4 -192 -48q-68 -176 -144 -348zM968 840q12 88 56 168q36 12 68 -4q-8 -76 -4 -156q-60 -12 -120 -8zM1256 856q-32 84 0 168h92q12 -72 8 -152q-44 -16 -100 -16zM1256 1176q-28 64 0 124 q52 8 100 -8v-108q-48 -12 -100 -8zM1508 1288q44 28 96 4q0 -56 -8 -120q-36 -8 -76 -8q-24 60 -12 124z" />
<glyph unicode="&#x4f5c;" d="M156 780q-8 -44 24 -76q32 -20 80 -16q108 116 196 256q24 -424 8 -880q16 -36 60 -52q76 -8 100 52q20 484 0 984q-8 60 -40 104q108 180 164 364q-24 44 -68 52q-48 4 -76 -28q-204 -392 -448 -760zM788 980q-8 -48 20 -80q28 -20 76 -20q112 92 180 224q72 -4 152 -4 q-12 -520 -12 -1048q16 -56 80 -68q32 8 64 20q40 204 20 428q208 8 412 4q56 40 40 108q-32 36 -64 48q-192 4 -384 0q-8 88 -4 176q196 20 400 32l24 48q-4 72 -60 92l-344 -4q-16 84 4 164q232 4 460 4q40 24 52 80q-4 44 -36 72q-356 12 -708 0q44 136 108 280 q4 52 -20 84q-56 40 -108 8q-140 -344 -352 -648z" />
<glyph unicode="&#x4f60;" d="M152 784q-16 -40 12 -84q52 -40 108 -16q88 120 184 236q-8 -384 -4 -784q20 -52 76 -72q68 12 92 68q-20 452 8 908q-12 32 -36 56q104 204 148 436q-8 24 -28 40q-60 32 -108 -12q-52 -148 -120 -300q-144 -244 -332 -476zM796 680q28 -48 96 -44q24 16 48 36 q28 236 60 464q356 52 728 32q-72 -200 -108 -416q8 -32 44 -52q60 -8 96 28q76 216 144 432q8 68 -12 120q-64 56 -148 56q-392 -12 -752 -16q32 160 32 328q-12 36 -36 60q-68 28 -112 -28q-60 -496 -80 -1000zM848 220q-8 -60 36 -104q28 -4 64 -4q36 28 64 68 q52 120 68 248q-20 36 -60 52q-64 4 -92 -44q-44 -104 -80 -216zM1076 12q-8 -68 52 -96q56 -8 116 0q104 36 156 132q4 440 0 876q-20 72 -100 60q-56 -28 -68 -84q12 -392 12 -788q-104 -36 -168 -100zM1576 412q56 -140 136 -272q40 -36 100 -28q56 44 44 116 q-64 148 -168 264q-48 8 -84 -12q-28 -24 -28 -68z" />
<glyph unicode="&#x4f63;" d="M100 828q-4 -48 32 -84q52 -16 104 4q76 120 160 236q32 -408 8 -856q12 -56 72 -76q72 4 92 68q16 496 0 984q-16 60 -36 108q84 156 164 304q4 72 -56 96q-56 12 -92 -28q-196 -388 -448 -756zM720 228q-8 -48 28 -84q48 -28 104 0q116 208 176 424q140 8 280 24 q8 -240 20 -472q32 -28 84 -28q28 12 52 36q24 228 16 464q148 24 296 -4q-4 -172 12 -352q-40 -12 -72 -36q-24 -32 -20 -76q60 -84 176 -104q60 12 72 72q-4 684 12 1372q-16 56 -72 68q-396 8 -792 -16q-72 -12 -144 -32q-32 -40 -52 -88q12 -308 -4 -620 q-36 -192 -92 -380q-40 -80 -80 -168zM1052 724q-12 96 8 200q124 28 260 16q20 -92 4 -188q-140 -12 -272 -28zM1064 1340q112 24 240 24q20 -120 20 -256q-128 -12 -256 -16q-8 124 -4 248zM1476 1368q152 4 304 -4q20 -112 8 -228q-152 -12 -300 -24q-24 128 -12 256z M1492 760q-32 100 4 196q136 16 284 12q8 -96 -4 -204q-140 -4 -284 -4z" />
<glyph unicode="&#x4f69;" d="M100 760q0 -36 20 -68q32 -20 80 -20q100 92 184 204q-12 -336 -8 -692q12 -56 68 -80q72 0 100 64q-8 428 4 860q-20 44 -52 68q80 164 144 328q4 64 -16 112q-68 40 -124 -8q-76 -204 -172 -408q-104 -188 -228 -360zM616 272q12 -32 52 -48q56 -4 88 28 q68 144 116 288q48 340 80 680q4 112 -8 212q324 40 664 40q8 -340 -8 -692q48 -284 144 -556q32 -92 112 -156q40 0 76 20q16 28 20 56q-120 284 -184 580q0 424 8 840q-20 36 -48 52q-152 20 -316 12q-324 -8 -624 -64l-24 -40q8 -64 28 -128q-12 -360 -48 -712 q-68 -208 -128 -412zM936 860q-12 -224 36 -436q44 -36 100 -16q20 20 32 44q-20 176 -12 360q36 28 76 0q-8 -372 -20 -748q24 -44 80 -56q76 12 88 84q0 372 8 728q32 8 72 4q20 -192 24 -384q32 -32 80 -32l48 24q20 108 28 220q-8 160 -48 296q-104 32 -212 44v152 q100 4 196 36q20 40 12 80q-28 36 -60 48q-248 24 -468 -28q-20 -24 -32 -48q-4 -44 28 -76q68 -20 160 0q20 -76 16 -168q-108 -12 -204 -56q-16 -32 -28 -72z" />
<glyph unicode="&#x4f73;" d="M144 688q0 -44 28 -76q52 -28 112 0q88 144 188 276q24 -396 20 -812q28 -72 112 -64q36 16 52 52q4 472 -28 920q-12 52 -40 92q104 188 176 388q4 48 -28 76q-60 32 -108 0q-76 -164 -156 -332q-152 -264 -328 -520zM764 140q-4 -68 56 -96q240 12 488 20 q248 -16 500 -36q32 8 64 32q32 56 4 108q-252 68 -532 60q-16 132 20 248q168 -8 320 20l32 48q4 48 -28 80q-156 24 -320 8q-20 88 -20 180q176 12 356 -12q40 16 56 56q4 48 -16 84q-208 40 -412 48q-4 92 16 172q136 -4 264 0q40 12 56 56q0 44 -16 72q-152 32 -308 40 q24 160 -24 288q-40 20 -84 16q-40 -16 -56 -60q12 -124 8 -260q-120 -16 -240 -28q-48 -32 -36 -96q20 -32 52 -52h212q4 -72 0 -152q-136 -4 -276 -4q-56 -4 -108 -36q-8 -24 -24 -44q0 -64 60 -88q176 16 364 12q24 -96 0 -192q-172 8 -316 -28q-24 -36 -16 -84 q16 -36 64 -52q140 4 276 0q4 -128 -36 -248q-196 12 -376 -36q-16 -20 -24 -44z" />
<glyph unicode="&#x4f7f;" d="M176 804q-4 -48 28 -76q24 -8 52 -20q40 4 72 36q72 120 156 236q28 -440 20 -916q24 -64 108 -60q48 24 60 76q-12 480 -12 964q-4 80 -64 108q84 168 156 336q8 56 -32 92q-52 32 -104 -4q-68 -148 -140 -304q-140 -236 -300 -468zM892 1116q-16 -220 36 -440 q16 -20 44 -28q152 4 312 12q-12 -96 -56 -188q-60 60 -132 88q-56 -8 -80 -60q-4 -36 12 -68q52 -52 120 -108q-84 -128 -180 -244q-12 -68 52 -96q44 -8 84 12q100 112 184 224q228 -148 484 -256l60 4q44 36 44 88q-12 32 -24 52q-248 104 -480 256q32 152 84 304 q132 4 276 -8q28 20 56 48q88 220 88 448q-32 32 -76 40q-156 8 -312 4q-20 40 -12 92q164 -4 304 44q16 32 16 72q-16 40 -52 56q-140 0 -272 -8q-20 100 -40 188q-24 20 -48 32q-72 4 -92 -60q0 -80 12 -164q-172 0 -316 -24q-28 -32 -20 -80q24 -68 108 -76 q116 20 240 20q16 -40 12 -96q-144 -24 -296 -28q-76 -16 -140 -52zM1048 1000q128 28 268 40q16 -108 -12 -224q-120 4 -232 -12q-24 96 -24 196zM1476 828q-16 116 16 216q116 12 220 -12l-48 -200q-96 -12 -188 -4z" />
<glyph unicode="&#x4f84;" d="M152 724q-8 -56 36 -92q28 -12 64 -12q104 104 176 240q-4 -372 -8 -752q12 -28 32 -56q52 -32 116 -4q12 24 28 48q-8 492 0 984q-16 20 -32 32q84 196 152 384q8 60 -32 96q-56 32 -104 -4q-108 -284 -248 -564q-88 -152 -180 -300zM772 1308q24 -20 52 -36 q172 20 360 12q-32 -76 -92 -148q-108 -116 -224 -204q-16 -32 -24 -68q16 -64 84 -72q312 76 652 116q60 -96 136 -188q32 -24 84 -24q44 20 60 68q-132 220 -260 432q-56 36 -108 -4q-36 -64 8 -132q-144 -40 -300 -52q100 144 184 300q236 -8 456 12q28 36 28 84 q-32 64 -92 72q-496 -4 -984 -48q-48 -52 -20 -120zM816 184q4 -68 68 -92q480 40 964 12q28 20 48 52q12 56 -20 88q-84 24 -172 36l-256 -8q-24 116 -12 240q100 -8 200 16q32 32 32 80q-16 32 -32 48q-100 20 -208 20q-8 64 -8 128q-24 60 -84 52q-32 -8 -56 -28 q-20 -64 -12 -148q-112 -12 -224 -36q-24 -28 -32 -64q4 -36 28 -68q108 -24 232 4q12 -108 8 -232q-220 -8 -428 -44q-24 -24 -36 -56z" />
<glyph unicode="&#x4f8b;" d="M144 776q-8 -52 32 -88q52 -28 104 4q64 112 140 216q12 -392 0 -780q20 -16 44 -32q48 -4 88 20q60 436 28 896q-8 64 -44 108q72 172 148 340q0 40 -4 76q-24 32 -52 48q-52 8 -88 -24q-72 -204 -160 -400q-100 -196 -236 -384zM688 868q-12 -48 20 -88q64 -32 124 12 q92 -68 188 -152q-140 -224 -316 -428q8 -52 64 -76q52 0 92 32q100 96 192 204q72 120 136 232q92 224 156 452q4 48 -16 84q-116 40 -244 44q24 100 80 180q116 -8 212 28q40 56 8 116q-268 28 -552 8q-44 -16 -52 -64t28 -80q76 -40 160 -12q-100 -252 -280 -492z M920 924q24 56 60 104q80 -8 180 -12q-4 -116 -72 -216q-88 64 -168 124zM1448 536q32 -20 88 -16q48 40 60 96q8 288 0 572q-24 64 -92 60q-32 -8 -48 -36q-44 -340 -8 -676zM1724 100q20 -24 52 -44q40 -4 76 16q20 56 36 112q28 652 16 1320q-24 52 -80 64 q-68 -12 -84 -76q24 -704 -16 -1392z" />
<glyph unicode="&#x4f8d;" d="M160 748q0 -64 68 -92q36 0 68 16q92 128 164 264q40 -360 20 -748q8 -40 36 -80q28 -20 72 -20q48 20 60 64q0 480 -24 948q-8 40 -44 60q72 176 120 368q-16 48 -56 68q-68 16 -96 -40q-76 -220 -172 -432q-100 -192 -216 -376zM720 800q16 -52 76 -64q336 28 672 36 q28 -288 8 -600q-24 -72 -36 -148q12 -24 24 -52q32 -24 84 -24q20 8 44 28q32 92 52 188q4 328 0 624q104 -20 204 -12q24 24 40 56q4 52 -28 84q-104 36 -224 28q-8 48 -8 96q-32 48 -88 48q-28 -8 -48 -24q-28 -60 -32 -136q-368 0 -716 -52q-28 -32 -24 -76zM844 1364 l56 -28q100 32 208 16v-140q-100 -12 -204 -28q-40 -32 -28 -92q16 -36 56 -52q272 -8 524 40q20 32 20 72q-12 44 -48 56q-76 4 -152 0q-24 72 -12 156q124 0 232 44q16 32 16 68q-16 44 -60 56h-180q-12 68 -24 128q-28 20 -48 28q-48 4 -80 -24q-16 -76 -36 -148 q-124 4 -232 -28q-56 -56 -8 -124zM880 572q-4 -28 12 -56q164 -132 356 -232q44 20 64 64q0 40 -12 68q-144 132 -304 220q-36 8 -68 0q-36 -24 -48 -64z" />
<glyph unicode="&#x4f9b;" d="M132 660q0 -64 56 -92q48 -12 96 24q80 136 180 252q-8 -372 0 -756q24 -20 56 -36q76 0 96 68q20 496 0 972q48 112 104 208q32 112 44 228q-28 44 -68 60q-40 0 -68 -20q-64 -208 -164 -408q-156 -256 -332 -500zM716 784q24 -20 60 -36q560 8 1116 24q24 36 28 76 q-12 40 -40 64q-176 16 -364 20q8 120 32 236q112 20 244 4q44 16 60 64q0 44 -16 76q-124 40 -256 32q24 72 20 156q-24 40 -60 48q-44 4 -72 -16q-44 -88 -48 -204q-100 -12 -200 -16q-12 88 -8 172q-28 32 -60 48q-44 4 -72 -24q-48 -80 -32 -192q-76 -4 -148 -8 q-36 -16 -52 -60q-12 -52 32 -88q80 0 156 -20q4 -108 12 -224q-160 -8 -316 -28q-44 -44 -16 -104zM820 236q-8 -48 20 -84q32 -24 84 -20q92 64 156 160q52 108 108 216q8 48 -12 84q-52 40 -108 16q-112 -196 -248 -372zM1200 1152q92 28 192 12q-4 -124 -44 -236 q-64 4 -120 -4q-44 100 -28 228zM1432 568q8 -64 40 -120q136 -184 288 -356q48 -28 104 -8q16 32 36 64q-8 44 -24 76q-176 180 -312 380q-32 16 -60 20q-56 -4 -72 -56z" />
<glyph unicode="&#x4f9d;" d="M148 860q-4 -72 64 -100q36 4 72 20q48 76 96 144q-8 -400 32 -832q52 -36 112 -8q20 24 32 52q-24 468 12 920q-12 40 -52 60q100 164 192 328q16 68 -36 104q-64 20 -104 -24q-200 -332 -420 -664zM640 600q-36 -56 12 -108q40 -20 88 -12q64 56 132 116 q-12 -280 32 -544q56 -48 128 -12q176 152 316 304q8 44 -12 76q-44 36 -96 24q-92 -76 -196 -160q-8 244 -4 496q124 144 172 320q-32 64 -112 48q-112 -160 -236 -324zM720 1192q20 -32 56 -48l424 48q288 8 560 -8q52 20 68 80q-4 40 -28 64q-232 44 -480 24 q-16 136 -48 260q-32 16 -60 28q-56 -8 -80 -60q4 -116 24 -228q-212 -16 -404 -68q-44 -36 -32 -92zM1232 984q88 -268 224 -528q76 -124 164 -248q84 -108 204 -164q32 8 64 28q20 36 20 80q-140 144 -268 300q-40 100 -96 188q200 184 344 380q-12 80 -84 92 q-160 -124 -332 -304q-64 100 -108 212q-48 40 -100 12q-20 -20 -32 -48z" />
<glyph unicode="&#x4fa6;" d="M232 816q-4 -28 12 -56q32 -40 88 -36q104 96 180 224q-12 -380 28 -768q48 -32 108 -12q24 28 40 56q-12 428 -12 852q-16 36 -28 68q92 164 176 340q-12 64 -68 80q-44 4 -72 -16q-208 -376 -452 -732zM872 1040q24 -324 64 -652q20 -36 56 -56q32 0 60 8q24 28 36 60 q-20 292 -52 564q36 32 88 36h516q0 -372 -4 -752q12 -24 40 -48q32 -4 64 0q44 36 56 88q-8 400 28 776q-40 76 -128 100q-184 -12 -360 0q-8 56 -4 112q12 20 32 32q152 4 312 12q48 20 76 56q4 68 -52 96q-188 -8 -356 12q12 116 8 228q-24 32 -52 40q-60 12 -96 -36 q-32 -272 -40 -548q-124 -20 -236 -64q-36 -32 -56 -64zM1104 16q-16 -72 28 -124q48 -12 96 8q44 96 80 196q172 -88 364 -160q48 -8 92 12q32 36 28 88q-24 32 -60 56q-128 56 -256 92q-72 32 -108 88q40 228 84 448q-8 60 -56 84q-44 8 -76 -16q-96 -396 -216 -772z" />
<glyph unicode="&#x4fa7;" d="M124 800q-20 -48 8 -100q32 -32 88 -28q124 132 200 292q24 -392 36 -796q28 -52 88 -56q48 12 68 56q-16 464 -28 920q-8 40 -40 68q88 172 160 352q-16 52 -64 72q-48 8 -80 -24q-192 -396 -436 -756zM712 1156q8 -308 84 -588q32 -20 76 -16q36 24 48 64 q-20 248 -44 488q36 44 88 44q144 12 276 -12q-4 -288 4 -576q32 -40 88 -36q32 20 52 52q20 340 12 664q-40 56 -112 64q-192 4 -380 -4q-88 -16 -156 -68q-24 -36 -36 -76zM936 200q28 -40 80 -32q40 36 68 76q124 -8 240 -36q28 16 48 32q32 60 -16 108q-112 48 -228 72 q28 252 44 500q-12 20 -28 36q-40 12 -80 0q-32 -24 -44 -56q-48 -360 -84 -700zM1520 948q-4 -164 4 -332q12 -32 44 -64q56 -28 104 20q8 208 4 412q-40 40 -96 28q-44 -16 -60 -64zM1572 100q20 -36 60 -44q92 12 164 72q64 72 104 156q48 524 20 1040q-44 52 -108 32 q-40 -20 -52 -60q12 -352 12 -708q-12 -152 -44 -296q-80 -52 -152 -124q-8 -32 -4 -68z" />
<glyph unicode="&#x4fa8;" d="M108 716q4 -32 20 -64q52 -44 112 -12q80 120 168 244q8 -408 4 -808q28 -32 72 -44q48 4 80 40q28 468 -4 936q-28 28 -60 36q108 212 184 428q-28 40 -72 56q-48 4 -72 -32q-192 -396 -432 -780zM688 528q36 -52 108 -32q192 180 372 392q144 16 300 16 q160 -188 360 -344q52 -8 92 24q16 56 0 108q-132 104 -240 216q88 16 180 8q52 12 80 56q0 36 -4 68q-24 28 -52 40q-316 0 -612 -24q64 216 144 440q96 60 188 120q32 60 -4 116q-48 32 -100 16q-260 -168 -500 -332q-24 -44 -4 -96q36 -40 100 -28q52 36 100 56 q-40 -168 -140 -308l-236 -4q-64 -8 -104 -56q-16 -72 48 -104h168q-108 -140 -240 -260q-8 -40 -4 -88zM980 68q-8 -52 40 -88q32 -8 68 -4q60 56 88 136q16 100 40 192q8 204 0 400q-16 44 -52 68q-52 8 -80 -20q-36 -180 -24 -380q-32 -156 -80 -304zM1380 732 q4 -416 4 -812q32 -40 96 -32q40 20 56 68q32 416 -8 812q-56 36 -112 12q-28 -20 -36 -48z" />
<glyph unicode="&#x4fae;" d="M164 944q16 -44 56 -88q52 -16 104 8q12 24 20 48q-28 112 -52 228q-28 28 -60 32q-40 0 -68 -28q-28 -96 0 -200zM368 124q8 -52 64 -80q72 -8 108 52q16 756 24 1480q-24 24 -52 32q-52 4 -84 -24q-16 -28 -28 -60q-8 -696 -32 -1400zM600 984q4 -32 24 -64 q60 -32 116 8q16 96 52 180q0 80 -68 100q-44 0 -72 -24q-44 -88 -52 -200zM732 740q12 -24 28 -44q60 -28 140 -28q-28 -128 -80 -264q-12 -52 20 -88q252 -44 500 -104q-40 -76 -56 -172q16 -60 84 -68q40 8 72 40q32 80 68 152q52 -28 116 -4q20 32 32 68q-16 72 -84 96 q36 144 80 288q100 0 204 -16q32 16 48 52q8 52 -24 84q-76 40 -164 40q4 116 20 240q-24 44 -56 76q-68 20 -136 36q-240 24 -452 -4q-80 -136 -128 -296q-96 4 -176 8q-60 -24 -56 -92zM812 1084q-8 -40 12 -72q36 -24 88 -24q92 76 136 196h688q20 28 36 52q4 80 -64 104 q-296 0 -584 12q36 112 80 212q4 52 -24 84q-32 16 -60 24q-36 -8 -56 -28q-104 -292 -252 -560zM1012 432q12 124 68 232q48 -4 100 -8q-20 -120 -88 -224h-80zM1144 808q0 96 48 176q52 8 96 -12q-24 -84 -60 -164h-84zM1260 400q40 132 100 252q56 -4 120 -12 q-16 -144 -76 -280q-80 12 -144 40zM1396 808q20 80 52 164q60 0 120 -20q-16 -76 -20 -156q-80 -8 -152 12z" />
<glyph unicode="&#x4fb5;" d="M128 776q24 -64 96 -68q112 96 216 220q-32 -412 20 -824q48 -44 120 -20q20 480 32 952q-16 48 -28 88q120 156 164 344q-16 60 -68 76q-36 0 -64 -20q-56 -92 -96 -204q-160 -248 -376 -468q-20 -32 -16 -76zM684 672q16 -40 68 -52q44 4 72 32q28 68 24 152 q372 56 772 44q64 -4 116 -40q-60 -84 -32 -180q32 -28 84 -28q88 84 128 204q8 72 -24 120q-100 60 -216 76q-508 4 -956 -36q-48 -136 -36 -292zM896 100q0 -44 28 -76q32 -16 80 -20q124 64 232 180q124 -132 276 -212q44 12 68 44q4 32 4 64q-124 132 -232 248 q108 144 176 308v92q-16 36 -44 60q-224 40 -452 0q-36 -8 -68 -32q-20 -32 -16 -76q20 -52 92 -56q152 40 316 28q-36 -112 -120 -208q-68 36 -104 112q-32 20 -68 20q-52 -16 -64 -72q24 -104 120 -188q-116 -120 -224 -216zM952 1536q20 -32 56 -48q168 12 332 0 q48 -12 96 -44q4 -20 -12 -32q-220 20 -424 -12q-28 -24 -36 -56q-8 -44 28 -80q200 -8 424 -8q16 -20 8 -56q-232 -4 -448 -40q-28 -44 -12 -100q24 -20 52 -36l504 24q44 76 72 164q4 144 0 284q-20 52 -60 88q-92 48 -188 68q-196 16 -368 -24q-36 -36 -24 -92z" />
<glyph unicode="&#x4fbf;" d="M212 764q16 -44 52 -64q40 -8 80 12q72 88 124 184q36 -380 20 -772q4 -28 32 -52q64 -32 116 16q40 444 0 896q-12 60 -28 108q76 176 168 336q12 48 -8 84q-64 52 -128 8q-204 -384 -428 -756zM864 88q16 -32 60 -52q92 16 160 76q60 68 112 136q192 -112 396 -196 q76 -12 156 -20q60 12 80 64q0 56 -32 80q-164 32 -312 96q-104 56 -200 124q32 144 116 272q156 -4 336 -8q24 12 56 36q48 240 36 508q-16 40 -28 76q-168 52 -356 36q-40 44 -24 116q128 24 276 12q60 28 64 100q-20 44 -64 64q-364 0 -712 -12q-36 -24 -44 -64 q0 -44 36 -76q128 -20 280 -12q12 -56 16 -124q-132 -16 -268 -20q-56 -16 -100 -44q-40 -288 28 -576q136 -20 288 -20q-36 -72 -72 -152q-72 52 -148 92q-36 -4 -68 -24q-28 -44 -12 -96q64 -64 144 -120q-64 -116 -184 -192q-20 -32 -16 -80zM1056 892q104 32 216 16v-72 q-104 -20 -208 -12q-12 32 -8 68zM1056 1056q-28 52 4 92q100 16 212 12q12 -52 -8 -104h-208zM1428 904q104 20 220 16q28 -56 -16 -96q-104 -4 -200 0q-8 36 -4 80zM1440 1056q-24 60 8 108q112 16 224 -24v-60q-108 -24 -232 -24z" />
<glyph unicode="&#x4fc3;" d="M152 712q0 -40 24 -76q56 -32 112 0q72 116 148 224q-16 -364 -16 -748q12 -24 32 -60q56 -32 116 -4q16 24 28 52q-12 476 4 956q-8 36 -32 48q76 200 148 384q4 52 -16 88q-56 44 -116 8q-96 -228 -196 -456q-112 -208 -236 -416zM696 156q20 -36 64 -52q44 -4 80 28 q40 100 92 200q216 -116 428 -244q72 -16 152 -36q136 0 264 32q48 20 96 48q28 32 28 80q-16 52 -68 68q-92 -12 -160 -60q-80 -4 -156 -4q-92 20 -172 64q-4 196 8 388q164 -4 304 32q20 44 12 92l-32 36q-136 16 -280 0q-24 84 -12 176q92 12 196 12q36 16 48 52 q24 160 16 332q-16 52 -36 104q-64 44 -136 56q-208 8 -396 -16q-80 -28 -112 -100q0 -220 40 -432q100 -24 224 -12q8 -304 -4 -604q-96 40 -192 96q28 96 40 192q-20 48 -72 64q-36 0 -64 -20q-104 -280 -200 -572zM1088 1380q164 48 344 12q16 -108 8 -216 q-168 -16 -336 -16q-24 108 -16 220z" />
<glyph unicode="&#x4fca;" d="M196 592q0 -24 8 -52q36 -56 108 -40q140 188 236 388q20 -20 28 -68q12 -340 -20 -672q12 -60 72 -80q40 0 68 16q60 360 36 744q-8 172 -64 312q60 160 116 312q20 72 -12 132q-60 40 -116 0q-128 -372 -304 -732q-80 -132 -156 -260zM804 772q-4 -24 4 -52 q36 -52 108 -40q144 132 228 316q0 60 -48 92q-40 12 -76 -8q-96 -152 -216 -308zM828 172q-36 -56 4 -112q36 -20 88 -16q88 40 168 104q76 92 164 188q164 -200 352 -360q48 -4 84 20q24 40 20 84q-152 176 -336 364q84 164 176 320q0 32 -8 56q-132 88 -260 160 q-44 8 -72 -16q-112 -192 -264 -352q-40 -20 -80 -48q-28 -32 -20 -84q28 -60 100 -52q96 52 172 136q24 -48 44 -100q-144 -168 -332 -292zM860 1188q8 -56 72 -80q284 60 588 108q48 -72 120 -120q28 0 56 12q44 36 36 92q-108 192 -280 316q-48 4 -76 -28 q-20 -32 -16 -76q12 -28 40 -52q-140 -44 -276 -48q88 128 172 252q8 76 -56 96q-48 8 -76 -16q-176 -208 -304 -456zM1224 692q24 52 56 96q40 -8 72 -40q-24 -80 -84 -140q-32 40 -44 84zM1392 1048q148 -200 356 -348q40 -8 76 12q24 36 28 84q-172 188 -372 360 q-64 4 -88 -52v-56z" />
<glyph unicode="&#x4fd7;" d="M168 812q-8 -48 32 -84q32 -12 76 -12q96 92 168 188q-32 -420 28 -828q32 -32 88 -28q40 16 56 56q-8 524 -28 1028q72 172 160 340q4 52 -24 84q-68 40 -120 -12q-72 -128 -132 -276q-136 -228 -304 -456zM728 700q-4 -44 20 -76q56 -36 116 -4q208 188 396 408 l392 -392q68 -52 144 -96q24 4 52 12q44 52 28 116q-328 280 -596 596q-36 0 -64 -20q-228 -284 -488 -544zM796 1216q8 -24 36 -52q52 -24 104 4l248 248q16 36 16 80q-32 64 -108 52q-144 -128 -276 -264q-24 -28 -20 -68zM960 560q-12 -228 4 -440q24 -16 56 -32 q252 8 500 -12q36 12 56 44q16 256 -32 476q-56 56 -128 60q-208 32 -392 -16q-40 -36 -64 -80zM1120 248q-8 132 8 256q144 8 284 -16q8 -120 4 -240q-136 -8 -296 0zM1360 1460q128 -172 316 -304q40 -4 72 12q48 52 20 112q-160 164 -328 304q-40 -8 -64 -28 q-24 -40 -16 -96z" />
<glyph unicode="&#x4fd8;" d="M148 856q-12 -56 32 -92q24 -8 56 -16q124 76 212 196q12 -404 8 -832q8 -40 32 -84q52 -28 104 -4l32 48q0 488 -12 976q-20 28 -32 52q132 180 204 388q-20 52 -72 56q-36 0 -60 -16q-136 -236 -308 -464q-108 -104 -196 -208zM840 1300q0 -104 40 -196q24 -20 60 -36 q72 4 92 64q-24 112 -52 212q-56 48 -112 4q-20 -24 -28 -48zM848 444q12 -36 52 -56q224 20 456 36q4 -60 4 -128q-16 -84 -56 -160q-32 -40 -72 -60q-24 -32 -20 -80q24 -64 96 -64q56 24 108 68q48 76 80 156q20 136 36 280q160 0 316 -8q48 16 64 60q0 44 -12 76 q-28 20 -52 28q-176 4 -356 0q-32 80 -60 148q108 68 208 136q64 56 60 136q-28 60 -88 72q-104 8 -212 0q-220 -16 -412 -84q-20 -28 -16 -68q12 -40 56 -56q188 28 380 44q-60 -64 -152 -100l-32 -64q28 -92 96 -172q-232 -8 -444 -56q-36 -32 -28 -84zM988 1468 q16 -52 72 -68q212 28 412 92q84 36 164 80l24 56q-8 68 -68 84q-288 -112 -584 -176q-20 -28 -20 -68zM1192 1284q20 -56 52 -112q32 -32 84 -28q64 32 52 104q-20 64 -52 120q-32 28 -72 28q-36 -4 -56 -32q-12 -36 -8 -80zM1504 1392q44 -136 128 -256q24 -12 52 -28 q64 4 88 64q-44 148 -128 272q-56 36 -112 4q-20 -24 -28 -56z" />
<glyph unicode="&#x4fdd;" d="M192 740q-8 -64 48 -92q24 -4 56 -4q100 88 156 204q12 -340 4 -696q16 -52 76 -72q44 8 76 32q24 444 16 900q-16 32 -40 48q92 208 176 424q0 44 -16 76q-36 24 -84 24q-24 -8 -44 -32q-112 -284 -256 -552q-80 -128 -168 -260zM776 236q32 -64 116 -52 q188 148 336 332q20 -184 8 -396q20 -52 88 -60q28 8 56 28q16 200 20 404q148 -164 288 -336q36 -24 84 -24q48 24 60 76q-4 36 -16 64q-172 180 -320 372q152 16 308 12q64 32 52 104q-20 36 -56 52q-216 -12 -408 8v164q136 -16 264 20q44 236 20 484q-20 40 -56 56 q-268 4 -524 12q-60 -8 -116 -36q-24 -212 -16 -456q40 -56 104 -84h164q4 -76 4 -164q-200 4 -396 -4q-48 -12 -64 -64q-4 -64 48 -88q144 -8 296 0q-44 -104 -156 -200q-88 -72 -168 -140q-24 -32 -20 -84zM1128 1384q188 12 384 4q20 -124 -4 -244q-188 8 -368 -8 q-24 120 -12 248z" />
<glyph unicode="&#x4fe1;" d="M208 756q-8 -44 28 -80q44 -20 100 -8q76 124 168 240q12 -424 32 -864q56 -40 124 -12q24 32 28 56q12 536 -36 1040q88 180 172 356q0 76 -68 100q-44 4 -72 -24q-204 -420 -476 -804zM812 1132q16 -36 56 -52q444 52 892 0l56 32q32 56 4 108q-56 28 -108 36 q-356 12 -712 0q-88 -8 -168 -36q-28 -36 -20 -88zM1044 132q16 -52 44 -108q220 -32 452 -20q32 24 76 44q44 112 28 256q-12 108 -88 188q-96 56 -208 72q-160 24 -284 -36q-40 -180 -20 -396zM1064 968q-4 -36 16 -64q44 -20 92 -36q172 -12 340 8q48 52 20 116 q-28 28 -56 36q-172 -4 -352 4q-48 -12 -60 -64zM1084 772q-44 -60 8 -120q204 -20 412 -24q32 32 48 64q-8 36 -20 60q-40 36 -84 40q-192 16 -364 -20zM1184 1584q20 -136 72 -256q32 -28 84 -28q20 8 44 28q20 56 8 120q-24 76 -52 144q-24 36 -60 48q-76 8 -96 -56z M1200 396q80 16 172 0q52 -12 96 -52q12 -80 12 -172q-124 -16 -268 -12q-24 112 -12 236z" />
<glyph unicode="&#x4fe9;" d="M96 720q-8 -68 60 -96q44 4 80 36q56 132 148 220q-24 -364 -12 -740q12 -40 56 -60q36 0 72 12q48 536 16 1052q96 192 132 404q-8 28 -28 48q-52 32 -96 0q-40 -92 -68 -196q-164 -344 -360 -680zM656 736q40 -316 120 -616q20 -12 52 -12q32 16 40 52q-32 324 -80 628 q96 40 220 24q-24 -232 -116 -452q-8 -40 16 -68q24 -16 60 -12q72 52 100 140q84 -72 180 -128q88 -8 172 -40q68 68 100 168q64 -56 124 -116q32 -8 76 -8q-28 -116 -48 -244q28 -36 80 -28q32 20 60 52q64 200 104 408q16 208 48 408q-20 68 -76 96h-272q-20 144 8 292 q72 -4 140 20q24 60 -12 104q-44 24 -88 28q-404 8 -796 -20q-36 -28 -32 -76q8 -36 48 -60q116 12 220 -16q-16 -156 -68 -292q-208 0 -380 -64q-16 -80 0 -168zM1108 580q0 148 76 252q144 16 280 -12q-20 -232 -116 -436q-124 88 -240 196zM1204 976q-12 168 56 308 q116 16 224 0q0 -140 -12 -280q-120 -44 -268 -28zM1564 588q4 136 48 248q92 12 196 12q0 -236 -60 -456q-96 96 -184 196z" />
<glyph unicode="&#x4fed;" d="M220 716q-4 -48 32 -84q28 -12 68 -16q112 112 196 260q16 -400 0 -808q16 -28 48 -48q60 -16 104 24q36 472 8 956q-36 32 -64 52q80 192 184 376q0 52 -20 84q-32 28 -80 24q-28 -8 -48 -32q-188 -412 -428 -788zM792 812q32 -40 88 -36q228 264 420 564 q200 -228 408 -476q60 -24 108 20q16 44 8 88q-216 276 -428 532q36 84 40 172l-36 40q-48 20 -88 -12q-112 -136 -164 -300q-180 -252 -356 -504q-12 -44 0 -88zM796 -56q24 -20 56 -32q452 4 904 -4q32 20 52 60q4 56 -36 88q-108 12 -204 28q32 124 56 252q-28 56 -88 60 q-40 -8 -68 -40q-24 -148 -92 -276q-32 -12 -52 8q12 168 -20 316q-20 24 -44 32q-68 12 -96 -36q12 -180 -24 -324q-52 156 -80 316q-40 48 -96 36q-28 -4 -40 -32q-12 -168 44 -324q-84 16 -156 -20q-44 -48 -16 -108zM968 700q8 -20 32 -44q64 -28 144 -40q196 0 400 -4 q28 12 52 28q28 64 -16 112q-284 36 -564 40q-52 -24 -48 -92z" />
<glyph unicode="&#x4fee;" d="M176 692q-8 -52 24 -88q44 -28 96 -12q60 80 96 172q4 -384 36 -772q56 -40 116 -16q20 24 36 48q-16 480 -24 956q-12 32 -40 56q92 212 172 424q8 48 -12 84q-56 56 -120 16q-180 -440 -380 -868zM656 1180q-12 -496 24 -992q32 -24 80 -24q44 12 64 56 q-16 488 -16 976q-28 36 -64 48q-72 0 -88 -64zM844 1112q20 -36 68 -48q40 4 68 28q64 104 112 212q44 -104 144 -208q-76 -96 -176 -168q-92 -48 -180 -100q-32 -28 -28 -72q8 -44 56 -64l88 16q204 104 360 276q212 -144 424 -304l56 4q48 40 40 108q-204 180 -420 328 q52 104 120 196h80q40 16 60 56q8 56 -28 92q-276 32 -556 8q28 80 36 160q-20 40 -56 52q-48 8 -80 -16q-96 -276 -188 -556zM1040 564q4 -36 28 -68q28 -12 64 -16q200 96 384 244q20 36 16 80q-16 36 -52 48q-212 -104 -404 -228q-28 -24 -36 -60zM1052 4q16 -44 68 -56 q52 8 104 20q228 120 448 272q16 36 16 76q-16 44 -60 56q-288 -136 -560 -292q-24 -32 -16 -76zM1104 260q24 -12 52 -28q228 80 412 252q32 40 28 100q-36 64 -112 44q-172 -160 -380 -260q-32 -52 0 -108zM1276 1316h96q-4 -60 -52 -84q-44 40 -44 84z" />
<glyph unicode="&#x4fef;" d="M112 764q0 -32 16 -64q28 -28 80 -32q128 84 208 216q-4 -416 24 -832q52 -36 112 -8q16 24 32 52q4 476 0 936q-12 16 -28 24q116 196 172 420q-24 44 -68 56q-44 4 -72 -24q-88 -212 -212 -424q-136 -156 -264 -320zM612 216q-4 -40 16 -72q48 -32 108 -12 q72 108 128 224q84 244 128 500q12 160 28 312q368 52 760 24q48 20 68 64q4 52 -20 88q-192 28 -392 16q4 124 -24 224q-52 40 -104 8q-28 -28 -40 -68q12 -72 8 -164q-220 -4 -408 -60q-20 -280 -56 -564q-36 -148 -80 -284q-60 -116 -120 -236zM988 680q-12 -40 12 -76 q64 -32 128 -24q-20 -220 -8 -464q36 -52 108 -40q32 16 48 52q20 340 -16 656q56 108 120 208q0 72 -60 96q-52 4 -80 -24q-116 -196 -252 -384zM1332 748q20 -40 68 -52q124 8 252 12q16 -292 8 -608q28 -60 100 -56q48 20 60 72v592q52 4 100 36q12 24 20 48 q-4 52 -44 76q-36 4 -64 8q8 96 -4 184q-28 28 -56 36q-40 4 -68 -16q-36 -100 -48 -216q-156 8 -296 -24q-36 -32 -28 -92zM1344 548q24 -132 96 -252q28 -36 80 -32q40 16 60 52q-16 152 -116 268q-28 8 -48 16q-52 -4 -72 -52z" />
<glyph unicode="&#x4ff1;" d="M116 720q4 -36 28 -68q56 -32 116 4q64 120 156 236q8 -416 4 -824q24 -32 68 -40q56 0 84 44q24 464 0 940q-32 36 -64 52q84 200 184 392q-4 64 -60 92q-48 8 -80 -20q-200 -416 -436 -808zM700 404q-20 -52 20 -92q44 -16 96 -28q516 -4 1000 12l80 32q36 44 20 96 q-20 24 -40 40h-104q-28 584 -16 1184q-40 84 -132 92q-364 -4 -708 8q-40 -12 -56 -48q4 -628 8 -1248q-64 -4 -128 -4q-24 -16 -40 -44zM980 -52q32 -52 112 -40q68 84 108 176q4 36 0 72q-24 44 -72 44q-64 -4 -96 -56q-60 -84 -52 -196zM1016 1556q272 28 568 16 q36 -128 0 -260h-556q-24 120 -12 244zM1024 540q72 32 156 32q196 -8 404 -12q32 -44 8 -108h-552q-20 44 -16 88zM1036 844q284 24 556 40q8 -72 8 -152q-276 -12 -560 -8q-8 60 -4 120zM1044 1008q-24 72 4 132q276 24 540 -12v-116q-268 20 -544 -4zM1500 92 q40 -104 136 -180q68 -8 100 40v60q-40 112 -132 184q-72 16 -104 -36q-8 -32 0 -68z" />
<glyph unicode="&#x500d;" d="M148 656q0 -32 20 -64q32 -28 80 -28q148 128 240 304q20 -396 8 -788q16 -44 64 -64q48 -4 84 24q32 500 12 984q-12 32 -40 48q84 208 172 404q-8 68 -64 92q-44 8 -72 -16q-128 -276 -268 -552q-108 -172 -236 -344zM780 724q28 -36 68 -52q500 40 1000 32 q32 16 48 52q8 68 -36 104q-156 12 -312 -8q20 136 52 276q-20 48 -72 56q64 20 164 16q52 32 52 96q-20 52 -64 60q-140 8 -276 0q-16 108 8 204q-20 56 -76 72q-32 0 -60 -20q-52 -108 -32 -248q-152 -12 -292 -48q-32 -28 -24 -80q12 -40 60 -60q256 24 520 24 q-12 -16 -52 -48q-48 -140 -80 -288q-60 -4 -124 -4q-4 148 -52 276q-52 36 -108 8q-20 -24 -28 -56q28 -108 28 -232q-156 0 -288 -36q-40 -40 -24 -96zM1000 136q20 -44 60 -92q292 -16 584 16q40 248 8 504q-28 24 -60 36q-280 20 -548 -16q-20 -12 -32 -36 q-4 -204 -12 -412zM1168 196q-12 120 0 236q156 32 328 12q4 -112 4 -236q-164 -12 -332 -12z" />
<glyph unicode="&#x5012;" d="M160 792q-4 -44 28 -76q48 -32 104 -4q52 84 100 152q8 -340 8 -692q12 -48 52 -76q76 -20 112 40q-4 456 -12 940q-20 28 -40 40q68 176 156 332q8 36 0 72q-28 32 -60 44q-44 4 -72 -20zM664 1016q0 -36 16 -68q28 -20 72 -28q184 76 396 96q24 -36 48 -76 q32 -24 80 -20q32 16 48 48q-36 168 -124 308q-32 20 -64 36q-44 4 -72 -24q-36 -64 8 -120q-68 -20 -144 -28q56 132 160 244q108 -8 196 36q20 36 16 80q-16 40 -56 52q-264 8 -492 -68q-48 -44 -20 -108q52 -40 120 -36q-104 -156 -188 -324zM672 260q16 -36 60 -52 q280 84 568 168q20 20 32 44q4 52 -24 84q-112 28 -220 -20q-12 72 0 144q104 24 204 56q20 36 16 76q-24 48 -72 52q-80 0 -148 -16q-8 80 -28 144q-24 20 -44 28q-48 8 -76 -24q-28 -76 -12 -172q-112 -12 -208 -48q-36 -28 -32 -76q4 -24 24 -48q96 -16 212 4 q4 -80 4 -168q-120 -40 -232 -88q-32 -36 -24 -88zM1392 1240q16 -240 4 -496q12 -32 32 -64q32 -20 80 -16q32 20 52 52q12 300 -24 584q-60 44 -116 4q-20 -28 -28 -64zM1684 244q12 -44 68 -60q40 0 72 16l40 128q32 556 28 1116q-20 76 -96 80q-60 -12 -72 -76 q12 -384 0 -784q-16 -212 -40 -420z" />
<glyph unicode="&#x5018;" d="M100 704q-16 -60 28 -100q28 -12 64 -16q124 124 196 292q20 -408 60 -828q48 -28 104 -4q12 28 28 44q-20 460 -28 916q-8 40 -40 68q100 172 148 368q-24 44 -64 56q-36 -4 -64 -20q-192 -396 -432 -776zM704 900q-4 -328 16 -648q12 -88 40 -176q36 -28 88 -20 q28 24 44 56q-44 380 -24 764q76 24 160 40q348 32 712 16q44 -44 60 -104q-12 -412 -84 -768q20 -24 52 -36q44 -4 76 24q36 96 64 188q60 340 44 696q-20 56 -56 104q-100 36 -196 64q64 164 136 324q-8 76 -80 100q-40 -4 -68 -32q-96 -184 -132 -396q-88 -12 -176 4v464 q-28 56 -88 56q-60 -16 -68 -80v-448q-88 -8 -172 -16q-44 180 -136 344q-24 28 -52 40q-80 20 -104 -56q64 -180 156 -344q-108 0 -184 -60q-16 -48 -28 -100zM1040 432q12 -76 40 -156q212 -20 452 -12q48 28 80 72q40 228 -8 440q-40 32 -88 36q-216 12 -412 -20 q-36 -16 -64 -44q-8 -152 0 -316zM1188 640q144 36 292 4q4 -120 -20 -220q-128 -4 -256 -4q-20 108 -16 220z" />
<glyph unicode="&#x5019;" d="M176 704q0 -64 56 -92q40 -4 72 12q56 88 108 176q20 -320 12 -668q16 -60 84 -68q52 8 76 56q20 484 -28 940q56 128 124 256q8 56 -4 108l-36 32q-52 16 -88 -12q-164 -380 -376 -740zM704 244q12 -56 72 -80q40 4 72 28q32 492 28 1000q-28 40 -68 52q-60 -4 -84 -52 q-28 -468 -20 -948zM936 1236q4 -64 64 -88q408 28 828 28q44 40 36 100q-12 36 -44 52q-140 -4 -264 12q24 132 8 260q-32 24 -64 32h-368q-48 -16 -64 -64q-4 -40 20 -72q140 -44 320 -28q-4 -64 -8 -140q-208 -8 -408 -24q-44 -20 -56 -68zM972 756q-4 -28 4 -56 q20 -28 60 -44q36 4 68 20q52 76 108 148q72 -4 144 -20q-8 -76 -24 -152q-120 0 -224 -28q-32 -28 -28 -76q12 -44 64 -64q72 4 148 12q-28 -104 -96 -204q-72 -76 -156 -148q-36 -56 8 -112q28 -12 64 -20q112 48 200 160q44 100 108 176q84 -124 172 -248q44 -56 104 -84 h52q40 24 56 72q-140 192 -272 404q120 12 260 28q24 44 16 92q-16 32 -48 48h-256q-8 80 8 152q88 12 180 16q44 32 48 88q-20 48 -64 64q-188 -8 -376 -8q-4 48 4 104q-12 44 -56 56q-36 4 -64 -8q-80 -196 -212 -368z" />
<glyph unicode="&#x501a;" d="M184 736q-8 -68 52 -100h56q96 112 176 236q-8 -372 4 -760q20 -68 100 -64q48 20 68 72q-16 440 -12 872q-20 44 -28 88q92 160 172 332q-4 68 -64 92q-40 4 -72 -16q-204 -384 -452 -752zM780 808q12 -60 76 -80q344 24 692 36q20 -404 -4 -804q44 -44 108 -28 q44 44 60 100q12 364 4 728q96 0 144 60q16 76 -48 104q-520 8 -1004 -56q-20 -24 -28 -60zM868 608q-12 -152 20 -296q28 -28 64 -40q164 4 332 4q48 16 84 60q16 148 4 296q-20 56 -76 68q-208 12 -384 -32q-36 -20 -44 -60zM912 1424q8 -64 68 -84q76 4 160 8 q-4 -60 -44 -128q-92 -88 -168 -184v-44q24 -48 84 -56q44 16 84 44q108 104 172 228q64 -76 132 -172q44 -48 112 -72q36 4 60 24q24 40 20 88q-120 120 -196 248q88 28 204 16q28 24 48 52q8 48 -12 84q-140 40 -288 40q12 52 8 112q-16 60 -64 88q-48 8 -80 -16 q-40 -76 -20 -180q-124 -20 -244 -32q-28 -24 -36 -64zM1024 524q92 36 192 20q4 -44 4 -96q-88 -20 -188 -16q-16 44 -8 92z" />
<glyph unicode="&#x501f;" d="M148 636q-8 -44 24 -80q36 -20 88 -16q92 92 136 220q-4 -356 32 -704q44 -48 116 -28q24 28 36 60q-24 452 -12 900q-32 28 -44 52q76 200 148 400q0 52 -28 80q-40 28 -88 16q-188 -440 -408 -900zM656 1000q-4 -64 60 -88q552 40 1104 4q32 12 64 36q28 60 -8 112 q-176 44 -360 16q-16 108 16 196h168q40 20 60 60q0 48 -24 80q-96 40 -196 16q-12 64 -4 144q-24 40 -68 52q-40 4 -68 -20q-28 -84 -44 -180h-148q-4 64 -12 120q-48 52 -112 24q-60 -60 -44 -152q-80 -4 -152 -20q-60 -40 -36 -112q24 -36 72 -44q56 12 120 8 q8 -88 8 -168q-200 12 -368 -36q-16 -20 -28 -48zM1000 96q8 -44 40 -76q232 0 484 4q40 20 80 60q28 324 -12 644q-36 80 -108 112q-192 32 -384 0q-32 -16 -60 -36q-28 -84 -40 -172q-16 -268 0 -536zM1156 204v156q136 36 292 20q28 -100 -4 -200q-160 4 -288 24z M1168 528q-20 84 16 164q132 20 256 -16q8 -68 8 -140q-140 8 -280 -8zM1204 1260q80 32 164 0q-8 -88 -24 -172h-124q-28 80 -16 172z" />
<glyph unicode="&#x5021;" d="M164 840q-8 -52 28 -88q48 -32 104 -4q100 116 200 216q12 -408 0 -844q16 -60 84 -68q40 8 68 28q28 476 12 964q-8 48 -36 80q120 172 176 368q-28 48 -76 60q-36 -4 -68 -32q-108 -208 -240 -400q-136 -136 -252 -280zM908 728q0 -320 44 -636q400 -8 832 -20 q40 16 64 56q32 288 44 584q-16 64 -72 84q-380 24 -768 12q-100 -4 -144 -80zM1032 1440q-12 -236 12 -468q16 -52 68 -80q272 -12 536 4q60 40 72 112q8 240 8 472q-16 36 -28 64q-36 16 -72 24q-284 20 -532 -36q-44 -36 -64 -92zM1076 348q300 48 624 44q12 -60 4 -152 q-292 8 -612 -4q-20 56 -16 112zM1076 640q324 36 656 -4q4 -44 -8 -88q-328 -4 -644 -32q-8 60 -4 124zM1188 1136q172 28 360 20q28 -56 0 -116q-188 -8 -352 20q-12 36 -8 76zM1200 1300q-32 56 8 100q172 20 352 4q4 -36 4 -84q-176 -24 -364 -20z" />
<glyph unicode="&#x5026;" d="M128 660q-12 -76 56 -104q40 0 76 16q76 124 160 240v-744q12 -36 52 -56q40 0 80 4q20 28 32 52q8 524 -8 1020q72 144 128 300q12 60 0 116q-56 56 -120 24q-76 -196 -168 -392q-140 -240 -288 -476zM700 520q4 -28 20 -56q32 -28 80 -28q136 96 220 228q192 32 380 16 q-12 -44 -12 -96q-192 -16 -380 -48q-32 -168 -4 -368q80 -124 224 -180q72 -16 144 -40q148 -16 288 16q32 32 32 76q-16 56 -68 72q-168 -20 -316 20q-80 32 -148 92q-8 84 -4 172q104 24 220 20q80 28 152 80q8 100 44 172q112 -144 244 -256q28 -4 60 0q56 40 44 112 q-200 204 -364 432q124 20 272 4q28 24 40 56q4 44 -16 76q-36 24 -76 32q-188 4 -348 0q-40 56 -68 120q128 8 268 8q32 28 48 64q-4 44 -28 76q-52 24 -108 16q20 68 84 144q4 44 -20 76q-36 32 -84 24q-88 -84 -160 -196q0 120 -36 228q-28 16 -56 24q-36 -8 -60 -28 q-24 -112 -24 -232q-52 60 -80 128q-32 40 -84 40q-56 -16 -68 -68q20 -84 72 -152q-52 -16 -116 -44q-28 -32 -20 -80q16 -40 68 -52q84 20 188 16q-16 -56 -36 -120q-184 -24 -352 -68q-8 -24 -20 -48q0 -60 52 -84q104 12 212 24q-128 -224 -300 -420zM1148 832 q12 64 60 120q68 12 148 8q48 -52 76 -112q-140 -8 -284 -16z" />
<glyph unicode="&#x503a;" d="M180 656q4 -36 36 -64q40 -12 84 0q72 72 144 156q60 -228 76 -496q12 -48 56 -72q40 -8 80 8q16 24 24 48q-28 336 -64 664q156 136 260 292q0 44 -24 76q-40 20 -88 12q-260 -260 -532 -528q-40 -40 -52 -96zM872 988q-4 -44 36 -76q436 -12 872 40q44 16 76 44 q16 76 -48 104q-180 -8 -356 -28q-16 64 4 124q104 -4 208 0q48 44 32 104q-120 52 -256 44q-16 24 -8 52q120 24 256 20q60 24 60 84q-24 40 -60 56q-132 4 -252 -8q-12 100 -28 188q-36 28 -80 24q-52 -12 -72 -60v-140q-132 -8 -252 -60q-28 -56 28 -104h232q4 -24 4 -60 q-100 0 -188 -24q-48 -24 -40 -80q12 -28 44 -48q108 12 204 -12q20 -80 -32 -128h-332q-36 -20 -52 -56zM1012 824q-4 -280 12 -548q40 -40 104 -28q24 12 44 32v444q220 28 460 16q4 -240 -12 -492q8 -32 44 -52q48 -4 88 20q20 36 36 76q28 284 -8 548q-40 32 -80 48 q-332 8 -652 -16q-28 -20 -36 -48zM1176 40q-16 -76 24 -136q56 -28 112 8q24 88 56 156q112 -52 236 -112q68 -16 120 20q24 52 0 100q-172 60 -316 156q44 168 68 340q-32 68 -104 56q-52 -24 -64 -76q-48 -268 -132 -512z" />
<glyph unicode="&#x503c;" d="M100 620q-8 -52 32 -92q36 -20 84 -16q112 96 200 228q0 -344 12 -716q8 -32 28 -68q60 -36 128 -4q12 24 28 44q-12 452 -4 900q-16 28 -32 48q116 172 208 356q4 48 0 96q-28 40 -64 52q-56 8 -92 -32q-64 -140 -136 -272q-192 -260 -392 -524zM628 -12q-12 -64 44 -92 q580 8 1156 -12q60 12 108 56q20 76 -40 112q-80 4 -152 -12q-32 484 4 968q-12 68 -52 112q-164 40 -340 40q-4 108 32 204q116 12 252 4q28 20 44 52q8 68 -40 100q-128 -8 -236 12q32 108 -4 200q-52 24 -100 -4q-44 -96 -64 -208q-116 -4 -228 -12q-32 -16 -48 -48 q-8 -56 44 -96q112 4 220 -16q-16 -96 -48 -188q-144 -4 -276 -16q-24 -16 -36 -40q-8 -532 28 -1044q-100 -12 -204 -20q-44 -12 -64 -52zM1020 988q276 44 556 4q36 -120 0 -248q-268 24 -536 28q-36 100 -20 216zM1024 608q276 24 556 -12q-4 -64 -16 -128 q-76 28 -152 36q-196 0 -384 -8q-8 56 -4 112zM1040 324q256 36 536 32q4 -40 4 -92q-260 -40 -536 -12q-8 36 -4 72zM1044 52q-12 48 0 92q272 16 528 -20q4 -44 -12 -80q-260 4 -516 8z" />
<glyph unicode="&#x503e;" d="M96 724q32 -60 104 -48q104 96 172 212q8 -344 24 -688q32 -24 80 -20q28 16 52 40q28 456 -16 908q84 184 148 380q4 76 -56 100q-40 4 -72 -12q-64 -176 -136 -348q-124 -244 -300 -468q-4 -24 0 -56zM708 1500q4 -572 40 -1132q8 -40 48 -68q48 -4 100 4 q88 36 172 112q12 48 4 92q-20 20 -40 28q-72 0 -128 -32q-32 140 -20 288q188 44 348 88q0 -216 36 -424q28 -20 72 -20q36 12 56 48q-4 296 -16 584q192 32 400 16q-8 -340 -60 -664q12 -16 28 -36q60 -20 112 20q76 364 88 748q-16 40 -36 68q-48 28 -92 40 q-120 -4 -216 4q36 104 80 200q100 48 228 32q24 16 40 40q8 44 0 88q-32 32 -72 36q-284 0 -548 -28q-68 -36 -52 -112q20 -32 60 -44q92 12 176 -12q-40 -108 -92 -216h-160l-40 -36q-8 -108 -4 -224q-160 32 -332 -16q-48 264 -12 524q-16 56 -64 76q-36 4 -64 -4 q-32 -28 -40 -68zM1432 40q24 -60 96 -60q64 44 68 128q84 -92 212 -124q36 12 60 44v68q-128 108 -252 224q32 280 12 544q-40 24 -84 12q-48 -40 -56 -104q-36 -364 -56 -732z" />
<glyph unicode="&#x5047;" d="M124 768q0 -36 20 -72q28 -16 68 -28q120 100 208 232q-4 -384 -4 -764q24 -36 68 -52q36 8 72 24q60 504 0 1008q96 164 160 348q4 52 -16 88q-60 40 -112 4q-76 -176 -160 -344q-144 -224 -304 -444zM776 160q48 -36 108 -16q20 28 32 56q-8 108 -4 212q152 12 292 48 q12 32 24 60q-16 56 -64 72q-128 -4 -256 -12q-16 72 8 136q104 8 212 0q52 20 64 72q-8 68 -68 84q-108 8 -208 -8q-28 72 4 124q144 -12 272 24q24 44 52 84q12 176 16 352q-16 48 -56 60q-232 20 -420 -36q-76 -652 -8 -1312zM912 1328q84 28 184 16q8 -92 -8 -192 q-88 0 -168 -12q-12 92 -8 188zM1152 192q-8 -48 20 -84q32 -12 68 -24q88 24 168 68q72 76 164 132q104 -136 244 -228q36 -4 76 8q24 24 32 48q4 52 -20 88q-124 92 -232 212q104 180 148 376v124q-20 36 -56 52q-240 12 -460 -36q-28 -44 -12 -96q28 -28 68 -44 q140 16 288 24q-4 -132 -80 -252q-56 72 -128 144q-48 8 -76 -20q-32 -48 -8 -112q44 -72 96 -152q-148 -140 -300 -228zM1316 1152q-4 -36 16 -64q36 -24 84 -36q164 -4 320 12q48 20 76 64q4 184 4 368q-12 36 -40 52q-144 20 -300 12q-76 -8 -132 -36q-24 -36 -12 -80 q24 -36 64 -48l256 4q4 -84 4 -180q-132 -24 -268 -4q-52 -12 -72 -64z" />
<glyph unicode="&#x504f;" d="M136 696q4 -40 36 -68q36 -24 84 -12q116 112 208 248q8 -384 24 -764q36 -28 88 -28q32 16 56 44q4 456 4 908q-12 24 -28 40q52 196 132 380q4 48 -16 84q-64 48 -124 0q-84 -172 -136 -372q-156 -232 -328 -460zM652 348q8 -56 64 -80q44 -4 76 24q64 116 128 220 q-4 -220 28 -444q32 -20 80 -24q48 20 68 72q-20 96 -12 200q40 16 92 8q-4 -128 20 -256q24 -20 52 -36q40 0 76 20q24 124 16 264q40 12 92 4q-8 -136 16 -268q36 -24 88 -24q24 16 44 40q16 128 24 252q72 4 136 -16q-12 -116 -28 -232q4 -24 28 -44q48 -24 104 -4 q40 76 52 160q16 276 -12 536q-48 48 -108 60q-376 12 -740 -12q-8 72 24 136q296 16 596 12q32 12 52 40q24 200 -12 380q-356 24 -724 12q-56 -40 -64 -112q0 -148 -4 -304q-88 -304 -252 -584zM1000 1556q-4 -64 60 -92q200 -8 420 0q52 20 72 72q-4 48 -32 76 q-232 24 -484 0q-24 -20 -36 -56zM1064 1172q236 36 484 20q12 -48 8 -108q-240 -20 -480 -28q-8 56 -12 116zM1076 612q52 28 112 8v-136q-44 -12 -96 -8q-16 68 -16 136zM1344 628q56 8 108 -8q-8 -64 0 -140q-52 -12 -104 -8q-20 80 -4 156zM1608 624h116q28 -60 28 -140 q-72 -12 -136 -20q-24 80 -8 160z" />
<glyph unicode="&#x505a;" d="M120 784q-8 -52 28 -88q28 -16 72 -16q88 68 148 160q4 -328 0 -668q16 -48 64 -64q72 -8 96 56q4 424 8 844q-20 24 -28 52q116 208 176 448q-28 40 -64 52q-48 4 -76 -28q-96 -232 -216 -456q-96 -152 -208 -292zM600 1056q8 -24 28 -40q112 -20 248 4q20 -108 12 -236 q-80 4 -148 -20q-36 -28 -52 -76q-12 -248 44 -460q228 -28 460 16q48 188 32 408q-12 64 -40 116q-72 20 -140 24q-8 112 0 228q100 0 192 36q16 32 16 64q-20 56 -72 68h-136q0 164 -28 328q-36 32 -84 24q-32 -8 -48 -32q-16 -164 -8 -328q-136 -8 -256 -44 q-24 -32 -20 -80zM844 608q108 44 224 8q0 -112 -8 -220q-96 -32 -200 -16q-8 120 -16 228zM1176 124q16 -52 80 -56q180 72 304 216q56 -80 144 -164q76 -68 184 -64q32 28 44 68q-8 40 -24 68q-40 16 -76 36q-100 96 -168 200q72 216 132 436q12 96 -12 180q52 -8 116 4 q20 20 32 44q8 64 -28 100q-180 32 -372 4q32 152 52 316q-12 32 -40 52q-52 24 -96 -8q-48 -228 -128 -444q-52 -100 -112 -196q-4 -36 12 -68q32 -32 88 -28q100 96 156 216q96 12 188 4q-8 -184 -80 -352q-32 72 -52 148q-32 28 -56 36q-44 4 -72 -24q-20 -32 -12 -76 q40 -160 92 -320q-52 -76 -128 -152q-76 -52 -152 -100q-20 -32 -16 -76z" />
<glyph unicode="&#x505c;" d="M156 772q-4 -28 12 -56q32 -40 88 -36q100 92 164 228q-16 -420 32 -852q36 -36 104 -24q28 28 44 64q-28 436 -12 872q-8 84 -52 144q48 148 116 284q12 60 4 116q-28 28 -56 40q-52 8 -84 -32q-140 -384 -360 -748zM696 768q-12 -124 20 -228q60 -44 124 0 q24 64 16 140q420 44 856 16q0 -60 12 -124q20 -20 48 -36q56 -8 96 32q32 128 -16 244q-40 24 -76 36q-516 16 -1020 4q-56 -20 -60 -84zM756 1400q20 -40 64 -64q424 40 860 12q40 12 68 52q8 40 -4 72q-28 28 -60 40q-184 8 -368 0q0 88 -24 160q-56 48 -120 8 q-36 -68 -20 -164q-204 12 -372 -40q-24 -28 -24 -76zM904 616q-24 -52 8 -100q152 -28 308 -36q4 -244 -24 -480q8 -24 32 -52q40 -24 96 -12q36 48 48 104q8 228 0 448q116 8 244 4q60 28 52 104q-20 40 -56 52q-328 8 -664 0q-24 -8 -44 -32zM956 940q16 -32 52 -48 q296 8 568 44q36 144 24 300q-20 40 -56 52q-296 32 -580 -12q-20 -156 -8 -336zM1112 1072q-8 44 12 72q164 -4 324 -16q-8 -24 -12 -52q-168 -40 -324 -4z" />
<glyph unicode="&#x5065;" d="M96 820q-12 -52 24 -88q32 -20 80 -16q64 60 96 140q-8 -400 8 -780q32 -24 84 -24q28 16 48 40q36 444 16 892q-12 44 -40 76q88 196 148 396q12 64 -28 104q-68 36 -112 -12q-28 -112 -64 -224q-120 -260 -260 -504zM544 96q-36 -52 4 -108q32 -20 80 -24 q128 84 204 212q140 -88 288 -172q88 -32 184 -56q92 -4 192 0q236 32 444 128q24 36 20 88q-12 36 -48 48q-208 -40 -400 -108q-72 -4 -140 8q-4 136 4 276q140 32 292 12q28 24 48 56q4 56 -36 88q-136 40 -284 12q-28 60 16 96q56 -16 128 -12q44 20 68 64q0 36 -12 60 q-84 48 -192 40q-8 36 -4 72q80 0 168 4q76 96 88 224q112 -20 208 12q40 64 -8 120q-96 24 -192 40q8 100 -32 172q-84 84 -200 88q4 68 -12 128q-32 20 -60 32q-32 -8 -60 -24q-40 -44 -32 -116q-52 -20 -112 -16q-60 -28 -56 -96q12 -28 36 -48q60 -4 128 -4 q4 -56 4 -120q-140 4 -260 -28q-44 -28 -36 -84q16 -48 72 -60q100 12 208 16q16 -32 12 -80q-64 -8 -120 -28q-40 -48 -8 -104q44 -40 108 -36q4 -24 4 -56q-84 -4 -152 -44q-28 -44 -8 -96q28 -28 68 -36q44 8 92 12q16 -36 4 -88q-136 -4 -244 -52q-24 -28 -20 -72 q16 -44 64 -60q92 24 172 -4q-4 -112 0 -224q-164 60 -308 180q88 236 120 484q-24 32 -52 44q-72 -4 -140 -8q44 124 120 248q0 60 -36 92q-112 28 -228 28q-80 -8 -100 -76q4 -32 20 -60q60 -32 136 -36q-72 -132 -176 -252q-8 -48 20 -88q124 -32 252 -20 q-16 -132 -68 -252q-72 32 -136 68q-48 4 -76 -32q-28 -44 0 -96q60 -44 132 -92q-56 -104 -160 -184zM1416 1032q-20 52 12 88q40 8 64 -12q0 -44 -16 -76h-60zM1424 1280q-4 52 4 92q32 -4 64 -12q24 -32 20 -84q-48 -12 -88 4z" />
<glyph unicode="&#x5076;" d="M128 800q0 -72 68 -96q36 0 72 16q56 100 124 156q-12 -412 16 -812q32 -24 84 -24q44 16 64 60q4 440 0 876q-8 60 -32 108q100 176 184 356q0 44 -12 72q-56 52 -120 16q-192 -380 -448 -728zM760 712q-12 -316 20 -624q24 -16 56 -32q36 8 68 24q24 260 16 532 q124 36 272 24q4 -140 -4 -264q-84 8 -156 -12q-52 -52 -16 -120q92 -36 212 -36q144 32 300 48q8 -28 32 -52q36 -16 80 -12q36 20 52 56q-48 164 -132 300q-28 20 -64 12q-40 -16 -52 -52q0 -44 12 -88q-48 -24 -108 -32q0 124 8 252q184 20 376 0q40 -168 12 -360 q-20 -88 -48 -176q8 -32 32 -60q60 -32 112 4q32 64 56 128q24 232 16 468q-16 80 -60 136q-236 44 -484 20q-24 56 -8 120q168 -4 324 24q28 224 28 460q-8 80 -24 156q-44 56 -104 64q-328 16 -628 -28q-52 -24 -72 -76v-468q4 -64 40 -116q132 -16 276 -12q8 -60 0 -124 q-192 -20 -384 -12q-48 -16 -56 -72zM1040 1080v88q76 16 160 8q12 -56 -8 -104q-80 4 -152 8zM1040 1436q76 36 172 28q8 -68 -12 -136q-80 -4 -156 0q-8 52 -4 108zM1360 1344q0 64 20 120q76 -4 160 -8q8 -52 8 -112q-100 -32 -188 0zM1364 1072q-24 60 4 104 q76 16 164 8q20 -44 12 -104q-88 -12 -180 -8z" />
<glyph unicode="&#x5077;" d="M128 652q0 -56 56 -80q36 0 72 8q104 112 188 228q0 -332 12 -700q8 -64 72 -84q68 -4 96 56q-20 416 -8 840q-16 32 -40 48q132 176 220 356q4 56 -20 96q-52 36 -104 8q-232 -408 -544 -776zM800 768q24 -364 40 -720q24 -24 60 -36q48 16 76 68v160q92 20 192 20 q16 -108 -4 -220q12 -48 60 -68q48 8 80 56q32 348 28 708q-16 48 -56 68q-224 44 -452 24q-24 -24 -24 -60zM860 1184q-8 -44 16 -80q32 -8 72 -8q188 188 372 360q236 -176 464 -364h76q48 48 12 108q-228 188 -460 368q32 64 52 132q-32 60 -92 44q-256 -268 -512 -560z M952 688h220q28 -24 20 -68q-112 -8 -228 0q-28 32 -12 68zM972 480q100 8 208 0q12 -32 8 -72q-100 -32 -208 -20q-36 48 -8 92zM1080 1084q-4 -32 4 -64q36 -28 84 -36h324q40 48 16 100q-32 24 -68 32q-156 8 -312 4q-32 -12 -48 -36zM1424 184q36 -32 92 -20 q16 16 32 28v392q-64 52 -124 0v-400zM1452 -56q4 -48 52 -64h216q72 16 128 56q72 420 40 884q-20 28 -44 40q-72 12 -96 -48q32 -356 -16 -760q-20 -28 -52 -40q-112 12 -208 -16q-16 -24 -20 -52z" />
<glyph unicode="&#x507f;" d="M96 752q-8 -44 16 -76q44 -36 104 -16q96 112 196 224q4 -432 16 -880q24 -24 56 -36q44 0 76 28q28 420 20 860q-4 104 -44 188l168 312q8 56 -20 92q-56 36 -108 0q-108 -204 -236 -408q-144 -136 -244 -288zM704 976q40 -140 88 -284q36 -48 100 -32q20 20 36 44 q-16 108 -36 196q428 68 896 44q4 -128 0 -268q28 -44 92 -36q40 28 56 72q16 156 24 312q-12 44 -52 68q-72 20 -152 12q52 136 128 268q4 56 -4 108q-44 52 -104 24q-120 -184 -188 -400q-60 -4 -120 0q-16 292 -28 592q-32 60 -96 56q-52 -8 -64 -64q12 -292 48 -576 q-64 -12 -132 -8q-80 164 -192 300q-28 24 -60 20q-56 -16 -68 -72q44 -140 156 -256q-76 -32 -172 -36l-44 44q-56 24 -100 -16q-20 -48 -12 -112zM844 352q16 -44 64 -56q120 8 248 4q-76 -144 -92 -332q8 -28 36 -52q136 -32 292 -16q136 32 280 48q20 -20 44 -40 q56 -8 100 20q16 32 12 68q-64 144 -140 280q-64 20 -100 -28q-20 -80 8 -152q-168 -40 -340 -32q4 128 80 236q216 12 444 12q52 32 48 100q-12 36 -40 52q-448 24 -904 -16q-52 -32 -40 -96zM1080 736q-32 -64 24 -116q224 -12 460 -8q40 36 32 88q-24 48 -76 60 q-184 12 -376 12q-36 -8 -64 -36z" />
<glyph unicode="&#x5085;" d="M140 832q0 -44 24 -80q56 -32 116 0q76 104 152 184q8 -396 0 -808q4 -36 36 -68q44 -24 96 -8q20 24 36 48q4 476 0 928q-12 44 -40 68q88 180 164 364q4 52 -20 84q-68 40 -120 -8q-84 -208 -200 -404q-128 -144 -244 -300zM804 1200q12 -280 16 -572q12 -28 32 -60 q60 -32 112 8q20 48 24 92l212 4q0 -60 28 -120q52 -36 112 -4q20 60 28 128h244q16 -36 36 -68q48 -32 108 -4q12 40 28 76q8 276 0 552q-12 32 -36 56q-180 24 -372 4q-24 52 -12 112q100 32 224 28q44 32 40 96q-24 44 -68 56l-192 -4q-8 60 -32 108q-32 20 -64 24 q-40 -8 -68 -48q-8 -40 -4 -84q-152 -8 -304 -40q-28 -32 -24 -84q16 -28 48 -52q140 4 284 12q12 -56 16 -120q-200 -8 -384 -48q-24 -20 -32 -48zM816 376q-8 -68 56 -100q296 20 608 8q4 -160 -12 -324q20 -48 76 -60q32 8 64 20q56 172 40 376q104 -4 188 40 q16 32 16 72q-16 48 -64 60q-68 -8 -132 -12q-8 88 -36 152q-56 40 -112 4q-16 -84 -32 -172q-320 16 -624 -12q-24 -20 -36 -52zM964 1120q124 12 252 12q24 -32 0 -64h-240q-20 24 -12 52zM972 908q124 28 248 0q0 -40 -16 -80q-120 -12 -228 -4q-8 40 -4 84zM988 200 q-28 -52 4 -104q116 -56 244 -104q48 -4 84 20q20 44 12 88q-108 92 -248 128q-60 12 -96 -28zM1364 848q-4 44 16 76q132 4 252 -8v-72q-140 -20 -268 4zM1388 1076q-28 32 0 64h240q12 -40 -8 -72q-120 0 -232 8zM1672 1624q44 -92 104 -184q56 -32 116 4q20 40 16 84 q-36 108 -112 184q-56 32 -104 -4q-32 -32 -20 -84z" />
<glyph unicode="&#x508d;" d="M128 780q-8 -48 20 -88q36 -16 84 -16q112 116 212 236l-8 -800q8 -32 32 -60q44 -28 100 -8q28 24 36 52q0 492 -4 972q-28 24 -28 56q76 148 156 288q0 44 -8 80q-24 40 -64 52q-36 4 -60 -12q-68 -116 -116 -240q-164 -264 -352 -512zM724 816q8 -32 28 -60 q52 -32 108 -4q28 92 56 188q408 40 828 8q-32 -68 0 -140q52 -44 116 -12q64 112 68 244q-32 52 -84 68q-156 12 -324 4q0 100 32 196q40 8 84 8q28 24 48 56q4 56 -28 84q-148 28 -296 36q28 104 -24 184q-32 20 -68 16q-52 -16 -64 -72v-136q-160 -4 -292 -56 q-16 -28 -12 -72q12 -28 40 -52q32 -4 72 -4q24 -88 40 -188q-140 -12 -268 -44q-48 -116 -60 -252zM884 188q-4 -32 12 -60q36 -40 92 -36q60 32 112 76q120 128 204 268q64 -20 96 -72q4 -84 -28 -156q-112 -80 -184 -176q0 -40 28 -72q32 -16 76 -16q104 44 192 144 q52 84 80 172q0 92 -12 172q-28 52 -76 92q-48 32 -104 40q-8 24 -4 52q160 20 328 32q20 36 20 80q-24 48 -68 60q-140 -4 -276 -8q-12 72 -36 136q-56 40 -112 4q-32 -60 -12 -140q-156 -4 -300 -32q-36 -32 -28 -88q16 -40 64 -52q120 16 252 12q-8 -64 -44 -124 q-132 -168 -272 -308zM1172 1308q100 24 216 16q-8 -104 -56 -212h-120q-32 96 -40 196z" />
<glyph unicode="&#x50a8;" d="M96 672q-4 -68 60 -96q48 -4 84 24q48 76 108 152q20 -380 8 -776q16 -44 68 -64q36 4 72 16q12 32 28 52v820q-12 84 -32 156q88 180 184 352q4 80 -56 108q-52 4 -84 -20q-184 -376 -440 -724zM560 516q20 -52 76 -72q80 12 148 -4q-4 -192 0 -384q44 -48 116 -36 q124 64 252 156v72q-32 44 -80 40q-64 -24 -128 -52q-12 148 4 296q-12 72 -76 92q-160 8 -296 -44q-24 -24 -16 -64zM620 944q72 -128 208 -208q44 -12 84 12q20 32 28 64q-28 60 -64 100q-80 84 -168 132q-48 12 -80 -28q-12 -32 -8 -72zM984 880q24 -36 68 -52 q120 16 248 28q-124 -176 -252 -360q-12 -40 8 -76q32 -32 84 -28q60 48 108 116q48 -256 56 -536q8 -32 36 -60q248 -8 500 0q44 32 64 80q0 328 32 644q-24 56 -76 76q-240 0 -468 -12q60 92 144 180q172 44 360 52q28 16 48 48q16 76 -48 104q-112 0 -212 -12 q64 88 88 200q-20 32 -44 52q-56 16 -92 -20q-60 -112 -132 -172q-12 120 16 224q60 -12 140 -8l56 56q8 72 -48 104h-196q0 120 -44 216q-32 16 -64 12q-48 -12 -64 -60v-164q-124 -12 -240 -44q-32 -52 -8 -116q20 -16 44 -32q116 12 228 20q28 -140 12 -304 q-132 -44 -288 -44q-40 -8 -64 -44q-8 -32 0 -68zM1416 520q152 64 348 40q12 -72 -16 -152q-156 -12 -312 0q-24 52 -20 112zM1456 56q-16 100 4 188q144 8 280 -8v-164q-144 -8 -284 -16z" />
<glyph unicode="&#x50ac;" d="M172 616q16 -60 76 -84q20 8 48 8q100 120 176 248q20 -388 20 -792q56 -44 124 -16q16 20 28 40q16 536 0 1052q88 216 152 444q-4 36 -16 60q-52 48 -112 16q-64 -156 -116 -316q-160 -344 -380 -660zM756 684q24 -56 92 -52q76 52 136 88q24 -364 0 -712 q16 -20 40 -36q408 24 808 16q16 20 36 44q12 52 -20 92q-140 40 -304 28q-16 44 -8 96q52 20 120 16q28 24 44 52q0 40 -8 68q-68 40 -152 44q0 52 8 96q68 -8 144 0q60 44 40 112q-76 64 -188 48q-8 44 -4 88q116 4 232 20q24 40 20 92q-16 32 -40 48q-80 16 -160 8 q36 100 48 216q-24 44 -68 56q-48 0 -68 -36q-44 -124 -104 -244q-104 -16 -216 -24q64 108 152 216q4 72 -56 104q184 28 388 16q16 -16 48 -28q48 -4 84 28q36 152 28 316q-16 52 -68 76q-48 8 -76 -24q-36 -88 -20 -204q-108 -4 -220 -4q-8 116 -4 228q-28 56 -84 60 q-36 -8 -64 -36q-24 -124 -20 -264q-80 -20 -168 -20q0 100 -20 188q-36 28 -80 24q-48 -20 -60 -64q-20 -148 28 -280q20 -20 52 -36q96 8 188 24q-172 -256 -440 -460q-24 -36 -16 -84zM1152 648q-12 48 0 92q112 32 240 32q8 -32 4 -84q-112 -36 -244 -40zM1160 408v88 q108 16 224 28q28 -60 -4 -120q-116 -20 -220 4zM1168 136q-24 60 8 112q100 8 204 4q12 -40 4 -96q-100 -28 -216 -20z" />
<glyph unicode="&#x50b2;" d="M96 868q4 -28 12 -56q36 -40 100 -32q100 76 164 176q20 -400 4 -840q8 -44 36 -88q28 -16 72 -16q44 16 60 60q-8 468 0 968q-12 44 -40 72q112 168 192 344q0 48 -16 84q-60 48 -116 12q-68 -148 -152 -292q-156 -200 -316 -392zM588 1028q20 -48 68 -60q312 0 600 36 q44 60 4 116q-100 36 -212 20q-12 48 0 92q104 12 208 36q32 44 24 96q-24 32 -56 48q-80 -12 -164 -12q12 116 0 224q-64 48 -132 12q-44 -108 -28 -244q-76 -16 -156 -20q-32 -16 -44 -52q-8 -40 16 -76q84 -32 172 -24v-80q-140 -16 -276 -32q-28 -32 -24 -80zM620 728 q-8 -44 24 -76q104 -24 232 -16q-80 -216 -224 -412q0 -36 20 -72q44 -32 100 -16q120 156 216 324q44 -20 84 -52q4 -56 4 -116q-60 -92 -136 -168q-4 -36 16 -72q32 -24 88 -24q64 32 124 92q40 68 64 140q12 132 -28 240q-76 72 -160 120q72 36 188 16q44 16 64 60 q4 44 -16 72q-104 44 -228 28q-8 68 -20 128q-32 24 -60 36q-44 0 -68 -28q-24 -68 -20 -140q-124 4 -236 -16q-20 -20 -28 -48zM1224 152q0 -36 20 -68q36 -24 88 -20q144 100 256 232q96 -144 216 -284q56 -40 120 -8q28 44 24 96q-168 172 -264 364q112 248 168 512v144 q44 8 80 32q20 36 16 80q-20 40 -56 52q-180 4 -340 -4q40 144 52 292q-20 28 -44 40q-56 20 -92 -24q-76 -268 -164 -540q-8 -44 24 -80q28 -16 72 -16q84 68 108 172q96 8 196 4q-16 -212 -84 -412q-36 112 -116 212q-80 12 -100 -60q44 -192 96 -392q-128 -176 -276 -324 z" />
<glyph unicode="&#x50bb;" d="M216 584q0 -36 28 -64q36 -16 88 -12q88 84 128 200q20 -268 12 -576q8 -48 36 -92q32 -20 84 -16q40 20 56 64q-24 408 -8 816q-8 40 -44 52q68 200 144 400q-12 24 -16 48q-60 56 -128 8q-160 -420 -380 -828zM804 392q8 -24 28 -48q44 -20 100 -8q76 128 132 260 q4 60 -40 80q-60 12 -100 -24q-68 -124 -120 -260zM844 1468q16 -352 32 -716q24 -36 64 -52q372 8 752 0q40 16 76 36q52 336 68 696q-20 48 -68 60q-320 12 -628 8q120 76 212 168q12 48 -20 80q-36 12 -72 8q-228 -124 -416 -288zM972 232q-12 -72 52 -104q56 0 92 40 q40 -12 72 -48q-84 -64 -136 -148v-52q40 -40 108 -32l168 152q172 -72 364 -104q28 24 44 56q0 52 -36 76q-128 36 -248 92q76 76 140 156q24 72 -24 120q-152 36 -308 52q8 44 12 84q-36 52 -96 40q-24 -8 -48 -28q-80 -172 -156 -352zM1020 1324q184 52 392 44 q128 0 252 -28q-4 -260 -48 -496q-288 -8 -576 -4q-32 232 -20 484zM1080 1148q44 -60 104 -100q-28 -60 -36 -128q28 -48 88 -40q40 28 80 64q88 -32 188 -48q56 24 48 88q-52 44 -120 72q40 72 108 136v56q-36 56 -104 36q-76 -68 -156 -124q-60 68 -152 60 q-52 -16 -48 -72zM1184 328q108 24 212 -8q-48 -44 -92 -88q-88 20 -120 96zM1544 628q12 -116 108 -200q52 -48 128 -48q48 28 40 88q-48 100 -136 180q-44 40 -100 28q-32 -16 -40 -48z" />
<glyph unicode="&#x50cf;" d="M204 868q-4 -44 16 -80q56 -44 124 -8q60 88 136 172q20 -436 -12 -872q24 -56 92 -68q72 24 88 104q0 488 4 988q-12 32 -28 52q76 148 156 292v84q-24 32 -56 44q-48 8 -80 -16q-120 -248 -268 -484q-96 -100 -172 -208zM736 612q16 -36 60 -56q96 28 184 80 q108 96 228 168q16 -8 24 -28q-216 -168 -420 -320q-4 -40 24 -72q24 -12 56 -16q196 92 376 220q24 -36 4 -76q-212 -156 -440 -284q-44 -44 -16 -108q16 -20 52 -32q200 72 376 204q-36 -124 -140 -232q-8 -52 24 -84q52 -28 108 -4q76 80 124 156q48 104 68 224 q116 -156 284 -284q60 -28 116 12q20 44 12 88q-116 116 -240 232l-112 184q160 72 320 164q32 56 8 108q-24 16 -44 28q-188 -68 -360 -152q-32 84 -72 156q176 16 352 24q28 68 44 140q8 116 -24 200q-48 40 -108 52q-124 0 -216 20q64 80 120 160q12 80 -44 124 q-68 28 -124 52q-116 36 -224 -4q-100 -116 -184 -244q-4 -44 28 -76q56 -28 108 4q76 88 140 180q60 -4 104 -28q-68 -88 -120 -184q-180 4 -324 -64q-48 -172 0 -344q88 -32 156 -40q-128 -84 -256 -164q-40 -32 -32 -84zM1004 1132q80 24 176 20q4 -48 4 -104 q-88 -4 -168 -20q-24 44 -12 104zM1340 1052q-16 60 8 108q116 12 224 -20q12 -48 -12 -88q-112 12 -220 0z" />
<glyph unicode="&#x50da;" d="M112 748q-4 -40 20 -72q32 -28 84 -24q92 100 160 224q4 -432 36 -864q28 -16 68 -24q28 12 60 28q28 508 4 1040q-12 32 -40 56q64 160 132 312q12 64 -12 112q-60 44 -116 4q-172 -404 -396 -792zM652 832q12 -40 56 -52q108 16 200 80q20 -220 44 -428q88 -12 192 -8 q28 -184 4 -380q12 -52 64 -76q40 0 76 16q36 104 36 224q-12 112 -20 216q96 16 200 16q24 20 36 44q20 188 28 388q144 -52 304 -104q68 24 68 100q-12 28 -28 48q-144 52 -264 116q48 72 104 144q-4 40 -24 64q-36 24 -80 20q-84 -48 -136 -136q-104 56 -144 172 q164 8 336 8q44 20 60 68q-8 44 -24 72q-176 32 -376 16q8 104 -36 184q-68 32 -116 -24q-12 -88 -40 -172q-184 12 -348 -28q-16 -32 -12 -80q16 -36 60 -52q120 -8 252 4q-52 -88 -144 -168q-88 52 -172 108q-40 4 -68 -16q-48 -52 -8 -116q56 -40 112 -84 q-84 -60 -180 -104q-16 -32 -12 -80zM788 64q56 -44 124 -16q76 92 132 200q8 56 -32 92q-32 20 -72 12q-76 -84 -152 -188q-28 -48 0 -100zM1072 984q76 104 168 192q72 -84 160 -172q-164 -20 -328 -20zM1076 816q152 40 332 24q12 -32 -8 -60q-160 4 -312 -16 q-20 24 -12 52zM1088 644q136 40 300 28q12 -32 8 -76q-148 -24 -304 -16q-8 32 -4 64zM1448 240q72 -116 168 -212q28 -8 64 -8q36 16 56 56q-48 156 -160 260q-52 36 -100 4q-40 -40 -28 -100z" />
<glyph unicode="&#x50f5;" d="M92 720q16 -40 64 -64q28 0 52 8q116 124 208 224q-8 -428 20 -844q48 -28 108 -12q24 28 36 60q8 404 0 800q-8 116 -48 204q88 176 144 364q4 68 -32 112q-56 32 -104 0q-68 -236 -180 -456q-80 -152 -216 -272q-48 -52 -52 -124zM736 792q4 -56 60 -76q520 24 1040 16 q60 16 76 76q-12 68 -72 80q-552 4 -1076 -40zM752 -12q16 -44 68 -68q536 20 1076 28q64 28 60 100q-20 40 -60 56q-548 -4 -1120 -40q-24 -32 -24 -76zM872 1444q-8 -236 20 -484q16 -36 56 -52q396 28 780 24q28 20 40 48q20 264 -28 504q-392 16 -788 0q-40 -16 -80 -40 zM900 196q8 -28 36 -52q368 -16 736 -8q56 24 104 52q40 200 28 420q-16 20 -24 36q-364 36 -748 16q-88 0 -132 -52q-8 -204 0 -412zM900 1616q16 -56 80 -72q376 12 732 36q28 40 24 88q-20 36 -60 52q-356 -4 -708 -16q-64 -20 -68 -88zM1028 1256q-8 36 0 68 q88 20 184 16q12 -40 8 -88q-100 -20 -192 4zM1040 1136q88 12 184 8q12 -28 8 -68q-92 -12 -188 -8q-8 32 -4 68zM1056 296q88 40 200 24q16 -20 12 -56q-96 -4 -188 -12q-32 12 -24 44zM1064 516q92 4 180 12q36 -52 8 -104q-96 4 -184 -4q-32 48 -4 96zM1376 1260 q-4 48 4 84h228q8 -32 12 -72q-120 -20 -244 -12zM1380 1084v60q108 24 228 8q12 -40 -8 -76q-116 -12 -220 8zM1416 528q120 12 232 -16q4 -40 -8 -80h-216q-20 48 -8 96zM1424 324q112 8 220 -16q-8 -16 -8 -40q-104 -12 -208 -16q-20 36 -4 72z" />
<glyph unicode="&#x50fb;" d="M128 668q20 -28 52 -44q36 -4 68 12q96 116 176 200q8 -312 -12 -620q8 -64 76 -92q60 4 92 60q24 460 -24 896q92 188 156 384q0 44 -20 76q-32 16 -56 24q-40 0 -68 -28q-36 -116 -80 -228q-124 -236 -264 -468q-56 -36 -92 -88q-20 -40 -4 -84zM632 468q-8 -40 12 -76 q52 -44 116 -8q52 92 84 188q20 -100 4 -212q8 -56 56 -80q180 -8 332 36q32 204 20 420q-16 32 -40 44q-168 40 -328 -12q-4 96 24 192h160q80 20 148 64q44 168 32 352l-24 40q-112 36 -244 24q-112 -16 -216 -48q-8 -324 -44 -676q-36 -124 -92 -248zM908 1260 q92 40 188 12q-8 -72 -8 -144q-88 -28 -176 -4zM1000 624q36 28 92 16q12 -88 8 -184q-40 -12 -84 -8q-20 84 -16 176zM1296 820q12 -40 60 -52q116 8 240 4q-32 -28 -56 -76q0 -40 -4 -84q-96 -4 -184 -28q-52 -52 -12 -112q80 -44 192 -20q-12 -224 16 -424q28 -28 76 -28 q28 12 52 28q28 204 32 428q88 -4 180 -4q28 24 44 56q8 56 -28 88q-96 28 -200 16q-20 48 -12 104q-20 32 -56 44q124 0 256 24q24 32 24 80q-24 64 -92 60q24 124 28 264q-24 40 -64 52q60 8 112 44q12 32 16 64q-16 48 -60 64q-72 4 -136 -8q0 112 -20 204q-32 32 -72 32 q-60 -12 -76 -64v-168q-80 -12 -156 4q-40 -8 -68 -40q-32 -72 32 -120q180 -8 396 -4q-76 -124 -104 -320h-68q-40 128 -64 260q-64 40 -116 -8q-24 -124 12 -252q-40 -12 -84 -16q-48 -32 -36 -92z" />
<glyph unicode="&#x513f;" d="M356 292q0 -44 24 -84q64 -40 128 8q140 208 224 428q64 228 92 464v220q-12 68 -60 108q-52 16 -92 -12q-24 -176 -16 -388q-32 -172 -80 -340q-84 -212 -220 -404zM1048 824q8 -196 40 -384q36 -112 136 -204q108 -64 240 -96q108 -12 200 24q20 28 28 68q-8 48 -40 72 q-112 0 -220 16q-80 28 -144 84q-76 160 -72 344q0 360 36 708q-20 36 -52 48q-52 8 -88 -24q-64 -316 -64 -656z" />
<glyph unicode="&#x5141;" d="M376 188q-8 -44 20 -80q52 -32 120 -12q88 96 160 212q96 200 156 408q12 80 -12 140q-28 20 -52 28q-48 8 -76 -24q-60 -256 -176 -488q-76 -88 -140 -184zM404 1020q0 -40 28 -76q104 -24 220 -8q312 52 612 116q68 -80 152 -132q40 0 76 16q40 44 24 100 q-144 148 -256 316q-56 28 -104 0q-36 -36 -28 -96q20 -24 32 -60q-236 -72 -472 -80q160 192 292 392q4 36 4 68q-24 44 -68 56q-40 0 -72 -20q-208 -300 -440 -592zM960 464q12 -108 52 -208q36 -52 88 -104q108 -72 240 -108q132 -24 280 -32q64 28 56 108q-12 24 -28 36 q-136 32 -272 44q-112 36 -192 108q-44 100 -56 204q-4 188 12 364q-24 52 -76 64q-36 0 -64 -20q-28 -28 -36 -68q-8 -192 -4 -388z" />
<glyph unicode="&#x5143;" d="M276 1032q-4 -40 16 -72q168 -40 356 -4q-148 -352 -344 -712q16 -40 60 -60q56 -8 92 32q120 196 224 388q72 184 144 364q76 24 152 -4q-8 -184 -8 -364q20 -152 92 -284q44 -52 104 -108q148 -84 332 -120q124 -16 236 16q44 44 28 112q-28 36 -68 44 q-76 -20 -160 -16q-128 28 -240 72q-72 64 -112 128q-32 88 -48 180q-4 188 8 356q184 4 368 -4q52 16 76 68q0 48 -24 76q-44 16 -84 24q-596 4 -1160 -52q-24 -24 -40 -60zM512 1472q-4 -72 64 -96q352 8 696 44q48 40 36 100q-20 44 -64 52q-364 -8 -708 -52z" />
<glyph unicode="&#x5144;" d="M352 148q0 -32 16 -64q40 -32 96 -24q68 72 124 148q112 200 208 408q56 152 84 316q44 24 84 0q-4 -256 -12 -508q12 -128 60 -244q52 -56 112 -96q100 -48 208 -76q160 0 316 36q48 64 12 132q-28 12 -52 24q-116 -20 -236 -36q-116 28 -212 92q-28 56 -40 116 q-8 288 8 568q120 -8 228 12q28 80 48 164q24 204 28 412q-12 32 -32 64q-88 36 -188 40q-216 -4 -432 -16q-164 -16 -308 -84q28 -284 92 -596q72 -20 156 -12q-12 -60 -28 -124q-132 -340 -340 -652zM640 1420q304 68 620 44q16 -180 -32 -352q-268 -12 -528 -32 q-20 176 -60 340z" />
<glyph unicode="&#x5145;" d="M456 1360q-4 -72 56 -96q180 24 360 44q-136 -212 -308 -424q-12 -64 48 -92q336 44 672 120q52 -72 108 -148q36 -24 88 -12q28 24 44 60q-100 220 -252 392q-36 28 -84 20q-52 -24 -52 -84q24 -40 40 -88q-160 -40 -320 -68q100 164 224 324q240 -12 476 -24 q28 28 40 64q-4 36 -16 64q-88 36 -180 48l-272 4q-36 116 -84 220q-68 36 -120 -16q-8 -108 24 -204q-248 4 -460 -56q-20 -20 -32 -48zM536 64q-4 -44 20 -80q56 -36 120 -4q100 168 184 332q60 164 100 336q8 72 -20 124q-60 44 -112 0q-32 -160 -84 -308 q-96 -208 -208 -400zM1056 364q20 -92 60 -184q40 -52 100 -112q100 -80 216 -140q48 -8 92 12q32 40 28 100q-148 84 -292 220q-28 76 -48 148q-24 192 -8 372q-28 56 -84 56q-32 -8 -56 -28q-48 -220 -8 -444z" />
<glyph unicode="&#x5146;" d="M240 516q20 -20 48 -32q200 68 400 140q-12 -72 -36 -144q-108 -140 -180 -296q16 -68 96 -84q28 12 60 20q120 132 192 296q36 136 68 280q12 392 -12 784q-32 68 -108 64q-28 -8 -56 -36q-8 -352 0 -712q-248 -16 -468 -156q-44 -60 -4 -124zM316 1108 q100 -132 260 -208q44 -4 80 24q28 44 20 92q-100 124 -244 196q-56 8 -92 -32q-20 -32 -24 -72zM992 644q20 -140 64 -280q44 -96 116 -184q160 -112 356 -156q152 -16 296 16q28 36 24 84q-24 48 -72 64q-88 -8 -180 -8q-140 28 -264 92q-92 72 -132 172q-60 184 -44 388 l32 -64q184 -96 384 -160q44 0 84 20q24 40 20 92q-192 116 -416 192q-76 8 -96 -56q-16 108 -8 228q16 -44 68 -80h48q200 132 332 312q0 72 -64 96q-60 4 -96 -32q-152 -132 -272 -276q-16 224 8 460q-28 68 -100 60q-28 -8 -48 -32q-52 -464 -40 -948z" />
<glyph unicode="&#x5148;" d="M292 1128q-36 -56 12 -112q36 -16 80 -20q112 60 196 156q172 0 344 -12q24 -140 -4 -280q-284 0 -552 -32q-28 -36 -24 -88q20 -36 72 -56q164 4 324 12q-40 -176 -156 -324q-104 -128 -204 -244q-8 -52 32 -84q52 -32 112 -4q124 136 252 296q104 168 148 364 q72 28 148 4q-20 -240 20 -460q28 -64 72 -124q84 -72 184 -108q92 -16 188 -40q120 -12 224 20q32 36 32 80q-20 48 -68 64q-172 -4 -320 32q-72 32 -116 80q-32 60 -44 128q-8 156 -4 320q188 4 368 20q20 24 36 52q4 52 -24 84q-244 32 -504 16q-16 124 -8 276 q184 0 348 36q12 28 16 56q-16 64 -76 80q-160 -8 -296 0q20 176 -16 324q-60 40 -120 12q-28 -20 -36 -48q-4 -144 0 -296q-124 -8 -240 -4q12 68 40 136q8 64 -28 108q-36 28 -80 24q-28 -8 -48 -32q-32 -132 -96 -252q-84 -88 -184 -160z" />
<glyph unicode="&#x5149;" d="M324 840q32 -28 88 -36q184 28 384 24q-52 -216 -184 -412q-96 -116 -196 -224q-20 -28 -16 -68q12 -44 60 -64h56q124 108 228 252q128 216 212 444q-12 56 8 92q52 8 100 -8q-20 -188 -12 -380q28 -152 108 -288q84 -84 192 -128q100 -24 200 -52q100 -16 188 16l24 48 q0 48 -28 76q-168 24 -328 68q-60 32 -108 68q-48 96 -80 188q-8 196 8 392q208 8 412 16q28 28 40 68q-12 40 -28 64q-128 36 -260 28q88 196 160 392q-12 32 -28 52q-60 32 -112 0q-108 -188 -180 -396q8 -24 16 -52q-84 -20 -172 -16q-12 296 -4 592q-16 48 -64 60 q-72 8 -100 -52q-16 -304 12 -604l-144 -16q-40 204 -132 388q-24 24 -44 32q-84 16 -108 -56q52 -180 116 -364q-140 -8 -272 -28q-48 -56 -12 -116z" />
<glyph unicode="&#x514b;" d="M316 104q0 -64 64 -92q44 0 84 20q280 308 488 640h36q-12 -180 -12 -372q16 -100 72 -184q72 -80 176 -128q176 -64 388 -56q56 12 108 40q16 32 16 72q-20 44 -60 64q-88 -16 -180 -20q-96 20 -184 40q-72 32 -128 80q-28 52 -48 104q-12 180 24 344q76 0 152 4 q40 36 80 84q36 164 32 344q-16 56 -48 100q-160 56 -344 52q-12 60 24 108q232 -4 460 12q20 28 32 56q0 44 -24 76q-212 36 -440 16q4 72 8 148q-24 48 -64 60q-36 0 -64 -16q-52 -84 -48 -200q-256 8 -496 -24q-20 -24 -28 -64q4 -60 60 -84q208 8 420 12q12 -36 0 -96 q-140 -20 -272 -60q-24 -32 -32 -72q0 -144 16 -288q16 -64 44 -132q48 -36 124 -28q-200 -280 -436 -560zM724 1052q180 48 396 32q72 -4 140 -32q-4 -116 -12 -232q-240 4 -492 4q-32 112 -32 228z" />
<glyph unicode="&#x514d;" d="M392 116q-8 -48 32 -84q28 -16 68 -16q72 36 136 108q84 124 156 248q64 144 108 304q60 12 108 -16q-20 -180 -8 -368q16 -80 60 -156q36 -40 80 -80q92 -48 200 -80q156 -12 300 36q24 28 32 60q-8 60 -60 80q-120 -16 -240 -24q-100 32 -180 100q-48 216 -28 444 q132 4 268 -8q28 12 52 28q40 260 0 512q-164 56 -360 56q80 144 184 284q0 80 -64 108q-192 24 -388 28q-200 -100 -352 -264q-8 -48 12 -88q48 -32 108 -12q128 96 252 200q112 8 204 -20q-80 -124 -188 -236q-132 -16 -272 -20q-68 -12 -116 -52q-20 -28 -28 -64 q-20 -232 16 -444q104 -32 240 -16q-20 -128 -96 -252q-108 -156 -236 -296zM624 1076q128 28 252 16q28 -128 -8 -260q-120 -4 -236 -12q-16 124 -8 256zM1048 836q-8 136 4 268q136 4 268 -20q24 -108 12 -232q-132 -24 -284 -16z" />
<glyph unicode="&#x5154;" d="M236 84q20 -40 72 -56q32 4 64 20q208 232 404 476l88 160q28 8 52 -8q-36 -232 -4 -472q32 -68 88 -128q148 -104 332 -136q124 -4 248 16q104 36 212 76q20 36 24 76q-16 52 -64 68q-144 -32 -280 -80q-128 4 -240 36q-56 32 -108 56q-44 40 -60 88q-16 224 24 416 q116 4 236 4q36 20 60 52q12 244 -4 472q-36 32 -72 40q-148 8 -292 -8q76 156 184 300q4 52 -24 80q-60 24 -108 40q-180 32 -344 12q-128 -136 -260 -256q-24 -32 -16 -80q16 -40 60 -56q28 0 56 4q136 108 232 236q92 4 184 -16q-84 -136 -184 -264q-192 -12 -372 -40 q-24 -32 -32 -72q28 -204 12 -416q12 -32 44 -52q120 -4 220 -12q-200 -264 -432 -524v-52zM560 1068q100 28 216 24q24 -112 20 -252q-108 -20 -220 -8q-8 120 -16 236zM940 1084q132 32 280 24q24 -128 -4 -256q-128 -4 -252 -4q-24 116 -24 236zM1196 552 q44 -144 200 -224q36 4 68 20q36 52 16 108q-88 68 -144 144q-36 20 -76 16q-48 -12 -64 -64z" />
<glyph unicode="&#x515a;" d="M260 900q8 -36 24 -72q36 -24 88 -20q20 8 40 28q32 92 32 200q228 84 484 104q200 8 404 0q144 -8 268 -56q-40 -92 -40 -196q16 -32 60 -48q48 -4 84 28q32 120 80 240q4 48 -16 84q-88 52 -188 76q-136 16 -264 36q76 104 96 224q-16 48 -64 60q-40 -4 -64 -20 q-92 -124 -148 -268q-40 -8 -72 4q16 180 -12 352q-24 28 -52 40q-40 4 -68 -12q-24 -20 -32 -52q8 -168 24 -340q-40 -12 -80 -8q-72 108 -128 216q-36 28 -88 24q-40 -16 -52 -56q20 -112 92 -208q-176 -36 -340 -80q-48 -136 -68 -280zM440 100q-4 -40 28 -72 q36 -20 88 -16q252 288 416 572q-4 -216 56 -408q36 -64 96 -124q96 -64 220 -88q140 -20 252 28q24 48 12 100q-28 28 -60 40q-108 -8 -212 0q-76 20 -136 76q-32 52 -52 108q-16 136 -4 268q56 20 112 44q64 128 52 288q-12 56 -44 88q-44 16 -88 28q-196 4 -376 -16 q-68 -16 -128 -44q-36 -168 16 -336q40 -40 84 -68q-156 -232 -332 -468zM816 852q152 36 328 24q8 -64 -8 -132q-152 -8 -308 -12q-16 60 -12 120z" />
<glyph unicode="&#x5165;" d="M304 248q8 -32 36 -64q36 -12 80 -12q56 28 116 64q240 212 424 476q108 -148 248 -296q196 -172 428 -264q36 0 64 12q44 48 28 108q-152 96 -316 188q-124 116 -236 236q-252 376 -472 764q-56 32 -104 -4q-20 -24 -20 -64q108 -260 276 -500q-32 -96 -92 -180 q-112 -132 -240 -268q-96 -76 -192 -128q-24 -28 -28 -68z" />
<glyph unicode="&#x5168;" d="M260 816q20 -56 76 -72q44 16 92 40q264 284 568 596q336 -324 692 -624q64 -4 92 52q12 52 -16 92q-376 320 -700 672q-44 36 -104 28q-328 -384 -684 -716q-16 -28 -16 -68zM572 172q-44 -64 8 -124q428 12 876 -12q40 16 60 60q4 48 -20 76q-188 48 -388 48 q-8 116 8 220q120 -4 224 20q36 56 8 112q-108 52 -240 28q-20 112 -16 220q140 16 280 28q32 36 28 88q-12 28 -32 44q-372 36 -720 -28q-16 -24 -28 -52q4 -60 64 -84q120 8 244 8q16 -108 20 -228q-124 4 -236 -20q-28 -28 -40 -68q4 -28 20 -56q124 -20 268 -28 q4 -112 -20 -216q-200 12 -368 -36z" />
<glyph unicode="&#x516b;" d="M212 472q-8 -48 20 -88q52 -32 108 -8q220 316 420 632q-4 40 -20 68q-64 44 -124 0q-204 -296 -404 -604zM980 1272q148 -324 364 -624q192 -208 412 -352q36 8 72 32q16 40 12 88q-164 164 -336 292q-204 304 -388 608q-56 32 -112 0q-16 -16 -24 -44z" />
<glyph unicode="&#x516c;" d="M328 976q20 -52 84 -64q44 8 84 32q208 212 364 456q4 48 -20 80q-60 44 -124 4q-148 -228 -372 -432q-20 -32 -16 -76zM512 284q4 -76 80 -100q392 20 772 56q52 -52 104 -120q64 -36 124 8q24 36 20 84q-172 212 -316 444q-36 20 -76 16q-72 -24 -64 -104 q40 -80 100 -164q-228 -36 -472 -36q132 260 300 520q-4 36 -16 64q-32 28 -68 32q-32 0 -64 -20q-216 -336 -424 -680zM1168 1492q8 -36 24 -76q156 -240 380 -472q48 -28 108 -16q48 40 44 100q-224 252 -404 508q-40 24 -84 24q-52 -16 -68 -68z" />
<glyph unicode="&#x516d;" d="M304 992q16 -48 72 -64q672 20 1332 12q44 36 44 92q-12 32 -32 52q-668 36 -1336 4q-36 -4 -64 -28q-20 -28 -16 -68zM368 220q-8 -52 28 -88q28 -16 72 -16q76 52 140 140q144 196 232 408q-28 44 -72 60q-36 -4 -64 -20q-160 -248 -336 -484zM852 1460 q20 -156 72 -304q32 -32 84 -28q36 16 52 52q-4 172 -60 312q-20 16 -44 28q-80 8 -104 -60zM1264 632q128 -256 304 -500q36 -20 84 -16q32 16 48 48q-8 80 -44 140q-132 192 -248 376q-52 40 -108 16q-32 -24 -36 -64z" />
<glyph unicode="&#x5170;" d="M164 56q-24 -60 12 -112q28 -12 68 -28q792 16 1580 48q40 16 72 48q12 36 12 72q-24 60 -80 76q-816 -28 -1624 -68zM448 908q16 -52 68 -76q496 20 992 52q60 20 92 72q4 32 0 64q-24 40 -60 56q-500 -28 -1008 -56q-40 -12 -68 -44q-16 -28 -16 -68zM496 1560 q24 -120 72 -240q48 -112 144 -184q40 -8 80 12q48 52 32 116q-96 212 -192 432q-84 24 -128 -36q-12 -44 -8 -100zM664 496q24 -36 64 -64q324 24 664 40q68 48 44 132q-24 28 -52 48q-312 8 -620 -16q-68 -12 -100 -72v-68zM1152 1232q8 -48 56 -76h60q64 28 108 88 q84 180 168 352q4 72 -40 116q-36 16 -76 12q-40 -8 -64 -40q-104 -224 -212 -452z" />
<glyph unicode="&#x5171;" d="M264 780q-4 -76 68 -96q140 8 276 28q568 16 1128 -12q32 16 52 44q4 40 0 76q-64 44 -144 48q-156 0 -308 4q12 152 16 320q124 12 260 40q32 64 -4 108q-104 44 -224 32q-4 80 16 164q-16 44 -60 64q-56 8 -88 -32q-36 -92 -32 -200q-192 -4 -360 -4q-12 100 -44 184 q-40 20 -80 12q-48 -20 -52 -72q0 -64 8 -132q-120 4 -212 -44q-16 -28 -16 -64q16 -44 72 -64q76 8 160 8q20 -152 32 -316q-220 -16 -432 -48q-20 -20 -32 -48zM520 196q-40 -64 4 -128q52 -32 108 -4q120 124 188 276q28 88 48 176q-8 48 -36 72q-48 28 -92 4 q-52 -84 -68 -188q-60 -108 -152 -208zM856 1192q160 32 336 12q4 -168 -20 -328q-136 -4 -276 -4q-32 160 -40 320zM1196 576q76 -260 228 -500q24 -20 64 -28q60 8 84 60q-100 264 -248 500q-48 36 -96 8q-20 -20 -32 -40z" />
<glyph unicode="&#x5173;" d="M320 796q-4 -72 64 -100q264 24 520 8q-68 -212 -216 -396q-112 -108 -248 -196q-16 -28 -24 -64q8 -28 32 -56q32 -20 80 -16q136 76 260 196q160 200 252 424q80 -152 184 -292q152 -192 336 -340q32 -4 72 0q56 44 40 112q-164 164 -332 336q-100 148 -188 296 q272 8 536 16q44 40 36 100q-16 40 -52 52q-272 -4 -556 -4q-16 108 -8 220q180 0 364 -12q48 24 64 72q-4 28 -12 52q-136 52 -292 56q-316 12 -608 -28q-44 -16 -64 -64q4 -40 24 -76q168 -24 368 4q12 -120 -12 -232q-308 28 -592 -24q-16 -20 -28 -44zM708 1620 q8 -116 60 -220q36 -60 108 -52q40 24 52 64q-28 120 -72 228q-36 44 -88 32q-44 -12 -60 -52zM1152 1400q24 -60 96 -56q28 12 52 28l80 168q0 52 -28 80q-68 36 -120 -12q-60 -96 -80 -208z" />
<glyph unicode="&#x5174;" d="M232 748q32 -56 100 -72h776q352 12 684 64q28 28 28 64q-12 48 -48 72q-740 -44 -1500 -32q-44 -36 -40 -96zM360 1312q76 -152 180 -296q32 -44 84 -68q60 -8 92 32q4 40 4 76q-116 184 -256 356h-56q-60 -24 -48 -100zM560 112q24 -60 100 -56q24 16 44 32 q84 188 148 384q4 64 -44 88q-72 16 -112 -40q-92 -196 -136 -408zM840 1544q32 -248 132 -476q32 -16 80 -12q36 16 48 52q-36 208 -80 404q-24 48 -60 88q-52 24 -100 -8q-16 -20 -20 -48zM1280 404q104 -188 280 -348q36 -28 80 -40q40 4 72 40q12 32 12 64 q-172 188 -328 392q-72 24 -116 -32q-8 -36 0 -76zM1372 1100q-8 -48 28 -84q44 -24 92 -4q80 80 136 164q64 100 80 220q-12 28 -36 44q-72 24 -120 -32q-84 -156 -180 -308z" />
<glyph unicode="&#x5175;" d="M288 616q12 -24 32 -48q684 8 1392 -4q28 20 44 52q8 56 -28 92q-200 28 -412 16q-32 184 4 360l272 -4q44 24 56 68q0 36 -12 60q-36 32 -76 40q-360 0 -688 -12q140 140 288 260q20 32 24 72q-16 52 -64 68q-32 -4 -60 -8q-236 -204 -452 -392q-4 -52 32 -84l8 -424 q-180 4 -336 -36q-28 -32 -24 -76zM508 64q32 -56 108 -48q44 28 80 72q108 144 144 316q-24 52 -76 60q-36 -4 -64 -32q-112 -176 -192 -368zM800 1064q172 32 348 12q12 -172 -12 -340q-172 -16 -328 4q0 160 -8 324zM1228 396q12 -72 52 -140q76 -132 196 -236 q40 -4 76 20q16 32 28 60q-108 212 -264 356q-68 4 -88 -60z" />
<glyph unicode="&#x5176;" d="M280 488q16 -40 64 -56l288 40q352 4 700 12q184 -28 372 -48q40 16 60 52q8 48 -12 88q-176 52 -368 56q-8 348 -8 692q68 0 136 12q20 24 36 48q4 52 -24 84q-72 24 -152 24q-12 60 -4 120q-20 44 -64 56q-44 4 -76 -20q-40 -64 -20 -148q-168 -8 -344 -8 q-4 68 -40 120q-44 24 -92 16q-40 -20 -52 -64q4 -36 12 -76q-96 -4 -176 -32q-48 -48 -16 -116q80 -44 188 -24q0 -336 4 -680q-212 -4 -396 -68q-20 -32 -16 -80zM520 84q32 -68 112 -60q104 64 184 156q32 52 60 104q4 52 -32 84q-28 20 -68 12q-108 -116 -232 -216 q-28 -32 -24 -80zM844 1032q172 28 364 16q20 -40 12 -96q-180 -20 -368 -16q-16 44 -8 96zM848 776q172 20 360 16q20 -64 16 -144q-180 -24 -372 -16q-8 68 -4 144zM852 1192q-20 72 8 136q164 16 340 8q32 -52 24 -128q-188 -8 -372 -16zM1196 304q120 -148 264 -308 q40 -24 92 -12q44 36 44 96q-124 176 -276 320q-56 32 -104 -4q-28 -36 -20 -92z" />
<glyph unicode="&#x5177;" d="M352 500q20 -56 84 -68q624 16 1240 28q28 48 16 104q-28 36 -68 40q-636 16 -1244 -24q-32 -32 -28 -80zM472 116q20 -24 52 -40q72 0 128 40q92 76 184 156q20 40 20 88q-16 32 -48 48q-180 -72 -324 -200q-28 -40 -12 -92zM608 748q36 -68 124 -76q292 24 580 4 q32 16 64 28q24 44 36 100q20 396 -16 784q-40 32 -80 44q-300 12 -608 4q-56 -24 -88 -84q-24 -388 -12 -804zM760 828q-8 48 0 96q252 36 496 -12l-8 -64q-240 -24 -488 -20zM764 1188q232 16 480 12q32 -48 8 -120q-244 8 -480 4q-16 48 -8 104zM772 1464q228 28 472 20 q24 -48 16 -124q-240 -8 -484 -12q-8 56 -4 116zM1216 348q-4 -40 12 -72q136 -140 268 -264q48 -12 92 16q16 36 16 80q-88 120 -180 220q-52 52 -116 76q-68 4 -92 -56z" />
<glyph unicode="&#x5178;" d="M312 524q16 -20 48 -32q484 32 988 28q208 -36 392 -28q24 40 20 88q-8 24 -28 44q-76 32 -156 36q12 64 32 132q32 288 0 556q-44 32 -88 44q-128 0 -232 12q4 104 4 208q-32 52 -92 48q-28 -4 -48 -24q-24 -116 -32 -244h-200q-16 92 -52 172q-32 16 -68 16 q-44 -16 -60 -60q8 -64 12 -136q-132 -12 -244 -48q-44 -324 0 -672q-96 -8 -180 -36q-40 -44 -16 -104zM524 132q-8 -48 24 -80q36 -24 92 -20q124 120 200 284q0 72 -64 92q-44 8 -72 -16q-84 -132 -180 -260zM644 1200q52 24 120 16q12 -76 16 -160q-60 -4 -124 -4 q-20 72 -12 148zM656 904q56 -12 124 0q20 -112 40 -228q-68 -20 -148 -12q-28 120 -16 240zM920 1224q92 24 204 12q20 -72 12 -156q-88 -32 -196 -20q-24 76 -20 164zM944 668q-4 120 16 240h160q8 -112 4 -228q-92 0 -180 -12zM1272 676q4 100 8 212q76 12 160 8 q8 -120 -20 -232q-76 4 -148 12zM1288 1224q76 24 168 12q12 -104 -4 -204q-76 24 -160 16q-28 88 -4 176zM1308 348q64 -164 164 -324q56 -44 124 -8l24 48q-60 180 -180 332q-32 20 -72 16q-48 -12 -60 -64z" />
</font>
</defs>
</svg>
