<svg width="48" height="48" viewBox="0 0 48 48" fill="none" xmlns="http://www.w3.org/2000/svg">
<rect width="48" height="48" rx="24" fill="#FAFAFA"/>
<path d="M30.9313 17.7443C29.6344 17.1587 28.266 16.7407 26.8601 16.5009C26.8473 16.4987 26.8343 16.5006 26.8226 16.5061C26.811 16.5116 26.8014 16.5205 26.7951 16.5316C26.6188 16.8391 26.4238 17.2413 26.2876 17.5561C24.7721 17.3298 23.2306 17.3298 21.7151 17.5561C21.5631 17.2054 21.3912 16.8633 21.2001 16.5316C21.1937 16.5206 21.1841 16.5118 21.1725 16.5063C21.1609 16.5008 21.1479 16.4989 21.1351 16.5009C19.7289 16.7395 18.3602 17.1576 17.0639 17.7443C17.0528 17.7485 17.0436 17.7563 17.0377 17.7664C14.4452 21.5779 13.734 25.2959 14.0827 28.9672C14.084 28.9844 14.0952 29.0017 14.109 29.0127C15.6186 30.113 17.3072 30.9531 19.1027 31.4971C19.1153 31.5011 19.129 31.5009 19.1415 31.4967C19.1541 31.4925 19.165 31.4845 19.1727 31.4738C19.5577 30.9572 19.9001 30.4124 20.1951 29.8392C20.2013 29.8274 20.2034 29.814 20.2011 29.8009C20.1989 29.7878 20.1924 29.7758 20.1826 29.7667C20.1762 29.7607 20.1685 29.7561 20.1601 29.7531C19.6216 29.5495 19.1 29.3048 18.6002 29.0213C18.5862 29.0136 18.5758 29.0008 18.5712 28.9857C18.5665 28.9706 18.5679 28.9543 18.5752 28.9402C18.5794 28.931 18.5858 28.923 18.5939 28.9168C18.6989 28.8393 18.8039 28.7581 18.9039 28.677C18.9127 28.67 18.9233 28.6655 18.9346 28.664C18.9458 28.6625 18.9572 28.664 18.9677 28.6684C22.2414 30.1393 25.7851 30.1393 29.0188 28.6684C29.0296 28.6638 29.0415 28.6621 29.0531 28.6636C29.0648 28.6652 29.0758 28.6698 29.0851 28.677C29.1851 28.7581 29.2901 28.8393 29.395 28.9168C29.4036 28.9229 29.4104 28.931 29.4149 28.9404C29.4195 28.9497 29.4216 28.96 29.4211 28.9704C29.4206 28.9807 29.4175 28.9908 29.4121 28.9997C29.4067 29.0086 29.3991 29.016 29.39 29.0213C28.8913 29.3074 28.3691 29.5518 27.8288 29.7519C27.8202 29.755 27.8124 29.7599 27.8059 29.7662C27.7994 29.7726 27.7944 29.7803 27.7913 29.7888C27.7884 29.797 27.7873 29.8057 27.7879 29.8144C27.7886 29.8231 27.791 29.8315 27.7951 29.8392C28.0951 30.4111 28.4388 30.9572 28.8163 31.4738C28.8239 31.4845 28.8348 31.4925 28.8474 31.4967C28.86 31.5009 28.8736 31.5011 28.8863 31.4971C30.6848 30.9548 32.3761 30.1146 33.8875 29.0127C33.8951 29.0076 33.9014 29.0008 33.9059 28.9929C33.9105 28.985 33.9131 28.9763 33.9138 28.9672C34.3312 24.7228 33.215 21.0355 30.9563 17.7677C30.954 17.7623 30.9506 17.7574 30.9463 17.7534C30.942 17.7493 30.9369 17.7463 30.9313 17.7443ZM20.6839 26.7312C19.6977 26.7312 18.8864 25.8408 18.8864 24.7486C18.8864 23.6552 19.6827 22.7648 20.6839 22.7648C21.6926 22.7648 22.4964 23.6626 22.4814 24.7486C22.4814 25.8408 21.6851 26.7312 20.6839 26.7312ZM27.3288 26.7312C26.3438 26.7312 25.5313 25.8408 25.5313 24.7486C25.5313 23.6552 26.3276 22.7648 27.3288 22.7648C28.3376 22.7648 29.1426 23.6626 29.1263 24.7486C29.1263 25.8408 28.3376 26.7312 27.3288 26.7312Z" fill="#101828"/>
</svg>
