<svg width="48" height="48" viewBox="0 0 48 48" fill="none" xmlns="http://www.w3.org/2000/svg">
<rect width="48" height="48" rx="24" fill="#FAFAFA"/>
<path d="M14.8334 18.7886C14.8334 18.1817 15.0748 17.5995 15.5046 17.1703C15.9344 16.7411 16.5173 16.5 17.125 16.5H30.875C31.4828 16.5 32.0657 16.7411 32.4955 17.1703C32.9253 17.5995 33.1667 18.1817 33.1667 18.7886V27.9432C33.1667 28.5502 32.9253 29.1323 32.4955 29.5615C32.0657 29.9907 31.4828 30.2319 30.875 30.2319H19.8911C19.5872 30.2319 19.2958 30.3525 19.081 30.5672L15.8119 33.8319C15.7319 33.9121 15.6298 33.9667 15.5186 33.9889C15.4075 34.0111 15.2922 33.9999 15.1874 33.9566C15.0827 33.9134 14.9931 33.84 14.9301 33.7459C14.8671 33.6518 14.8334 33.5412 14.8334 33.428V18.7886ZM23.0765 21.9538C23.001 21.8413 22.9138 21.7369 22.8164 21.6426C22.6633 21.4851 22.4807 21.3591 22.279 21.2718L22.2698 21.2672C21.9985 21.1414 21.7028 21.0766 21.4036 21.0773C20.3059 21.0773 19.4167 21.931 19.4167 22.9849C19.4167 24.0377 20.3059 24.8913 21.4036 24.8913C21.7966 24.8913 22.1621 24.7826 22.4704 24.5938C22.3134 25.0389 22.0235 25.5138 21.5422 25.9899C21.4969 26.0341 21.4611 26.087 21.4371 26.1456C21.413 26.2041 21.4012 26.2669 21.4024 26.3302C21.4036 26.3934 21.4177 26.4558 21.4439 26.5133C21.4701 26.5709 21.5079 26.6225 21.5548 26.665C21.7531 26.8481 22.067 26.8424 22.2584 26.6536C23.7869 25.1328 23.8282 23.4975 23.3366 22.4127C23.2644 22.2524 23.1773 22.0991 23.0765 21.955V21.9538ZM27.4375 24.5938C27.2817 25.0389 26.9907 25.5138 26.5094 25.9899C26.4642 26.0341 26.4284 26.0872 26.4045 26.1457C26.3805 26.2043 26.3689 26.2672 26.3701 26.3304C26.3714 26.3937 26.3857 26.456 26.412 26.5135C26.4383 26.5711 26.4761 26.6226 26.5232 26.665C26.7202 26.8481 27.0342 26.8424 27.2256 26.6536C28.7541 25.1328 28.7954 23.4975 28.3049 22.4127C28.2323 22.2523 28.1449 22.0991 28.0437 21.955C27.9682 21.842 27.8811 21.7373 27.7836 21.6426C27.6305 21.4851 27.4479 21.3591 27.2462 21.2718L27.237 21.2672C26.966 21.1416 26.6707 21.0767 26.3719 21.0773C25.2754 21.0773 24.385 21.931 24.385 22.9849C24.385 24.0377 25.2754 24.8913 26.3719 24.8913C26.7649 24.8913 27.1305 24.7826 27.4387 24.5938H27.4375Z" fill="#101828"/>
</svg>
