<svg width="125" height="21" viewBox="0 0 125 21" fill="none" xmlns="http://www.w3.org/2000/svg">
<path fill-rule="evenodd" clip-rule="evenodd" d="M57.6709 0.945374H74.917V5.77429H57.6709V0.945374ZM57.6709 8.25769H74.9171V13.0866H57.6709V8.25769ZM74.9171 15.5701H57.6709V20.399H74.9171V15.5701Z" fill="black"/>
<path fill-rule="evenodd" clip-rule="evenodd" d="M55.4637 0.945374L48.5653 13.0866V20.399H43.1845L43.1845 13.0867H43.1843L36.2859 0.945381H41.1148L45.8748 9.32297L50.6348 0.945374L55.4637 0.945374Z" fill="black"/>
<path fill-rule="evenodd" clip-rule="evenodd" d="M26.9732 5.19485L22.4892 13.0866H31.457H31.4572L26.9732 5.19485ZM24.5587 0.945396L17.6603 13.0866H17.6602H17.6602V17.9156H17.6602L17.6602 20.399H22.4891V17.9156H31.457V20.399H36.286V17.9156H36.286V13.0866L36.2861 13.0867L29.3877 0.945374L29.3876 0.945374H24.5587L24.5587 0.945374L24.5587 0.945396Z" fill="black"/>
<path fill-rule="evenodd" clip-rule="evenodd" d="M4.82894 15.5701L4.82894 0.945374L2.6226e-05 0.945374L2.55868e-05 15.5701H0V20.399H2.53757e-05L2.53757e-05 20.399H4.82894V20.399H15.1766V15.5701H4.82894Z" fill="black"/>
<path fill-rule="evenodd" clip-rule="evenodd" d="M82.2296 13.0867L82.2296 20.399H77.4007L77.4007 13.0867H77.4006V0.945381H77.4007V0.945374L82.2296 0.945374V0.945381H89.9558C93.3085 0.945381 96.0265 3.6633 96.0265 7.01602C96.0265 9.75397 94.2139 12.0686 91.7233 12.8253L96.0265 20.399H91.1975L87.0428 13.0867H82.2296ZM82.2296 8.25773H84.2991L84.2991 8.2577H89.128L89.128 8.25773H89.9559C90.6417 8.25773 91.1976 7.70179 91.1976 7.016C91.1976 6.33022 90.6417 5.77428 89.9559 5.77428H82.2296V8.25773Z" fill="black"/>
<path fill-rule="evenodd" clip-rule="evenodd" d="M118.929 0.945374H106.374V13.0867H106.374L106.374 15.5701H106.374V20.399H106.374V20.399H111.203V20.399H125V15.5701H111.203V13.0867H118.929C122.282 13.0867 125 10.3687 125 7.01601C125 3.66329 122.282 0.945374 118.929 0.945374ZM118.929 5.77427H106.374V8.25772H118.929C119.615 8.25772 120.171 7.70178 120.171 7.016C120.171 6.33021 119.615 5.77427 118.929 5.77427Z" fill="black"/>
</svg>
