<svg width="24" height="24" viewBox="0 0 24 24" fill="none" xmlns="http://www.w3.org/2000/svg">
<path d="M24 12C24 18.627 18.627 24 12 24C5.37296 24 0 18.627 0 12C0 5.37296 5.37296 0 12 0C18.6284 0 24 5.37296 24 12Z" fill="white"/>
<path d="M19 14.3667V13.67C19 13.6055 18.9394 13.5588 18.8798 13.5767L15.672 14.5278C15.6547 14.5323 15.6395 14.5423 15.6276 14.5556C15.2836 14.9453 14.9912 15.2068 14.9143 15.2755L14.9093 15.28C14.71 15.4533 14.463 15.5478 14.203 15.5478H13.0416V14.3334H13.9647C13.9885 14.3334 14.0113 14.3244 14.0286 14.3089L14.1477 14.1966C14.1987 14.1489 14.2593 14.0911 14.3319 14.0167C14.3382 14.0102 14.3447 14.0036 14.3512 13.997C14.3892 13.9582 14.4298 13.9167 14.4695 13.8711C14.5172 13.8234 14.5638 13.77 14.6071 13.7178C14.6797 13.6378 14.749 13.5544 14.8216 13.4667C14.8736 13.4089 14.9213 13.3434 14.9678 13.2778C15.0199 13.2156 15.0707 13.1455 15.1184 13.0789C15.1362 13.0522 15.1551 13.0251 15.1744 12.9974C15.1928 12.9711 15.2115 12.9443 15.23 12.9166C15.2647 12.8634 15.2994 12.8067 15.3286 12.7533C15.4196 12.6089 15.4965 12.4544 15.5616 12.3C15.5913 12.2342 15.615 12.1649 15.638 12.0975C15.641 12.0887 15.6441 12.0799 15.6471 12.0711C15.6731 11.9922 15.6948 11.9178 15.711 11.8389C15.7501 11.6533 15.7587 11.4689 15.7414 11.2844C15.737 11.2267 15.7327 11.17 15.7197 11.1166V11.1078C15.7153 11.07 15.7067 11.0278 15.6948 10.9889C15.6558 10.8089 15.5951 10.6289 15.5182 10.4522C15.4922 10.3867 15.4618 10.32 15.4326 10.2589C15.3632 10.1267 15.2907 9.99445 15.2083 9.86667C15.1918 9.83972 15.1736 9.81241 15.1554 9.78515C15.1414 9.76409 15.1274 9.74306 15.1141 9.72223C15.0619 9.6396 15.0032 9.55996 14.9462 9.48268C14.9334 9.46538 14.9208 9.4482 14.9083 9.43113C14.8747 9.38595 14.838 9.34076 14.801 9.29528C14.7807 9.27029 14.7603 9.24522 14.7403 9.22C14.684 9.14999 14.6287 9.08333 14.5724 9.01779C14.3709 8.78445 14.1597 8.57332 13.9712 8.39335C13.9365 8.35778 13.8986 8.32223 13.8596 8.28777C13.7133 8.15112 13.5801 8.03223 13.4685 7.94C13.4348 7.91342 13.4046 7.88725 13.3766 7.86289C13.3577 7.84651 13.3397 7.83096 13.3223 7.81665C13.2876 7.79018 13.2577 7.76675 13.2326 7.7472C13.2178 7.73559 13.2047 7.72535 13.1934 7.71665C13.1847 7.71 13.1749 7.70555 13.1652 7.70222L13.0416 7.66667V6.61779C13.0416 6.44667 12.9745 6.29335 12.8672 6.18111C12.76 6.06888 12.6106 6 12.4459 6C12.1166 6 11.85 6.27667 11.85 6.61779V7.32444L11.7883 7.30666L11.6204 7.25778L11.4676 7.21445C11.4676 7.21445 11.4654 7.21334 11.4632 7.21334H11.46L10.3008 6.89111C10.2499 6.87667 10.2066 6.93334 10.2326 6.98111L10.4179 7.33223C10.4283 7.35913 10.4416 7.38602 10.4553 7.41366C10.4642 7.43168 10.4732 7.45002 10.4817 7.46888C10.5121 7.53113 10.5425 7.59667 10.5717 7.66222C10.5976 7.72 10.6236 7.77667 10.6541 7.83889C10.6666 7.86765 10.6794 7.89676 10.6923 7.92627C10.7409 8.03699 10.792 8.15344 10.8425 8.2789C10.8859 8.38445 10.9292 8.49001 10.9671 8.6C11.0711 8.87667 11.1697 9.17222 11.2553 9.47556C11.2766 9.54347 11.2936 9.6092 11.3109 9.6758C11.3182 9.70401 11.3255 9.73237 11.3333 9.76112L11.3451 9.81445C11.3799 9.95557 11.4102 10.0956 11.4319 10.2367C11.4492 10.3333 11.4654 10.4255 11.4741 10.5189C11.4871 10.6244 11.5001 10.73 11.5045 10.8355C11.5131 10.9322 11.5175 11.0333 11.5175 11.13C11.5175 11.3767 11.4958 11.6145 11.4449 11.8389C11.4415 11.8515 11.4382 11.8643 11.4348 11.8773C11.4206 11.9314 11.406 11.9873 11.3886 12.0411C11.3725 12.0995 11.3517 12.1578 11.3302 12.2184C11.3226 12.2397 11.3149 12.2614 11.3073 12.2833C11.3061 12.2866 11.305 12.2898 11.3038 12.293C11.2876 12.3377 11.2711 12.3833 11.251 12.4278C11.1437 12.6922 11.0105 12.9556 10.8728 13.2022C10.6714 13.5678 10.4687 13.8889 10.3268 14.0955C10.3182 14.1088 10.3098 14.1214 10.3018 14.1335C10.2915 14.1489 10.2818 14.1635 10.2727 14.1778C10.2283 14.2422 10.2738 14.3334 10.3507 14.3334H11.85V15.5478H10.3334C9.92602 15.5478 9.54902 15.3111 9.367 14.9322C9.27276 14.7422 9.23592 14.5333 9.2576 14.3289C9.26301 14.2678 9.21859 14.21 9.15792 14.21H6.09427C6.04225 14.21 6 14.2533 6 14.3067V14.3711C6 16.3755 7.57842 18 9.52627 18H15.0221C16.0522 18 16.6371 17.0373 17.212 16.091C17.3723 15.8271 17.5319 15.5645 17.7001 15.3244C18.0022 14.8934 18.7292 14.5511 18.9416 14.4578C18.9762 14.4422 19 14.4066 19 14.3667Z" fill="#21222B"/>
<path d="M6.81912 12.7788L6.77362 12.8521C6.73355 12.9155 6.77795 12.9999 6.85377 12.9999H9.67479C9.70621 12.9999 9.73545 12.9843 9.7528 12.9578C9.78963 12.8999 9.82429 12.84 9.85571 12.7788C10.0995 12.3588 10.3161 11.9044 10.3952 11.5688C10.5804 10.7533 10.185 9.44327 9.72679 8.38992C9.69646 8.31994 9.6022 8.31326 9.56213 8.37771L6.81912 12.7788Z" fill="#21222B"/>
</svg>
