<svg width="48" height="48" viewBox="0 0 48 48" fill="none" xmlns="http://www.w3.org/2000/svg">
<rect width="48" height="48" rx="24" fill="#FAFAFA"/>
<path d="M20.2825 32.3333C27.83 32.3333 31.9587 26.2403 31.9587 20.9656C31.9587 20.7951 31.9587 20.6222 31.9513 20.4517C32.7551 19.8847 33.4488 19.1828 34 18.3788C33.2491 18.7014 32.4535 18.914 31.6388 19.0097C32.4969 18.5099 33.1397 17.7236 33.4475 16.7968C32.6412 17.2622 31.7588 17.5889 30.8387 17.7626C30.2202 17.1208 29.4018 16.6956 28.5101 16.5529C27.6185 16.4102 26.7034 16.558 25.9067 16.9733C25.1099 17.3886 24.476 18.0483 24.1031 18.8502C23.7301 19.6521 23.639 20.5514 23.8438 21.4089C22.2122 21.3292 20.616 20.9162 19.1588 20.1968C17.7016 19.4774 16.4159 18.4675 15.385 17.2328C14.8617 18.1134 14.702 19.1551 14.9383 20.1463C15.1746 21.1375 15.7893 22.0039 16.6575 22.5696C16.0069 22.548 15.3707 22.3778 14.8 22.0727V22.1275C14.8011 23.05 15.1291 23.9438 15.7286 24.6579C16.3281 25.372 17.1622 25.8626 18.09 26.0466C17.7378 26.1411 17.374 26.1883 17.0087 26.1867C16.7512 26.1874 16.4942 26.1642 16.2413 26.1173C16.5035 26.9114 17.0141 27.6057 17.7016 28.103C18.389 28.6003 19.2189 28.8756 20.075 28.8904C18.6207 30.0033 16.8243 30.6069 14.975 30.6039C14.6492 30.6053 14.3235 30.587 14 30.5491C15.8769 31.715 18.0566 32.334 20.2825 32.3333Z" fill="#101828"/>
</svg>
