<svg width="24" height="24" viewBox="0 0 24 24" fill="none" xmlns="http://www.w3.org/2000/svg">
<path d="M12 24C18.6274 24 24 18.6274 24 12C24 5.37257 18.6274 0 12 0C5.37258 0 0 5.37257 0 12C0 18.6274 5.37258 24 12 24Z" fill="white"/>
<path d="M16.7805 9.48339C16.7864 9.59215 16.7864 9.7009 16.7864 9.80966C16.7864 13.145 14.3063 17 9.77613 17C8.38585 17 7.08984 16.5831 6 15.8641C6.19441 15.8882 6.38881 15.9003 6.5891 15.9003C7.74374 15.9003 8.80411 15.4954 9.64656 14.8188C8.56847 14.8006 7.66127 14.0695 7.34315 13.0665C7.49043 13.0967 7.64948 13.1148 7.80853 13.1148C8.03239 13.1148 8.25036 13.0846 8.45655 13.0242C7.33136 12.7946 6.48306 11.7734 6.48306 10.5468C6.48306 10.5347 6.48306 10.5227 6.48306 10.5167C6.81296 10.704 7.19587 10.8188 7.59646 10.8308C6.93667 10.3776 6.50073 9.60424 6.50073 8.7281C6.50073 8.26284 6.62445 7.83383 6.83652 7.45922C8.05007 8.98792 9.86445 9.99094 11.9145 10.0997C11.8733 9.91239 11.8498 9.71902 11.8498 9.52567C11.8498 8.1299 12.9514 7 14.3122 7C15.0192 7 15.6613 7.30816 16.109 7.79758C16.6686 7.68278 17.1987 7.47129 17.6701 7.1873C17.4875 7.77945 17.0927 8.26887 16.5861 8.58307C17.0868 8.52266 17.5581 8.38368 18 8.18428C17.676 8.67975 17.2577 9.1269 16.7805 9.48339Z" fill="#21222B"/>
</svg>
