<svg width="24" height="24" viewBox="0 0 24 24" fill="none" xmlns="http://www.w3.org/2000/svg">
<path d="M12 24C18.6274 24 24 18.6274 24 12C24 5.37257 18.6274 0 12 0C5.37258 0 0 5.37257 0 12C0 18.6274 5.37258 24 12 24Z" fill="white"/>
<path d="M11.4997 10.5003C11.9557 10.5003 12.3864 10.5981 12.7928 10.793C13.0976 10.9363 13.3737 11.1321 13.6206 11.3796C13.8679 11.6267 14.0636 11.9024 14.207 12.207C14.0116 12.4026 13.7757 12.5001 13.5001 12.5001C13.4037 12.5001 13.3063 12.4854 13.2075 12.4568C13.0408 12.1866 12.8133 11.9592 12.5431 11.7926C12.223 11.5978 11.8752 11.4999 11.5001 11.4999C11.2393 11.4999 10.987 11.5494 10.7421 11.6484C10.4974 11.7475 10.2789 11.8933 10.0858 12.0862L8.58576 13.5861C8.39311 13.7787 8.24733 13.9973 8.14833 14.2424C8.05014 14.4828 7.99971 14.7401 7.99983 14.9999C7.99983 15.2603 8.04933 15.513 8.14833 15.7575C8.24733 16.0026 8.39311 16.2211 8.58576 16.4138C8.7787 16.6068 8.99738 16.7525 9.24195 16.8516C9.48269 16.9498 9.74023 17.0001 10.0002 16.9999C10.2607 16.9999 10.5131 16.9507 10.7582 16.8517C11.003 16.7525 11.2214 16.6068 11.4144 16.4139L12.4651 15.3635C12.7985 15.4544 13.1433 15.5002 13.5001 15.5002C13.5576 15.5002 13.6381 15.4975 13.7421 15.4925C13.7028 15.5364 13.6624 15.5793 13.6212 15.6212L12.1213 17.1211C11.8317 17.41 11.5046 17.6287 11.1387 17.7774C10.7773 17.925 10.3906 18.0006 10.0002 18C9.60927 18 9.22955 17.9253 8.86149 17.7753C8.49343 17.6258 8.16607 17.4076 7.87883 17.1212C7.5899 16.832 7.37136 16.5045 7.22279 16.1386C7.07525 15.7774 6.99958 15.3907 7 15.0005C6.99956 14.61 7.07523 14.2232 7.22279 13.8618C7.37144 13.4959 7.5899 13.1685 7.87883 12.8793L9.37893 11.3795C9.40797 11.3509 9.4508 11.3107 9.50785 11.2586C9.78689 11.0111 10.0981 10.8228 10.4417 10.694C10.7855 10.5655 11.1383 10.5006 11.5003 10.5006L11.4997 10.5003V10.5003ZM15.0001 7.00044C15.3905 6.99985 15.7773 7.07558 16.1386 7.22337C16.5042 7.37136 16.8319 7.59026 17.1213 7.87963C17.4103 8.1682 17.6291 8.49541 17.7776 8.86157C17.9248 9.22313 18.0004 9.60988 18 10.0003C18 10.3909 17.925 10.7702 17.7756 11.1387C17.6255 11.507 17.4075 11.8344 17.1209 12.1207L15.6209 13.6205C15.5923 13.6499 15.5494 13.6902 15.4919 13.7421C15.2135 13.9898 14.9023 14.1775 14.5581 14.3061C14.2198 14.4339 13.8612 14.4995 13.4996 14.4999C13.0439 14.4999 12.6127 14.4021 12.2066 14.2073C11.9018 14.0636 11.6261 13.8682 11.3786 13.6206C11.1313 13.3735 10.9362 13.0978 10.7926 12.7931C10.9877 12.5975 11.2233 12.5 11.4994 12.5C11.5956 12.5 11.6935 12.5147 11.7924 12.5433C11.9586 12.8136 12.186 13.0411 12.4562 13.2075C12.7767 13.4022 13.1242 13.5001 13.4993 13.5001C13.7597 13.5001 14.0123 13.4506 14.2571 13.3517C14.502 13.2526 14.7206 13.1067 14.9132 12.9139L16.4133 11.4138C16.6063 11.2213 16.752 11.0027 16.8514 10.7577C16.9494 10.5172 16.9998 10.2599 16.9997 10.0001C16.9997 9.73966 16.9502 9.48695 16.8514 9.24261C16.752 8.99753 16.6063 8.77892 16.4133 8.58627C16.2205 8.39333 16.002 8.24755 15.757 8.14825C15.5165 8.05021 15.2592 7.99985 14.9994 7.99997C14.739 7.99997 14.4863 8.04947 14.2415 8.14825C13.9965 8.24755 13.778 8.39333 13.5855 8.58627L12.5343 9.63641C12.2011 9.54562 11.856 9.50001 11.4994 9.50001C11.4422 9.50001 11.3612 9.50243 11.257 9.50741C11.2963 9.46352 11.3368 9.42059 11.3782 9.37864L12.8782 7.87883C13.1649 7.59253 13.4924 7.37422 13.8608 7.22477C14.2293 7.0748 14.6086 7 14.9994 7L15.0001 7.00044Z" fill="black"/>
</svg>
