<svg width="20" height="16" viewBox="0 0 20 16" fill="none" xmlns="http://www.w3.org/2000/svg">
<path d="M3.4153 0.0843897C2.61583 0.253934 1.90079 0.74387 1.44433 1.3935C0.982585 2.04034 0.734564 2.79584 0.602901 3.55614C0.47335 4.31921 0.483905 5.0924 0.523483 5.85295C0.607652 7.38668 0.932455 8.90021 1.48628 10.3405C1.76623 11.0606 2.09868 11.7582 2.49446 12.4275C2.89552 13.0949 3.36517 13.7212 3.88232 14.3077C4.40739 14.8835 4.96939 15.4596 5.72401 15.8159C5.91399 15.9069 6.12243 15.9625 6.33879 15.993C6.5657 16.0158 6.7847 15.9804 6.98523 15.922C7.38892 15.8035 7.74512 15.6014 8.08021 15.3813C8.54459 15.0733 8.97203 14.717 9.37309 14.3456C9.54459 14.1811 9.71609 14.0169 9.88232 13.8504C9.91135 13.8226 9.93773 13.792 9.96939 13.7619C10.4865 13.2338 10.9694 12.6726 11.4338 12.1041C12.4127 10.8938 13.3124 9.63296 14.1251 8.31905C14.9351 7.0054 15.7055 5.6637 16.2834 4.22825C16.5789 3.51824 16.7398 2.69452 16.5393 1.91148C16.4417 1.52211 16.2438 1.14082 15.9113 0.865153C15.5815 0.589991 15.1251 0.470983 14.7003 0.49625C14.2702 0.518991 13.885 0.665796 13.5156 0.819928C13.1435 0.984166 12.7873 1.181 12.4654 1.41624C11.8137 1.87838 11.2596 2.45978 10.7976 3.08617C9.87177 4.35207 9.2438 5.77715 8.75277 7.2275C8.2781 8.67532 7.81636 10.1689 7.87414 11.7276C7.89288 12.1142 7.94037 12.4983 8.06438 12.875C8.1066 13.0011 8.16201 13.1277 8.22533 13.2462C7.87414 13.5775 7.51557 13.8832 7.16728 14.1205C6.91662 14.2875 6.46016 14.4919 6.46016 14.4919C6.46016 14.4919 6.41267 14.482 6.38364 14.4644C6.22269 14.4113 5.97467 14.2468 5.73721 14.0525C5.49947 13.8602 5.25699 13.6278 5.02243 13.3751C4.78971 13.1277 4.54195 12.8445 4.34143 12.5794C4.12771 12.3164 3.93509 12.0286 3.74512 11.7405C3.37836 11.1515 3.04327 10.5327 2.76095 9.88564C2.19657 8.59473 1.83483 7.20501 1.69235 5.78978C1.64222 5.43881 1.62665 5.07497 1.60528 4.72855C1.59208 4.38744 1.6029 4.04658 1.6343 3.71305C1.70554 3.04851 1.87968 2.40647 2.19894 1.88874C2.51557 1.37075 2.97757 0.979107 3.59472 0.791875C4.2095 0.595041 4.84802 0.647858 5.47071 0.94096C6.08839 1.23431 6.64195 1.74724 7.11187 2.32082C7.58945 2.89666 8.00897 3.54628 8.33879 4.22825L8.34169 4.23836C8.3599 4.27399 8.40739 4.2942 8.44697 4.28157C8.49182 4.26363 8.51293 4.21814 8.4971 4.17797C8.23588 3.45001 7.88232 2.75794 7.4496 2.11084C7.00897 1.4741 6.47335 0.870457 5.77942 0.458597C5.43378 0.251404 5.04354 0.102078 4.63958 0.0389099C4.48127 0.0123787 4.32137 0 4.16148 0C3.91082 0 3.66016 0.0303173 3.4153 0.0843897ZM8.86649 12.1701C8.85304 12.0134 8.84802 11.8517 8.85303 11.6872C8.86649 11.028 9.00105 10.3405 9.19367 9.65823C9.29129 9.31207 9.40211 8.97601 9.5314 8.62732C9.65514 8.28141 9.76623 7.92993 9.90871 7.59135L10.1063 7.08095L10.3282 6.58318C10.4654 6.24712 10.6422 5.93381 10.7976 5.61291C11.1409 4.98881 11.5156 4.39274 11.9377 3.86971C12.3021 3.41818 12.7127 2.99672 13.1881 2.65081C13.5559 2.38297 14.2776 1.79576 14.7776 2.02771C15.1256 2.18917 15.1063 2.58612 15.0269 2.89337C15.0013 2.99192 14.972 3.08591 14.9483 3.16828C14.7005 4.02561 14.2739 4.81926 13.8375 5.60053C13.481 6.23954 13.1011 6.87401 12.7003 7.50065C11.8955 8.74608 11.0433 9.97408 10.1277 11.1339C9.73984 11.6218 9.34143 12.0968 8.9219 12.5412C8.89815 12.4326 8.87705 12.304 8.86649 12.1701Z" fill="white"/>
<path d="M19.0194 10.0358L19.0162 10.0424C18.557 10.6759 17.9513 11.1885 17.315 11.6477C16.6752 12.1001 15.9982 12.5094 15.3042 12.8744C14.6067 13.2365 13.8856 13.5681 13.1673 13.8094C13.0791 13.84 12.9907 13.8665 12.9089 13.89C12.8205 13.9139 12.7489 13.9271 12.6504 13.9471C12.4666 13.9873 12.2828 14.0142 12.0992 14.0376C11.7319 14.0844 11.3713 14.0913 11.0205 14.0647C10.6566 14.0344 10.3093 13.9505 10.0134 13.8128C9.9829 13.8465 9.95565 13.8765 9.92519 13.9068C9.75823 14.0813 9.58485 14.2523 9.41147 14.4231C9.90115 14.671 10.4592 14.785 11.0002 14.7987C11.4084 14.8087 11.8203 14.7716 12.2181 14.6976C12.6164 14.6242 13.0212 14.5337 13.3986 14.376C14.1506 14.0713 14.8618 13.6923 15.5526 13.2799C16.2432 12.8646 16.9065 12.412 17.5292 11.8991C18.1488 11.3864 18.7335 10.8166 19.1626 10.1261C19.1861 10.0892 19.1759 10.0424 19.1385 10.0153C19.1244 10.0053 19.1075 10.0003 19.0907 10.0003C19.0637 10.0003 19.0365 10.0129 19.0194 10.0358Z" fill="white"/>
</svg>
