<svg width="243" height="16" viewBox="0 0 243 16" fill="none" xmlns="http://www.w3.org/2000/svg">
<path d="M23.8222 0.222222V15.7778H19.8222V5.11111L13.3556 15.7778H10.4667L4 5.11111V15.7778H0V0.222222H5.4L11.9111 11.2L18.4222 0.222222H23.8222Z" fill="white"/>
<path d="M33.3339 10.6667L24.5339 0.222222H29.3561L35.3339 7.31111L41.3116 0.222222H46.1338L37.3339 10.6667V15.7778H33.3339V10.6667Z" fill="white"/>
<path d="M69.9809 3.57778H57.5364V7.53333H68.6476V10.9111H57.5364V15.7778H53.5364V0.222222H69.9809V3.57778Z" fill="white"/>
<path d="M75.0877 0.222222V15.7778H71.0877V0.222222H75.0877Z" fill="white"/>
<path d="M94.8158 5.93333C94.8158 8.46667 93.5269 10.3333 91.438 11.1556L94.3047 15.7778H89.5936L87.0825 11.6222H80.638V15.7778H76.638V0.222222H88.8602C92.3936 0.222222 94.8158 2.46667 94.8158 5.93333ZM80.638 3.57778V8.26667H87.7491C88.9491 8.26667 90.8158 8.26667 90.8158 5.93333C90.8158 3.57778 88.9491 3.57778 87.7491 3.57778H80.638Z" fill="white"/>
<path d="M95.4427 10.4222H99.4427C99.4427 12.0667 100.776 12.8222 105.843 12.8222C110.043 12.8222 111.309 12.3556 111.309 11.1333C111.309 9.84444 110.42 9.62222 105.376 9.37778C98.5982 9.06667 95.9094 8 95.9094 4.51111C95.9094 1.08889 99.3982 0 105.22 0C111.087 0 114.643 1.46667 114.643 5.31111H110.643C110.643 3.6 108.932 3.17778 104.776 3.17778C100.843 3.17778 99.9094 3.55556 99.9094 4.71111C99.9094 5.91111 100.843 6.13333 105.376 6.4C111.509 6.73333 115.309 7.06667 115.309 11C115.309 15.1556 111.376 16 105.62 16C99.2427 16 95.4427 14.9111 95.4427 10.4222Z" fill="white"/>
<path d="M134.188 0.222222V3.57778H126.633V15.7778H122.633V3.57778H115.077V0.222222H134.188Z" fill="white"/>
<path fill-rule="evenodd" clip-rule="evenodd" d="M144.16 0L144.16 12.0283H152.671V16H144.16V16H140.188L140.188 16H140.188V12.0283H140.188L140.188 0H144.16ZM162.373 3.49506L158.685 9.98581H166.061H166.061L162.373 3.49506ZM160.387 1.76239e-05L154.714 9.98581H154.713H154.713V13.9574H154.713V16H158.685V13.9574H166.061V16H170.032V13.9574H170.032V9.98581L170.033 9.98582L164.359 1.76239e-05L164.359 0H164.359H160.387H160.387L160.387 1.76239e-05ZM180.132 9.98581L185.806 0H181.834L177.919 6.89031L174.004 7.45579e-06L170.032 7.6294e-06L175.706 9.98583H175.706V16H180.132V9.98581ZM201.805 0H187.621V3.97164H201.805V0ZM201.805 6.01416H187.621V9.9858H201.805V6.01416ZM187.621 12.0284H201.805V16H187.621V12.0284ZM207.82 9.98582V16H203.848V9.98582H203.848V7.62939e-06H203.848L207.82 0L214.174 7.62939e-06C216.932 7.62939e-06 219.167 2.23541 219.167 4.99292C219.167 7.24479 217.677 9.14848 215.628 9.7709L219.167 16H215.196L211.779 9.98582H207.82ZM207.82 6.01418H209.522L213.494 6.01416L214.174 6.01418C214.738 6.01418 215.196 5.55694 215.196 4.9929C215.196 4.42887 214.738 3.97162 214.174 3.97162H207.82V6.01418ZM227.678 0H238.004C240.762 0 242.997 2.2354 242.997 4.99291C242.997 7.75042 240.762 9.98582 238.004 9.98582H231.65V12.0283H242.997V16L231.65 16L227.678 16L227.678 12.0283L227.678 9.98582V0ZM227.678 3.97162H238.004C238.568 3.97162 239.026 4.42886 239.026 4.9929C239.026 5.55693 238.568 6.01418 238.004 6.01418H227.678V3.97162Z" fill="url(#paint0_linear_162_34358)"/>
<defs>
<linearGradient id="paint0_linear_162_34358" x1="140" y1="8" x2="246.5" y2="8" gradientUnits="userSpaceOnUse">
<stop stop-color="#1A65FF"/>
<stop offset="1" stop-color="#0094FF"/>
</linearGradient>
</defs>
</svg>
