<svg width="8" height="14" viewBox="0 0 8 14" fill="none" xmlns="http://www.w3.org/2000/svg">
<path d="M3.5 1C3.5 0.723858 3.72386 0.5 4 0.5C4.27614 0.5 4.5 0.723858 4.5 1L3.5 1ZM4.35355 13.3536C4.15829 13.5488 3.84171 13.5488 3.64645 13.3536L0.464466 10.1716C0.269204 9.97631 0.269204 9.65973 0.464466 9.46447C0.659729 9.2692 0.976311 9.2692 1.17157 9.46447L4 12.2929L6.82843 9.46447C7.02369 9.2692 7.34027 9.2692 7.53553 9.46447C7.7308 9.65973 7.7308 9.97631 7.53553 10.1716L4.35355 13.3536ZM4.5 1L4.5 13L3.5 13L3.5 1L4.5 1Z" fill="white"/>
</svg>
