<svg width="27" height="16" viewBox="0 0 27 16" fill="none" xmlns="http://www.w3.org/2000/svg">
<path d="M1 9C0.447715 9 0 8.55228 0 8C0 7.44772 0.447715 7 1 7L1 9ZM26.7071 7.29289C27.0976 7.68342 27.0976 8.31658 26.7071 8.70711L20.3431 15.0711C19.9526 15.4616 19.3195 15.4616 18.9289 15.0711C18.5384 14.6805 18.5384 14.0474 18.9289 13.6569L24.5858 8L18.9289 2.34315C18.5384 1.95262 18.5384 1.31946 18.9289 0.928932C19.3195 0.538408 19.9526 0.538408 20.3431 0.928932L26.7071 7.29289ZM1 7L26 7V9L1 9L1 7Z" fill="white"/>
</svg>
