<svg width="343" height="169" viewBox="0 0 343 169" fill="none" xmlns="http://www.w3.org/2000/svg">
<g clip-path="url(#clip0_140_1478)">
<rect width="343" height="169" rx="12" fill="white"/>
<g filter="url(#filter0_d_140_1478)">
<rect x="-29" y="-29" width="400" height="228" rx="6" fill="url(#paint0_linear_140_1478)"/>
<rect x="-28.75" y="-28.75" width="399.5" height="227.5" rx="5.75" stroke="#D0D5DD" stroke-width="0.5"/>
</g>
<path d="M98.9897 76.5455H103.541L108.348 88.2727H108.552L113.359 76.5455H117.91V94H114.331V82.6392H114.186L109.669 93.9148H107.231L102.714 82.5966H102.569V94H98.9897V76.5455ZM123.124 98.9091C122.664 98.9091 122.232 98.8722 121.828 98.7983C121.431 98.7301 121.101 98.642 120.84 98.5341L121.658 95.8239C122.084 95.9545 122.468 96.0256 122.809 96.0369C123.155 96.0483 123.453 95.9688 123.703 95.7983C123.959 95.6278 124.167 95.3381 124.326 94.929L124.539 94.375L119.843 80.9091H123.661L126.371 90.5227H126.507L129.243 80.9091H133.087L127.999 95.4148C127.755 96.1193 127.422 96.733 127.002 97.2557C126.587 97.7841 126.061 98.1903 125.425 98.4744C124.789 98.7642 124.022 98.9091 123.124 98.9091ZM140.568 94V76.5455H152.125V79.5881H144.258V83.7472H151.358V86.7898H144.258V94H140.568ZM154.539 94V80.9091H158.169V94H154.539ZM156.363 79.2216C155.823 79.2216 155.36 79.0426 154.973 78.6847C154.593 78.321 154.402 77.8864 154.402 77.3807C154.402 76.8807 154.593 76.4517 154.973 76.0938C155.36 75.7301 155.823 75.5483 156.363 75.5483C156.902 75.5483 157.363 75.7301 157.743 76.0938C158.13 76.4517 158.323 76.8807 158.323 77.3807C158.323 77.8864 158.13 78.321 157.743 78.6847C157.363 79.0426 156.902 79.2216 156.363 79.2216ZM161.078 94V80.9091H164.598V83.1932H164.734C164.973 82.3807 165.373 81.767 165.936 81.3523C166.498 80.9318 167.146 80.7216 167.879 80.7216C168.061 80.7216 168.257 80.733 168.467 80.7557C168.677 80.7784 168.862 80.8097 169.021 80.8494V84.071C168.85 84.0199 168.615 83.9744 168.314 83.9347C168.012 83.8949 167.737 83.875 167.487 83.875C166.953 83.875 166.475 83.9915 166.055 84.2244C165.64 84.4517 165.311 84.7699 165.066 85.179C164.828 85.5881 164.708 86.0597 164.708 86.5938V94H161.078ZM181.79 84.642L178.466 84.8466C178.409 84.5625 178.287 84.3068 178.1 84.0795C177.912 83.8466 177.665 83.6619 177.358 83.5256C177.057 83.3835 176.696 83.3125 176.276 83.3125C175.713 83.3125 175.239 83.4318 174.853 83.6705C174.466 83.9034 174.273 84.2159 174.273 84.608C174.273 84.9205 174.398 85.1847 174.648 85.4006C174.898 85.6165 175.327 85.7898 175.935 85.9205L178.304 86.3977C179.577 86.6591 180.526 87.0795 181.151 87.6591C181.776 88.2386 182.088 89 182.088 89.9432C182.088 90.8011 181.836 91.554 181.33 92.2017C180.83 92.8494 180.142 93.3551 179.267 93.7188C178.398 94.0767 177.395 94.2557 176.259 94.2557C174.526 94.2557 173.145 93.8949 172.117 93.1733C171.094 92.446 170.495 91.4574 170.319 90.2074L173.89 90.0199C173.998 90.5483 174.259 90.9517 174.674 91.2301C175.088 91.5028 175.62 91.6392 176.267 91.6392C176.904 91.6392 177.415 91.517 177.801 91.2727C178.194 91.0227 178.392 90.7017 178.398 90.3097C178.392 89.9801 178.253 89.7102 177.98 89.5C177.708 89.2841 177.287 89.1193 176.719 89.0057L174.452 88.554C173.174 88.2983 172.222 87.8551 171.597 87.2244C170.978 86.5937 170.668 85.7898 170.668 84.8125C170.668 83.9716 170.895 83.2472 171.35 82.6392C171.81 82.0312 172.455 81.5625 173.284 81.233C174.12 80.9034 175.097 80.7386 176.216 80.7386C177.87 80.7386 179.171 81.0881 180.12 81.7869C181.074 82.4858 181.631 83.4375 181.79 84.642ZM191.338 80.9091V83.6364H183.454V80.9091H191.338ZM185.244 77.7727H188.875V89.9773C188.875 90.3125 188.926 90.5739 189.028 90.7614C189.13 90.9432 189.272 91.071 189.454 91.1449C189.642 91.2187 189.858 91.2557 190.102 91.2557C190.272 91.2557 190.443 91.2415 190.613 91.2131C190.784 91.179 190.914 91.1534 191.005 91.1364L191.576 93.8381C191.395 93.8949 191.139 93.9602 190.809 94.0341C190.48 94.1136 190.079 94.1619 189.608 94.179C188.733 94.2131 187.966 94.0966 187.306 93.8295C186.653 93.5625 186.145 93.1477 185.781 92.5852C185.417 92.0227 185.238 91.3125 185.244 90.4545V77.7727ZM213.925 76.5455V94H210.738L203.144 83.0142H203.016V94H199.326V76.5455H202.564L210.098 87.5227H210.252V76.5455H213.925ZM216.974 94V76.5455H228.531V79.5881H220.664V83.7472H227.764V86.7898H220.664V94H216.974ZM230.348 79.5881V76.5455H244.684V79.5881H239.34V94H235.692V79.5881H230.348Z" fill="url(#paint1_linear_140_1478)"/>
</g>
<defs>
<filter id="filter0_d_140_1478" x="-89" y="-83" width="520" height="348" filterUnits="userSpaceOnUse" color-interpolation-filters="sRGB">
<feFlood flood-opacity="0" result="BackgroundImageFix"/>
<feColorMatrix in="SourceAlpha" type="matrix" values="0 0 0 0 0 0 0 0 0 0 0 0 0 0 0 0 0 0 127 0" result="hardAlpha"/>
<feOffset dy="6"/>
<feGaussianBlur stdDeviation="30"/>
<feComposite in2="hardAlpha" operator="out"/>
<feColorMatrix type="matrix" values="0 0 0 0 0 0 0 0 0 0 0 0 0 0 0 0 0 0 0.06 0"/>
<feBlend mode="normal" in2="BackgroundImageFix" result="effect1_dropShadow_140_1478"/>
<feBlend mode="normal" in="SourceGraphic" in2="effect1_dropShadow_140_1478" result="shape"/>
</filter>
<linearGradient id="paint0_linear_140_1478" x1="8.00001" y1="1.78335e-06" x2="299" y2="188.5" gradientUnits="userSpaceOnUse">
<stop/>
<stop offset="1"/>
</linearGradient>
<linearGradient id="paint1_linear_140_1478" x1="76" y1="85" x2="278" y2="85" gradientUnits="userSpaceOnUse">
<stop stop-color="#93B7FF"/>
<stop offset="0.501736" stop-color="#FFBA89" stop-opacity="0.53"/>
<stop offset="0.98612" stop-color="#FF89B3"/>
</linearGradient>
<clipPath id="clip0_140_1478">
<rect width="343" height="169" rx="12" fill="white"/>
</clipPath>
</defs>
</svg>
